STARTFONT 2.1
FONT -Gohu-GohuFont-Medium-R-Normal--11-80-100-100-C-60-ISO10646-1
SIZE 11 100 100
FONTBOUNDINGBOX 6 11 0 -2
COMMENT "Generated by fontforge, http://fontforge.sourceforge.net"
COMMENT "Copyright by Hugo Chargois"
COMMENT "Licensed under the WTFPL"
STARTPROPERTIES 30
FOUNDRY "Gohu"
FAMILY_NAME "GohuFont"
WEIGHT_NAME "Medium"
SLANT "R"
SETWIDTH_NAME "Normal"
ADD_STYLE_NAME ""
PIXEL_SIZE 11
POINT_SIZE 80
RESOLUTION_X 100
RESOLUTION_Y 100
SPACING "C"
AVERAGE_WIDTH 60
CHARSET_REGISTRY "ISO10646"
CHARSET_ENCODING "1"
FONTNAME_REGISTRY ""
FONT_NAME "GohuFontMedium"
FACE_NAME "GohuFont"
FONT_VERSION "003.000"
FONT_ASCENT 9
FONT_DESCENT 2
UNDERLINE_POSITION -1
UNDERLINE_THICKNESS 1
X_HEIGHT 4
CAP_HEIGHT 7
RAW_ASCENT 818
RAW_DESCENT 182
NORM_SPACE 6
FIGURE_WIDTH 6
AVG_LOWERCASE_WIDTH 60
AVG_UPPERCASE_WIDTH "60"
ENDPROPERTIES
CHARS 1601
STARTCHAR control.dup1
ENCODING 0
SWIDTH 545 0
DWIDTH 6 0
BBX 5 8 0 0
BITMAP
A8
00
88
00
00
88
00
A8
ENDCHAR
STARTCHAR SPACE
ENCODING 32
SWIDTH 545 0
DWIDTH 6 0
BBX 1 1 5 -2
BITMAP
00
ENDCHAR
STARTCHAR EXCLAMATION
ENCODING 33
SWIDTH 545 0
DWIDTH 6 0
BBX 1 8 2 0
BITMAP
80
80
80
80
80
80
00
80
ENDCHAR
STARTCHAR QUOTATION
ENCODING 34
SWIDTH 545 0
DWIDTH 6 0
BBX 3 3 1 5
BITMAP
A0
A0
A0
ENDCHAR
STARTCHAR NUMBER
ENCODING 35
SWIDTH 545 0
DWIDTH 6 0
BBX 5 7 0 1
BITMAP
50
50
F8
50
F8
50
50
ENDCHAR
STARTCHAR DOLLAR
ENCODING 36
SWIDTH 545 0
DWIDTH 6 0
BBX 5 9 0 -1
BITMAP
20
70
A8
A0
70
28
A8
70
20
ENDCHAR
STARTCHAR PERCENT
ENCODING 37
SWIDTH 545 0
DWIDTH 6 0
BBX 5 7 0 0
BITMAP
48
A8
50
20
50
A8
90
ENDCHAR
STARTCHAR AMPERSAND
ENCODING 38
SWIDTH 545 0
DWIDTH 6 0
BBX 5 7 0 0
BITMAP
60
90
A0
40
A8
90
68
ENDCHAR
STARTCHAR APOSTROPHE
ENCODING 39
SWIDTH 545 0
DWIDTH 6 0
BBX 1 3 2 5
BITMAP
80
80
80
ENDCHAR
STARTCHAR LEFT
ENCODING 40
SWIDTH 545 0
DWIDTH 6 0
BBX 3 9 1 -1
BITMAP
20
40
40
80
80
80
40
40
20
ENDCHAR
STARTCHAR RIGHT
ENCODING 41
SWIDTH 545 0
DWIDTH 6 0
BBX 3 9 1 -1
BITMAP
80
40
40
20
20
20
40
40
80
ENDCHAR
STARTCHAR ASTERISK
ENCODING 42
SWIDTH 545 0
DWIDTH 6 0
BBX 5 5 0 1
BITMAP
20
A8
70
A8
20
ENDCHAR
STARTCHAR PLUS
ENCODING 43
SWIDTH 545 0
DWIDTH 6 0
BBX 5 5 0 1
BITMAP
20
20
F8
20
20
ENDCHAR
STARTCHAR COMMA
ENCODING 44
SWIDTH 545 0
DWIDTH 6 0
BBX 2 4 1 -2
BITMAP
C0
C0
40
80
ENDCHAR
STARTCHAR HYPHEN-MINUS
ENCODING 45
SWIDTH 545 0
DWIDTH 6 0
BBX 5 1 0 3
BITMAP
F8
ENDCHAR
STARTCHAR FULL
ENCODING 46
SWIDTH 545 0
DWIDTH 6 0
BBX 2 2 1 0
BITMAP
C0
C0
ENDCHAR
STARTCHAR SOLIDUS
ENCODING 47
SWIDTH 545 0
DWIDTH 6 0
BBX 5 10 0 -2
BITMAP
08
08
10
10
20
20
40
40
80
80
ENDCHAR
STARTCHAR DIGIT
ENCODING 48
SWIDTH 545 0
DWIDTH 6 0
BBX 5 7 0 0
BITMAP
70
88
98
A8
C8
88
70
ENDCHAR
STARTCHAR DIGIT
ENCODING 49
SWIDTH 545 0
DWIDTH 6 0
BBX 3 7 0 0
BITMAP
20
60
A0
20
20
20
20
ENDCHAR
STARTCHAR DIGIT
ENCODING 50
SWIDTH 545 0
DWIDTH 6 0
BBX 5 7 0 0
BITMAP
70
88
08
10
20
40
F8
ENDCHAR
STARTCHAR DIGIT
ENCODING 51
SWIDTH 545 0
DWIDTH 6 0
BBX 5 7 0 0
BITMAP
70
88
08
30
08
88
70
ENDCHAR
STARTCHAR DIGIT
ENCODING 52
SWIDTH 545 0
DWIDTH 6 0
BBX 5 7 0 0
BITMAP
10
30
50
90
F8
10
10
ENDCHAR
STARTCHAR DIGIT
ENCODING 53
SWIDTH 545 0
DWIDTH 6 0
BBX 5 7 0 0
BITMAP
F8
80
F0
08
08
88
70
ENDCHAR
STARTCHAR DIGIT
ENCODING 54
SWIDTH 545 0
DWIDTH 6 0
BBX 5 7 0 0
BITMAP
70
80
F0
88
88
88
70
ENDCHAR
STARTCHAR DIGIT
ENCODING 55
SWIDTH 545 0
DWIDTH 6 0
BBX 5 7 0 0
BITMAP
F8
08
10
10
20
20
20
ENDCHAR
STARTCHAR DIGIT
ENCODING 56
SWIDTH 545 0
DWIDTH 6 0
BBX 5 7 0 0
BITMAP
70
88
88
70
88
88
70
ENDCHAR
STARTCHAR DIGIT
ENCODING 57
SWIDTH 545 0
DWIDTH 6 0
BBX 5 7 0 0
BITMAP
70
88
88
78
08
08
70
ENDCHAR
STARTCHAR COLON
ENCODING 58
SWIDTH 545 0
DWIDTH 6 0
BBX 2 5 2 0
BITMAP
C0
C0
00
C0
C0
ENDCHAR
STARTCHAR SEMICOLON
ENCODING 59
SWIDTH 545 0
DWIDTH 6 0
BBX 2 7 1 -2
BITMAP
C0
C0
00
C0
C0
40
80
ENDCHAR
STARTCHAR LESS-THAN
ENCODING 60
SWIDTH 545 0
DWIDTH 6 0
BBX 4 7 1 0
BITMAP
10
20
40
80
40
20
10
ENDCHAR
STARTCHAR EQUALS
ENCODING 61
SWIDTH 545 0
DWIDTH 6 0
BBX 5 3 0 2
BITMAP
F8
00
F8
ENDCHAR
STARTCHAR GREATER-THAN
ENCODING 62
SWIDTH 545 0
DWIDTH 6 0
BBX 4 7 1 0
BITMAP
80
40
20
10
20
40
80
ENDCHAR
STARTCHAR QUESTION
ENCODING 63
SWIDTH 545 0
DWIDTH 6 0
BBX 5 7 0 0
BITMAP
70
88
08
10
20
00
20
ENDCHAR
STARTCHAR COMMERCIAL
ENCODING 64
SWIDTH 545 0
DWIDTH 6 0
BBX 5 7 0 0
BITMAP
70
88
B8
A8
B8
80
78
ENDCHAR
STARTCHAR LATIN
ENCODING 65
SWIDTH 545 0
DWIDTH 6 0
BBX 5 8 0 0
BITMAP
70
88
88
F8
88
88
88
88
ENDCHAR
STARTCHAR LATIN
ENCODING 66
SWIDTH 545 0
DWIDTH 6 0
BBX 5 8 0 0
BITMAP
F0
88
88
F0
88
88
88
F0
ENDCHAR
STARTCHAR LATIN
ENCODING 67
SWIDTH 545 0
DWIDTH 6 0
BBX 5 8 0 0
BITMAP
70
88
80
80
80
80
88
70
ENDCHAR
STARTCHAR LATIN
ENCODING 68
SWIDTH 545 0
DWIDTH 6 0
BBX 5 8 0 0
BITMAP
F0
88
88
88
88
88
88
F0
ENDCHAR
STARTCHAR LATIN
ENCODING 69
SWIDTH 545 0
DWIDTH 6 0
BBX 5 8 0 0
BITMAP
F8
80
80
F0
80
80
80
F8
ENDCHAR
STARTCHAR LATIN
ENCODING 70
SWIDTH 545 0
DWIDTH 6 0
BBX 5 8 0 0
BITMAP
F8
80
80
F0
80
80
80
80
ENDCHAR
STARTCHAR LATIN
ENCODING 71
SWIDTH 545 0
DWIDTH 6 0
BBX 5 8 0 0
BITMAP
70
88
80
B8
88
88
88
70
ENDCHAR
STARTCHAR LATIN
ENCODING 72
SWIDTH 545 0
DWIDTH 6 0
BBX 5 8 0 0
BITMAP
88
88
88
F8
88
88
88
88
ENDCHAR
STARTCHAR LATIN
ENCODING 73
SWIDTH 545 0
DWIDTH 6 0
BBX 3 8 1 0
BITMAP
E0
40
40
40
40
40
40
E0
ENDCHAR
STARTCHAR LATIN
ENCODING 74
SWIDTH 545 0
DWIDTH 6 0
BBX 5 8 0 0
BITMAP
08
08
08
08
08
88
88
70
ENDCHAR
STARTCHAR LATIN
ENCODING 75
SWIDTH 545 0
DWIDTH 6 0
BBX 5 8 0 0
BITMAP
88
90
A0
C0
A0
90
88
88
ENDCHAR
STARTCHAR LATIN
ENCODING 76
SWIDTH 545 0
DWIDTH 6 0
BBX 5 8 0 0
BITMAP
80
80
80
80
80
80
80
F8
ENDCHAR
STARTCHAR LATIN
ENCODING 77
SWIDTH 545 0
DWIDTH 6 0
BBX 5 8 0 0
BITMAP
88
D8
A8
A8
88
88
88
88
ENDCHAR
STARTCHAR LATIN
ENCODING 78
SWIDTH 545 0
DWIDTH 6 0
BBX 5 8 0 0
BITMAP
88
C8
C8
A8
A8
98
98
88
ENDCHAR
STARTCHAR LATIN
ENCODING 79
SWIDTH 545 0
DWIDTH 6 0
BBX 5 8 0 0
BITMAP
70
88
88
88
88
88
88
70
ENDCHAR
STARTCHAR LATIN
ENCODING 80
SWIDTH 545 0
DWIDTH 6 0
BBX 5 8 0 0
BITMAP
F0
88
88
F0
80
80
80
80
ENDCHAR
STARTCHAR LATIN
ENCODING 81
SWIDTH 545 0
DWIDTH 6 0
BBX 5 9 0 -1
BITMAP
70
88
88
88
88
A8
90
68
08
ENDCHAR
STARTCHAR LATIN
ENCODING 82
SWIDTH 545 0
DWIDTH 6 0
BBX 5 8 0 0
BITMAP
F0
88
88
F0
90
88
88
88
ENDCHAR
STARTCHAR LATIN
ENCODING 83
SWIDTH 545 0
DWIDTH 6 0
BBX 5 8 0 0
BITMAP
70
88
80
70
08
08
88
70
ENDCHAR
STARTCHAR LATIN
ENCODING 84
SWIDTH 545 0
DWIDTH 6 0
BBX 5 8 0 0
BITMAP
F8
20
20
20
20
20
20
20
ENDCHAR
STARTCHAR LATIN
ENCODING 85
SWIDTH 545 0
DWIDTH 6 0
BBX 5 8 0 0
BITMAP
88
88
88
88
88
88
88
70
ENDCHAR
STARTCHAR LATIN
ENCODING 86
SWIDTH 545 0
DWIDTH 6 0
BBX 5 8 0 0
BITMAP
88
88
88
88
50
50
20
20
ENDCHAR
STARTCHAR LATIN
ENCODING 87
SWIDTH 545 0
DWIDTH 6 0
BBX 5 8 0 0
BITMAP
88
88
88
A8
A8
A8
50
50
ENDCHAR
STARTCHAR LATIN
ENCODING 88
SWIDTH 545 0
DWIDTH 6 0
BBX 5 8 0 0
BITMAP
88
88
50
20
50
88
88
88
ENDCHAR
STARTCHAR LATIN
ENCODING 89
SWIDTH 545 0
DWIDTH 6 0
BBX 5 8 0 0
BITMAP
88
88
50
20
20
20
20
20
ENDCHAR
STARTCHAR LATIN
ENCODING 90
SWIDTH 545 0
DWIDTH 6 0
BBX 5 8 0 0
BITMAP
F8
08
10
20
40
80
80
F8
ENDCHAR
STARTCHAR LEFT
ENCODING 91
SWIDTH 545 0
DWIDTH 6 0
BBX 3 9 2 -1
BITMAP
E0
80
80
80
80
80
80
80
E0
ENDCHAR
STARTCHAR REVERSE
ENCODING 92
SWIDTH 545 0
DWIDTH 6 0
BBX 5 10 1 -2
BITMAP
80
80
40
40
20
20
10
10
08
08
ENDCHAR
STARTCHAR RIGHT
ENCODING 93
SWIDTH 545 0
DWIDTH 6 0
BBX 3 9 0 -1
BITMAP
E0
20
20
20
20
20
20
20
E0
ENDCHAR
STARTCHAR CIRCUMFLEX
ENCODING 94
SWIDTH 545 0
DWIDTH 6 0
BBX 5 3 0 4
BITMAP
20
50
88
ENDCHAR
STARTCHAR LOW
ENCODING 95
SWIDTH 545 0
DWIDTH 6 0
BBX 6 1 0 -1
BITMAP
FC
ENDCHAR
STARTCHAR GRAVE
ENCODING 96
SWIDTH 545 0
DWIDTH 6 0
BBX 3 3 1 5
BITMAP
80
40
20
ENDCHAR
STARTCHAR LATIN
ENCODING 97
SWIDTH 545 0
DWIDTH 6 0
BBX 5 5 0 0
BITMAP
70
08
78
88
78
ENDCHAR
STARTCHAR LATIN
ENCODING 98
SWIDTH 545 0
DWIDTH 6 0
BBX 5 8 0 0
BITMAP
80
80
80
B0
C8
88
88
F0
ENDCHAR
STARTCHAR LATIN
ENCODING 99
SWIDTH 545 0
DWIDTH 6 0
BBX 5 5 0 0
BITMAP
78
80
80
80
78
ENDCHAR
STARTCHAR LATIN
ENCODING 100
SWIDTH 545 0
DWIDTH 6 0
BBX 5 8 0 0
BITMAP
08
08
08
78
88
88
98
68
ENDCHAR
STARTCHAR LATIN
ENCODING 101
SWIDTH 545 0
DWIDTH 6 0
BBX 5 5 0 0
BITMAP
70
88
F8
80
78
ENDCHAR
STARTCHAR LATIN
ENCODING 102
SWIDTH 545 0
DWIDTH 6 0
BBX 3 8 1 0
BITMAP
60
80
80
E0
80
80
80
80
ENDCHAR
STARTCHAR LATIN
ENCODING 103
SWIDTH 545 0
DWIDTH 6 0
BBX 5 7 0 -2
BITMAP
78
88
88
98
68
08
70
ENDCHAR
STARTCHAR LATIN
ENCODING 104
SWIDTH 545 0
DWIDTH 6 0
BBX 5 8 0 0
BITMAP
80
80
80
B0
C8
88
88
88
ENDCHAR
STARTCHAR LATIN
ENCODING 105
SWIDTH 545 0
DWIDTH 6 0
BBX 3 7 1 0
BITMAP
40
00
C0
40
40
40
60
ENDCHAR
STARTCHAR LATIN
ENCODING 106
SWIDTH 545 0
DWIDTH 6 0
BBX 3 9 0 -2
BITMAP
20
00
60
20
20
20
20
20
C0
ENDCHAR
STARTCHAR LATIN
ENCODING 107
SWIDTH 545 0
DWIDTH 6 0
BBX 5 8 0 0
BITMAP
80
80
80
90
A0
E0
90
88
ENDCHAR
STARTCHAR LATIN
ENCODING 108
SWIDTH 545 0
DWIDTH 6 0
BBX 4 8 1 0
BITMAP
C0
40
40
40
40
40
40
30
ENDCHAR
STARTCHAR LATIN
ENCODING 109
SWIDTH 545 0
DWIDTH 6 0
BBX 5 5 0 0
BITMAP
F0
A8
A8
A8
A8
ENDCHAR
STARTCHAR LATIN
ENCODING 110
SWIDTH 545 0
DWIDTH 6 0
BBX 5 5 0 0
BITMAP
F0
88
88
88
88
ENDCHAR
STARTCHAR LATIN
ENCODING 111
SWIDTH 545 0
DWIDTH 6 0
BBX 5 5 0 0
BITMAP
70
88
88
88
70
ENDCHAR
STARTCHAR LATIN
ENCODING 112
SWIDTH 545 0
DWIDTH 6 0
BBX 5 7 0 -2
BITMAP
B0
C8
88
88
F0
80
80
ENDCHAR
STARTCHAR LATIN
ENCODING 113
SWIDTH 545 0
DWIDTH 6 0
BBX 5 7 0 -2
BITMAP
78
88
88
98
68
08
08
ENDCHAR
STARTCHAR LATIN
ENCODING 114
SWIDTH 545 0
DWIDTH 6 0
BBX 5 5 0 0
BITMAP
B0
C8
80
80
80
ENDCHAR
STARTCHAR LATIN
ENCODING 115
SWIDTH 545 0
DWIDTH 6 0
BBX 5 5 0 0
BITMAP
70
80
70
08
F0
ENDCHAR
STARTCHAR LATIN
ENCODING 116
SWIDTH 545 0
DWIDTH 6 0
BBX 4 8 0 0
BITMAP
40
40
40
F0
40
40
40
30
ENDCHAR
STARTCHAR LATIN
ENCODING 117
SWIDTH 545 0
DWIDTH 6 0
BBX 5 5 0 0
BITMAP
88
88
88
98
68
ENDCHAR
STARTCHAR LATIN
ENCODING 118
SWIDTH 545 0
DWIDTH 6 0
BBX 5 5 0 0
BITMAP
88
88
50
50
20
ENDCHAR
STARTCHAR LATIN
ENCODING 119
SWIDTH 545 0
DWIDTH 6 0
BBX 5 5 0 0
BITMAP
88
A8
A8
A8
50
ENDCHAR
STARTCHAR LATIN
ENCODING 120
SWIDTH 545 0
DWIDTH 6 0
BBX 5 5 0 0
BITMAP
88
50
20
50
88
ENDCHAR
STARTCHAR LATIN
ENCODING 121
SWIDTH 545 0
DWIDTH 6 0
BBX 5 7 0 -2
BITMAP
88
88
88
98
68
08
70
ENDCHAR
STARTCHAR LATIN
ENCODING 122
SWIDTH 545 0
DWIDTH 6 0
BBX 5 5 0 0
BITMAP
F8
10
20
40
F8
ENDCHAR
STARTCHAR LEFT
ENCODING 123
SWIDTH 545 0
DWIDTH 6 0
BBX 5 11 0 -2
BITMAP
18
20
20
20
20
C0
20
20
20
20
18
ENDCHAR
STARTCHAR VERTICAL
ENCODING 124
SWIDTH 545 0
DWIDTH 6 0
BBX 1 9 2 -1
BITMAP
80
80
80
80
80
80
80
80
80
ENDCHAR
STARTCHAR RIGHT
ENCODING 125
SWIDTH 545 0
DWIDTH 6 0
BBX 5 11 0 -2
BITMAP
C0
20
20
20
20
18
20
20
20
20
C0
ENDCHAR
STARTCHAR TILDE
ENCODING 126
SWIDTH 545 0
DWIDTH 6 0
BBX 5 3 0 2
BITMAP
40
A8
10
ENDCHAR
STARTCHAR NO-BREAK
ENCODING 160
SWIDTH 545 0
DWIDTH 6 0
BBX 1 1 5 -2
BITMAP
00
ENDCHAR
STARTCHAR INVERTED
ENCODING 161
SWIDTH 545 0
DWIDTH 6 0
BBX 1 8 2 0
BITMAP
80
00
80
80
80
80
80
80
ENDCHAR
STARTCHAR CENT
ENCODING 162
SWIDTH 545 0
DWIDTH 6 0
BBX 5 7 0 -1
BITMAP
20
78
A0
A0
A0
78
20
ENDCHAR
STARTCHAR POUND
ENCODING 163
SWIDTH 545 0
DWIDTH 6 0
BBX 5 8 0 0
BITMAP
30
48
40
40
E0
40
48
B0
ENDCHAR
STARTCHAR CURRENCY
ENCODING 164
SWIDTH 545 0
DWIDTH 6 0
BBX 5 5 0 0
BITMAP
88
70
50
70
88
ENDCHAR
STARTCHAR YEN
ENCODING 165
SWIDTH 545 0
DWIDTH 6 0
BBX 5 9 0 -1
BITMAP
88
88
50
20
F8
20
F8
20
20
ENDCHAR
STARTCHAR BROKEN
ENCODING 166
SWIDTH 545 0
DWIDTH 6 0
BBX 1 9 2 -1
BITMAP
80
80
80
80
00
80
80
80
80
ENDCHAR
STARTCHAR SECTION
ENCODING 167
SWIDTH 545 0
DWIDTH 6 0
BBX 4 9 1 -1
BITMAP
70
80
80
E0
90
70
10
10
E0
ENDCHAR
STARTCHAR DIAERESIS
ENCODING 168
SWIDTH 545 0
DWIDTH 6 0
BBX 3 1 1 7
BITMAP
A0
ENDCHAR
STARTCHAR COPYRIGHT
ENCODING 169
SWIDTH 545 0
DWIDTH 6 0
BBX 5 7 0 0
BITMAP
70
88
A8
C8
A8
88
70
ENDCHAR
STARTCHAR FEMININE
ENCODING 170
SWIDTH 545 0
DWIDTH 6 0
BBX 4 6 1 1
BITMAP
70
90
B0
50
00
F0
ENDCHAR
STARTCHAR LEFT-POINTING
ENCODING 171
SWIDTH 545 0
DWIDTH 6 0
BBX 6 5 0 1
BITMAP
24
48
90
48
24
ENDCHAR
STARTCHAR NOT
ENCODING 172
SWIDTH 545 0
DWIDTH 6 0
BBX 4 2 1 2
BITMAP
F0
10
ENDCHAR
STARTCHAR SOFT
ENCODING 173
SWIDTH 545 0
DWIDTH 6 0
BBX 4 1 1 3
BITMAP
F0
ENDCHAR
STARTCHAR REGISTERED
ENCODING 174
SWIDTH 545 0
DWIDTH 6 0
BBX 5 7 0 0
BITMAP
70
88
E8
C8
C8
88
70
ENDCHAR
STARTCHAR MACRON
ENCODING 175
SWIDTH 545 0
DWIDTH 6 0
BBX 5 1 0 7
BITMAP
F8
ENDCHAR
STARTCHAR DEGREE
ENCODING 176
SWIDTH 545 0
DWIDTH 6 0
BBX 3 3 1 4
BITMAP
40
A0
40
ENDCHAR
STARTCHAR PLUS-MINUS
ENCODING 177
SWIDTH 545 0
DWIDTH 6 0
BBX 5 6 0 0
BITMAP
20
20
F8
20
20
F8
ENDCHAR
STARTCHAR SUPERSCRIPT
ENCODING 178
SWIDTH 545 0
DWIDTH 6 0
BBX 4 5 1 3
BITMAP
60
90
20
40
F0
ENDCHAR
STARTCHAR SUPERSCRIPT
ENCODING 179
SWIDTH 545 0
DWIDTH 6 0
BBX 4 5 1 3
BITMAP
E0
10
60
10
E0
ENDCHAR
STARTCHAR ACUTE
ENCODING 180
SWIDTH 545 0
DWIDTH 6 0
BBX 2 2 2 6
BITMAP
40
80
ENDCHAR
STARTCHAR MICRO
ENCODING 181
SWIDTH 545 0
DWIDTH 6 0
BBX 5 6 0 -1
BITMAP
88
88
88
C8
B0
80
ENDCHAR
STARTCHAR PILCROW
ENCODING 182
SWIDTH 545 0
DWIDTH 6 0
BBX 5 7 0 0
BITMAP
78
E8
E8
68
28
28
28
ENDCHAR
STARTCHAR MIDDLE
ENCODING 183
SWIDTH 545 0
DWIDTH 6 0
BBX 1 1 2 3
BITMAP
80
ENDCHAR
STARTCHAR CEDILLA
ENCODING 184
SWIDTH 545 0
DWIDTH 6 0
BBX 2 2 2 -2
BITMAP
40
80
ENDCHAR
STARTCHAR SUPERSCRIPT
ENCODING 185
SWIDTH 545 0
DWIDTH 6 0
BBX 3 5 1 3
BITMAP
40
C0
40
40
E0
ENDCHAR
STARTCHAR MASCULINE
ENCODING 186
SWIDTH 545 0
DWIDTH 6 0
BBX 4 6 1 1
BITMAP
60
90
90
60
00
F0
ENDCHAR
STARTCHAR RIGHT-POINTING
ENCODING 187
SWIDTH 545 0
DWIDTH 6 0
BBX 6 5 0 1
BITMAP
90
48
24
48
90
ENDCHAR
STARTCHAR VULGAR
ENCODING 188
SWIDTH 545 0
DWIDTH 6 0
BBX 6 9 0 -1
BITMAP
40
C0
40
40
E4
0C
14
3C
04
ENDCHAR
STARTCHAR VULGAR
ENCODING 189
SWIDTH 545 0
DWIDTH 6 0
BBX 6 9 0 -1
BITMAP
40
C0
40
40
E8
14
04
08
1C
ENDCHAR
STARTCHAR VULGAR
ENCODING 190
SWIDTH 545 0
DWIDTH 6 0
BBX 5 9 0 -1
BITMAP
C0
20
40
20
C8
18
28
78
08
ENDCHAR
STARTCHAR INVERTED
ENCODING 191
SWIDTH 545 0
DWIDTH 6 0
BBX 5 7 0 0
BITMAP
20
00
20
40
80
88
70
ENDCHAR
STARTCHAR LATIN
ENCODING 192
SWIDTH 545 0
DWIDTH 6 0
BBX 5 9 0 0
BITMAP
40
20
70
88
88
F8
88
88
88
ENDCHAR
STARTCHAR LATIN
ENCODING 193
SWIDTH 545 0
DWIDTH 6 0
BBX 5 9 0 0
BITMAP
10
20
70
88
88
F8
88
88
88
ENDCHAR
STARTCHAR LATIN
ENCODING 194
SWIDTH 545 0
DWIDTH 6 0
BBX 5 9 0 0
BITMAP
20
50
00
70
88
88
F8
88
88
ENDCHAR
STARTCHAR LATIN
ENCODING 195
SWIDTH 545 0
DWIDTH 6 0
BBX 5 9 0 0
BITMAP
68
B0
00
70
88
88
F8
88
88
ENDCHAR
STARTCHAR LATIN
ENCODING 196
SWIDTH 545 0
DWIDTH 6 0
BBX 5 9 0 0
BITMAP
50
00
70
88
88
F8
88
88
88
ENDCHAR
STARTCHAR LATIN
ENCODING 197
SWIDTH 545 0
DWIDTH 6 0
BBX 5 9 0 0
BITMAP
20
50
20
70
88
88
F8
88
88
ENDCHAR
STARTCHAR LATIN
ENCODING 198
SWIDTH 545 0
DWIDTH 6 0
BBX 5 7 0 0
BITMAP
78
A0
A0
F0
A0
A0
B8
ENDCHAR
STARTCHAR LATIN
ENCODING 199
SWIDTH 545 0
DWIDTH 6 0
BBX 5 9 0 -2
BITMAP
70
88
80
80
80
88
70
20
40
ENDCHAR
STARTCHAR LATIN
ENCODING 200
SWIDTH 545 0
DWIDTH 6 0
BBX 5 9 0 0
BITMAP
40
20
F8
80
80
F0
80
80
F8
ENDCHAR
STARTCHAR LATIN
ENCODING 201
SWIDTH 545 0
DWIDTH 6 0
BBX 5 9 0 0
BITMAP
10
20
F8
80
80
F0
80
80
F8
ENDCHAR
STARTCHAR LATIN
ENCODING 202
SWIDTH 545 0
DWIDTH 6 0
BBX 5 9 0 0
BITMAP
20
50
F8
80
80
F0
80
80
F8
ENDCHAR
STARTCHAR LATIN
ENCODING 203
SWIDTH 545 0
DWIDTH 6 0
BBX 5 9 0 0
BITMAP
50
00
F8
80
80
F0
80
80
F8
ENDCHAR
STARTCHAR LATIN
ENCODING 204
SWIDTH 545 0
DWIDTH 6 0
BBX 3 9 1 0
BITMAP
40
20
00
E0
40
40
40
40
E0
ENDCHAR
STARTCHAR LATIN
ENCODING 205
SWIDTH 545 0
DWIDTH 6 0
BBX 3 9 1 0
BITMAP
40
80
00
E0
40
40
40
40
E0
ENDCHAR
STARTCHAR LATIN
ENCODING 206
SWIDTH 545 0
DWIDTH 6 0
BBX 3 9 1 0
BITMAP
40
A0
00
E0
40
40
40
40
E0
ENDCHAR
STARTCHAR LATIN
ENCODING 207
SWIDTH 545 0
DWIDTH 6 0
BBX 3 9 1 0
BITMAP
A0
00
E0
40
40
40
40
40
E0
ENDCHAR
STARTCHAR LATIN
ENCODING 208
SWIDTH 545 0
DWIDTH 6 0
BBX 5 7 0 0
BITMAP
70
48
48
E8
48
48
70
ENDCHAR
STARTCHAR LATIN
ENCODING 209
SWIDTH 545 0
DWIDTH 6 0
BBX 5 9 0 0
BITMAP
68
B0
88
C8
A8
98
88
88
88
ENDCHAR
STARTCHAR LATIN
ENCODING 210
SWIDTH 545 0
DWIDTH 6 0
BBX 5 9 0 0
BITMAP
40
20
70
88
88
88
88
88
70
ENDCHAR
STARTCHAR LATIN
ENCODING 211
SWIDTH 545 0
DWIDTH 6 0
BBX 5 9 0 0
BITMAP
10
20
70
88
88
88
88
88
70
ENDCHAR
STARTCHAR LATIN
ENCODING 212
SWIDTH 545 0
DWIDTH 6 0
BBX 5 9 0 0
BITMAP
20
50
00
70
88
88
88
88
70
ENDCHAR
STARTCHAR LATIN
ENCODING 213
SWIDTH 545 0
DWIDTH 6 0
BBX 5 9 0 0
BITMAP
68
B0
70
88
88
88
88
88
70
ENDCHAR
STARTCHAR LATIN
ENCODING 214
SWIDTH 545 0
DWIDTH 6 0
BBX 5 9 0 0
BITMAP
50
00
70
88
88
88
88
88
70
ENDCHAR
STARTCHAR MULTIPLICATION
ENCODING 215
SWIDTH 545 0
DWIDTH 6 0
BBX 5 5 0 1
BITMAP
88
50
20
50
88
ENDCHAR
STARTCHAR LATIN
ENCODING 216
SWIDTH 545 0
DWIDTH 6 0
BBX 6 6 0 1
BITMAP
74
88
98
A8
C8
F0
ENDCHAR
STARTCHAR LATIN
ENCODING 217
SWIDTH 545 0
DWIDTH 6 0
BBX 5 9 0 0
BITMAP
40
20
88
88
88
88
88
88
70
ENDCHAR
STARTCHAR LATIN
ENCODING 218
SWIDTH 545 0
DWIDTH 6 0
BBX 5 9 0 0
BITMAP
10
20
88
88
88
88
88
88
70
ENDCHAR
STARTCHAR LATIN
ENCODING 219
SWIDTH 545 0
DWIDTH 6 0
BBX 5 9 0 0
BITMAP
10
20
88
88
88
88
88
88
70
ENDCHAR
STARTCHAR LATIN
ENCODING 220
SWIDTH 545 0
DWIDTH 6 0
BBX 5 9 0 0
BITMAP
50
00
88
88
88
88
88
88
70
ENDCHAR
STARTCHAR LATIN
ENCODING 221
SWIDTH 545 0
DWIDTH 6 0
BBX 5 9 0 0
BITMAP
10
20
88
88
88
50
20
20
20
ENDCHAR
STARTCHAR LATIN
ENCODING 222
SWIDTH 545 0
DWIDTH 6 0
BBX 5 7 0 0
BITMAP
80
F0
88
88
F0
80
80
ENDCHAR
STARTCHAR LATIN
ENCODING 223
SWIDTH 545 0
DWIDTH 6 0
BBX 5 9 0 -1
BITMAP
30
48
88
90
90
88
88
B0
80
ENDCHAR
STARTCHAR LATIN
ENCODING 224
SWIDTH 545 0
DWIDTH 6 0
BBX 5 8 0 0
BITMAP
20
10
00
70
08
78
88
78
ENDCHAR
STARTCHAR LATIN
ENCODING 225
SWIDTH 545 0
DWIDTH 6 0
BBX 5 8 0 0
BITMAP
10
20
00
70
08
78
88
78
ENDCHAR
STARTCHAR LATIN
ENCODING 226
SWIDTH 545 0
DWIDTH 6 0
BBX 5 8 0 0
BITMAP
20
50
00
70
08
78
88
78
ENDCHAR
STARTCHAR LATIN
ENCODING 227
SWIDTH 545 0
DWIDTH 6 0
BBX 5 8 0 0
BITMAP
68
B0
00
70
08
78
88
78
ENDCHAR
STARTCHAR LATIN
ENCODING 228
SWIDTH 545 0
DWIDTH 6 0
BBX 5 7 0 0
BITMAP
50
00
70
08
78
88
78
ENDCHAR
STARTCHAR LATIN
ENCODING 229
SWIDTH 545 0
DWIDTH 6 0
BBX 5 8 0 0
BITMAP
20
50
20
70
08
78
88
78
ENDCHAR
STARTCHAR LATIN
ENCODING 230
SWIDTH 545 0
DWIDTH 6 0
BBX 5 5 0 0
BITMAP
70
A8
B8
A0
78
ENDCHAR
STARTCHAR LATIN
ENCODING 231
SWIDTH 545 0
DWIDTH 6 0
BBX 5 7 0 -2
BITMAP
78
80
80
80
78
20
40
ENDCHAR
STARTCHAR LATIN
ENCODING 232
SWIDTH 545 0
DWIDTH 6 0
BBX 5 8 0 0
BITMAP
40
20
00
70
88
F8
80
78
ENDCHAR
STARTCHAR LATIN
ENCODING 233
SWIDTH 545 0
DWIDTH 6 0
BBX 5 8 0 0
BITMAP
10
20
00
70
88
F8
80
78
ENDCHAR
STARTCHAR LATIN
ENCODING 234
SWIDTH 545 0
DWIDTH 6 0
BBX 5 8 0 0
BITMAP
20
50
00
70
88
F8
80
78
ENDCHAR
STARTCHAR LATIN
ENCODING 235
SWIDTH 545 0
DWIDTH 6 0
BBX 5 7 0 0
BITMAP
50
00
70
88
F8
80
78
ENDCHAR
STARTCHAR LATIN
ENCODING 236
SWIDTH 545 0
DWIDTH 6 0
BBX 2 8 2 0
BITMAP
80
40
00
80
80
80
80
80
ENDCHAR
STARTCHAR LATIN
ENCODING 237
SWIDTH 545 0
DWIDTH 6 0
BBX 2 8 1 0
BITMAP
40
80
00
40
40
40
40
40
ENDCHAR
STARTCHAR LATIN
ENCODING 238
SWIDTH 545 0
DWIDTH 6 0
BBX 3 8 1 0
BITMAP
40
A0
00
40
40
40
40
40
ENDCHAR
STARTCHAR LATIN
ENCODING 239
SWIDTH 545 0
DWIDTH 6 0
BBX 3 7 1 0
BITMAP
A0
00
40
40
40
40
40
ENDCHAR
STARTCHAR LATIN
ENCODING 240
SWIDTH 545 0
DWIDTH 6 0
BBX 5 8 0 0
BITMAP
60
60
10
78
88
88
88
70
ENDCHAR
STARTCHAR LATIN
ENCODING 241
SWIDTH 545 0
DWIDTH 6 0
BBX 5 8 0 0
BITMAP
50
A0
00
F0
88
88
88
88
ENDCHAR
STARTCHAR LATIN
ENCODING 242
SWIDTH 545 0
DWIDTH 6 0
BBX 5 8 0 0
BITMAP
40
20
00
70
88
88
88
70
ENDCHAR
STARTCHAR LATIN
ENCODING 243
SWIDTH 545 0
DWIDTH 6 0
BBX 5 8 0 0
BITMAP
10
20
00
70
88
88
88
70
ENDCHAR
STARTCHAR LATIN
ENCODING 244
SWIDTH 545 0
DWIDTH 6 0
BBX 5 8 0 0
BITMAP
20
50
00
70
88
88
88
70
ENDCHAR
STARTCHAR LATIN
ENCODING 245
SWIDTH 545 0
DWIDTH 6 0
BBX 5 8 0 0
BITMAP
50
A0
00
70
88
88
88
70
ENDCHAR
STARTCHAR LATIN
ENCODING 246
SWIDTH 545 0
DWIDTH 6 0
BBX 5 7 0 0
BITMAP
50
00
70
88
88
88
70
ENDCHAR
STARTCHAR DIVISION
ENCODING 247
SWIDTH 545 0
DWIDTH 6 0
BBX 5 5 0 1
BITMAP
20
00
F8
00
20
ENDCHAR
STARTCHAR LATIN
ENCODING 248
SWIDTH 545 0
DWIDTH 6 0
BBX 5 5 0 0
BITMAP
70
98
A8
C8
70
ENDCHAR
STARTCHAR LATIN
ENCODING 249
SWIDTH 545 0
DWIDTH 6 0
BBX 5 8 0 0
BITMAP
40
20
00
88
88
88
98
68
ENDCHAR
STARTCHAR LATIN
ENCODING 250
SWIDTH 545 0
DWIDTH 6 0
BBX 5 8 0 0
BITMAP
10
20
00
88
88
88
98
68
ENDCHAR
STARTCHAR LATIN
ENCODING 251
SWIDTH 545 0
DWIDTH 6 0
BBX 5 8 0 0
BITMAP
20
50
00
88
88
88
98
68
ENDCHAR
STARTCHAR LATIN
ENCODING 252
SWIDTH 545 0
DWIDTH 6 0
BBX 5 7 0 0
BITMAP
50
00
88
88
88
98
68
ENDCHAR
STARTCHAR LATIN
ENCODING 253
SWIDTH 545 0
DWIDTH 6 0
BBX 5 10 0 -2
BITMAP
10
20
00
88
88
88
98
68
08
70
ENDCHAR
STARTCHAR LATIN
ENCODING 254
SWIDTH 545 0
DWIDTH 6 0
BBX 5 9 0 -2
BITMAP
80
80
F0
88
88
88
F0
80
80
ENDCHAR
STARTCHAR LATIN
ENCODING 255
SWIDTH 545 0
DWIDTH 6 0
BBX 5 9 0 -2
BITMAP
50
00
88
88
88
98
68
08
70
ENDCHAR
STARTCHAR LATIN
ENCODING 256
SWIDTH 545 0
DWIDTH 6 0
BBX 5 8 0 0
BITMAP
70
00
70
88
88
F8
88
88
ENDCHAR
STARTCHAR LATIN
ENCODING 257
SWIDTH 545 0
DWIDTH 6 0
BBX 5 7 0 0
BITMAP
70
00
70
08
78
88
78
ENDCHAR
STARTCHAR LATIN
ENCODING 258
SWIDTH 545 0
DWIDTH 6 0
BBX 5 8 0 0
BITMAP
88
70
70
88
88
F8
88
88
ENDCHAR
STARTCHAR LATIN
ENCODING 259
SWIDTH 545 0
DWIDTH 6 0
BBX 5 8 0 0
BITMAP
88
70
00
70
08
78
88
78
ENDCHAR
STARTCHAR LATIN
ENCODING 260
SWIDTH 545 0
DWIDTH 6 0
BBX 5 9 0 -2
BITMAP
20
50
88
88
F8
88
88
10
18
ENDCHAR
STARTCHAR LATIN
ENCODING 261
SWIDTH 545 0
DWIDTH 6 0
BBX 5 7 0 -2
BITMAP
70
08
78
88
78
10
18
ENDCHAR
STARTCHAR LATIN
ENCODING 262
SWIDTH 545 0
DWIDTH 6 0
BBX 5 8 0 0
BITMAP
10
20
70
88
80
80
88
70
ENDCHAR
STARTCHAR LATIN
ENCODING 263
SWIDTH 545 0
DWIDTH 6 0
BBX 5 8 0 0
BITMAP
10
20
00
70
88
80
88
70
ENDCHAR
STARTCHAR LATIN
ENCODING 264
SWIDTH 545 0
DWIDTH 6 0
BBX 5 8 0 0
BITMAP
20
50
70
88
80
80
88
70
ENDCHAR
STARTCHAR LATIN
ENCODING 265
SWIDTH 545 0
DWIDTH 6 0
BBX 5 8 0 0
BITMAP
20
50
00
70
88
80
88
70
ENDCHAR
STARTCHAR LATIN
ENCODING 266
SWIDTH 545 0
DWIDTH 6 0
BBX 5 8 0 0
BITMAP
20
00
70
88
80
80
88
70
ENDCHAR
STARTCHAR LATIN
ENCODING 267
SWIDTH 545 0
DWIDTH 6 0
BBX 5 7 0 0
BITMAP
20
00
70
88
80
88
70
ENDCHAR
STARTCHAR LATIN
ENCODING 268
SWIDTH 545 0
DWIDTH 6 0
BBX 5 8 0 0
BITMAP
50
20
70
88
80
80
88
70
ENDCHAR
STARTCHAR LATIN
ENCODING 269
SWIDTH 545 0
DWIDTH 6 0
BBX 5 8 0 0
BITMAP
50
20
00
70
88
80
88
70
ENDCHAR
STARTCHAR LATIN
ENCODING 270
SWIDTH 545 0
DWIDTH 6 0
BBX 5 8 0 0
BITMAP
50
20
F0
88
88
88
88
F0
ENDCHAR
STARTCHAR LATIN
ENCODING 271
SWIDTH 545 0
DWIDTH 6 0
BBX 5 8 0 0
BITMAP
50
20
08
68
98
88
98
68
ENDCHAR
STARTCHAR LATIN
ENCODING 272
SWIDTH 545 0
DWIDTH 6 0
BBX 6 7 0 0
BITMAP
78
44
44
E4
44
44
78
ENDCHAR
STARTCHAR LATIN
ENCODING 273
SWIDTH 545 0
DWIDTH 6 0
BBX 5 7 0 0
BITMAP
10
38
10
70
90
90
70
ENDCHAR
STARTCHAR LATIN
ENCODING 274
SWIDTH 545 0
DWIDTH 6 0
BBX 5 8 0 0
BITMAP
70
00
F8
80
F0
80
80
F8
ENDCHAR
STARTCHAR LATIN
ENCODING 275
SWIDTH 545 0
DWIDTH 6 0
BBX 5 7 0 0
BITMAP
70
00
70
88
F8
80
70
ENDCHAR
STARTCHAR LATIN
ENCODING 276
SWIDTH 545 0
DWIDTH 6 0
BBX 5 8 0 0
BITMAP
88
70
F8
80
F0
80
80
F8
ENDCHAR
STARTCHAR LATIN
ENCODING 277
SWIDTH 545 0
DWIDTH 6 0
BBX 5 8 0 0
BITMAP
88
70
00
70
88
F8
80
70
ENDCHAR
STARTCHAR LATIN
ENCODING 278
SWIDTH 545 0
DWIDTH 6 0
BBX 5 8 0 0
BITMAP
20
00
F8
80
F0
80
80
F8
ENDCHAR
STARTCHAR LATIN
ENCODING 279
SWIDTH 545 0
DWIDTH 6 0
BBX 5 7 0 0
BITMAP
20
00
70
88
F8
80
70
ENDCHAR
STARTCHAR LATIN
ENCODING 280
SWIDTH 545 0
DWIDTH 6 0
BBX 5 9 0 -2
BITMAP
F8
80
80
F0
80
80
F8
20
30
ENDCHAR
STARTCHAR LATIN
ENCODING 281
SWIDTH 545 0
DWIDTH 6 0
BBX 5 7 0 -2
BITMAP
70
88
F8
80
70
20
30
ENDCHAR
STARTCHAR LATIN
ENCODING 282
SWIDTH 545 0
DWIDTH 6 0
BBX 5 8 0 0
BITMAP
50
20
F8
80
F0
80
80
F8
ENDCHAR
STARTCHAR LATIN
ENCODING 283
SWIDTH 545 0
DWIDTH 6 0
BBX 5 8 0 0
BITMAP
50
20
00
70
88
F8
80
70
ENDCHAR
STARTCHAR LATIN
ENCODING 284
SWIDTH 545 0
DWIDTH 6 0
BBX 5 8 0 0
BITMAP
20
50
70
88
80
98
88
70
ENDCHAR
STARTCHAR LATIN
ENCODING 285
SWIDTH 545 0
DWIDTH 6 0
BBX 5 10 0 -2
BITMAP
20
50
00
68
90
60
80
70
88
70
ENDCHAR
STARTCHAR LATIN
ENCODING 286
SWIDTH 545 0
DWIDTH 6 0
BBX 5 8 0 0
BITMAP
88
70
70
88
80
98
88
70
ENDCHAR
STARTCHAR LATIN
ENCODING 287
SWIDTH 545 0
DWIDTH 6 0
BBX 5 10 0 -2
BITMAP
88
70
00
68
90
60
80
70
88
70
ENDCHAR
STARTCHAR LATIN
ENCODING 288
SWIDTH 545 0
DWIDTH 6 0
BBX 5 8 0 0
BITMAP
20
00
70
88
80
98
88
70
ENDCHAR
STARTCHAR LATIN
ENCODING 289
SWIDTH 545 0
DWIDTH 6 0
BBX 5 9 0 -2
BITMAP
20
00
68
90
60
80
70
88
70
ENDCHAR
STARTCHAR LATIN
ENCODING 290
SWIDTH 545 0
DWIDTH 6 0
BBX 5 8 0 -2
BITMAP
70
88
80
98
88
70
20
40
ENDCHAR
STARTCHAR LATIN
ENCODING 291
SWIDTH 545 0
DWIDTH 6 0
BBX 5 10 0 -2
BITMAP
40
60
00
68
90
60
80
70
88
70
ENDCHAR
STARTCHAR LATIN
ENCODING 292
SWIDTH 545 0
DWIDTH 6 0
BBX 5 8 0 0
BITMAP
20
50
00
88
88
F8
88
88
ENDCHAR
STARTCHAR LATIN
ENCODING 293
SWIDTH 545 0
DWIDTH 6 0
BBX 5 8 0 0
BITMAP
10
28
80
80
F0
88
88
88
ENDCHAR
STARTCHAR LATIN
ENCODING 294
SWIDTH 545 0
DWIDTH 6 0
BBX 6 7 0 0
BITMAP
48
FC
48
78
48
48
48
ENDCHAR
STARTCHAR LATIN
ENCODING 295
SWIDTH 545 0
DWIDTH 6 0
BBX 6 7 0 0
BITMAP
40
E0
58
64
44
44
44
ENDCHAR
STARTCHAR LATIN
ENCODING 296
SWIDTH 545 0
DWIDTH 6 0
BBX 4 8 1 0
BITMAP
50
A0
E0
40
40
40
40
E0
ENDCHAR
STARTCHAR LATIN
ENCODING 297
SWIDTH 545 0
DWIDTH 6 0
BBX 4 8 1 0
BITMAP
50
A0
00
60
20
20
20
70
ENDCHAR
STARTCHAR LATIN
ENCODING 298
SWIDTH 545 0
DWIDTH 6 0
BBX 3 8 1 0
BITMAP
E0
00
E0
40
40
40
40
E0
ENDCHAR
STARTCHAR LATIN
ENCODING 299
SWIDTH 545 0
DWIDTH 6 0
BBX 3 7 1 0
BITMAP
E0
00
C0
40
40
40
E0
ENDCHAR
STARTCHAR LATIN
ENCODING 300
SWIDTH 545 0
DWIDTH 6 0
BBX 5 8 0 0
BITMAP
88
70
70
20
20
20
20
70
ENDCHAR
STARTCHAR LATIN
ENCODING 301
SWIDTH 545 0
DWIDTH 6 0
BBX 5 8 0 0
BITMAP
88
70
00
60
20
20
20
70
ENDCHAR
STARTCHAR LATIN
ENCODING 302
SWIDTH 545 0
DWIDTH 6 0
BBX 3 9 1 -2
BITMAP
E0
40
40
40
40
40
E0
40
60
ENDCHAR
STARTCHAR LATIN
ENCODING 303
SWIDTH 545 0
DWIDTH 6 0
BBX 3 9 1 -2
BITMAP
40
00
C0
40
40
40
E0
40
60
ENDCHAR
STARTCHAR LATIN
ENCODING 304
SWIDTH 545 0
DWIDTH 6 0
BBX 3 8 1 0
BITMAP
40
00
E0
40
40
40
40
E0
ENDCHAR
STARTCHAR LATIN
ENCODING 305
SWIDTH 545 0
DWIDTH 6 0
BBX 3 5 1 0
BITMAP
C0
40
40
40
E0
ENDCHAR
STARTCHAR LATIN
ENCODING 306
SWIDTH 545 0
DWIDTH 6 0
BBX 5 7 0 0
BITMAP
B8
88
88
88
88
A8
90
ENDCHAR
STARTCHAR LATIN
ENCODING 307
SWIDTH 545 0
DWIDTH 6 0
BBX 4 9 1 -2
BITMAP
90
00
B0
90
90
90
90
10
60
ENDCHAR
STARTCHAR LATIN
ENCODING 308
SWIDTH 545 0
DWIDTH 6 0
BBX 5 8 0 0
BITMAP
10
28
38
10
10
10
90
60
ENDCHAR
STARTCHAR LATIN
ENCODING 309
SWIDTH 545 0
DWIDTH 6 0
BBX 5 10 0 -2
BITMAP
10
28
00
30
10
10
10
90
90
60
ENDCHAR
STARTCHAR LATIN
ENCODING 310
SWIDTH 545 0
DWIDTH 6 0
BBX 5 9 0 -2
BITMAP
88
90
A0
C0
A0
90
88
20
60
ENDCHAR
STARTCHAR LATIN
ENCODING 311
SWIDTH 545 0
DWIDTH 6 0
BBX 5 9 0 -2
BITMAP
80
80
88
90
E0
90
88
20
60
ENDCHAR
STARTCHAR LATIN
ENCODING 312
SWIDTH 545 0
DWIDTH 6 0
BBX 5 5 0 0
BITMAP
88
90
E0
90
88
ENDCHAR
STARTCHAR LATIN
ENCODING 313
SWIDTH 545 0
DWIDTH 6 0
BBX 5 8 0 0
BITMAP
10
A0
80
80
80
80
80
F8
ENDCHAR
STARTCHAR LATIN
ENCODING 314
SWIDTH 545 0
DWIDTH 6 0
BBX 3 8 1 0
BITMAP
20
40
C0
40
40
40
40
E0
ENDCHAR
STARTCHAR LATIN
ENCODING 315
SWIDTH 545 0
DWIDTH 6 0
BBX 5 9 0 -2
BITMAP
80
80
80
80
80
80
F8
20
60
ENDCHAR
STARTCHAR LATIN
ENCODING 316
SWIDTH 545 0
DWIDTH 6 0
BBX 3 9 1 -2
BITMAP
C0
40
40
40
40
40
E0
40
C0
ENDCHAR
STARTCHAR LATIN
ENCODING 317
SWIDTH 545 0
DWIDTH 6 0
BBX 5 8 0 0
BITMAP
28
90
80
80
80
80
80
F8
ENDCHAR
STARTCHAR LATIN
ENCODING 318
SWIDTH 545 0
DWIDTH 6 0
BBX 3 8 1 0
BITMAP
A0
40
C0
40
40
40
40
E0
ENDCHAR
STARTCHAR LATIN
ENCODING 319
SWIDTH 545 0
DWIDTH 6 0
BBX 5 7 0 0
BITMAP
80
80
A0
80
80
80
F8
ENDCHAR
STARTCHAR LATIN
ENCODING 320
SWIDTH 545 0
DWIDTH 6 0
BBX 4 7 1 0
BITMAP
C0
40
50
40
40
40
E0
ENDCHAR
STARTCHAR LATIN
ENCODING 321
SWIDTH 545 0
DWIDTH 6 0
BBX 6 7 0 0
BITMAP
40
40
60
C0
40
40
7C
ENDCHAR
STARTCHAR LATIN
ENCODING 322
SWIDTH 545 0
DWIDTH 6 0
BBX 3 7 1 0
BITMAP
C0
40
60
C0
40
40
E0
ENDCHAR
STARTCHAR LATIN
ENCODING 323
SWIDTH 545 0
DWIDTH 6 0
BBX 5 8 0 0
BITMAP
10
20
88
C8
A8
98
88
88
ENDCHAR
STARTCHAR LATIN
ENCODING 324
SWIDTH 545 0
DWIDTH 6 0
BBX 5 8 0 0
BITMAP
10
20
00
B0
C8
88
88
88
ENDCHAR
STARTCHAR LATIN
ENCODING 325
SWIDTH 545 0
DWIDTH 6 0
BBX 5 9 0 -2
BITMAP
88
88
C8
A8
98
88
88
20
40
ENDCHAR
STARTCHAR LATIN
ENCODING 326
SWIDTH 545 0
DWIDTH 6 0
BBX 5 7 0 -2
BITMAP
B0
C8
88
88
88
20
40
ENDCHAR
STARTCHAR LATIN
ENCODING 327
SWIDTH 545 0
DWIDTH 6 0
BBX 5 8 0 0
BITMAP
50
20
88
C8
A8
98
88
88
ENDCHAR
STARTCHAR LATIN
ENCODING 328
SWIDTH 545 0
DWIDTH 6 0
BBX 5 8 0 0
BITMAP
50
20
00
B0
C8
88
88
88
ENDCHAR
STARTCHAR LATIN
ENCODING 329
SWIDTH 545 0
DWIDTH 6 0
BBX 6 8 0 0
BITMAP
C0
40
80
28
34
24
24
24
ENDCHAR
STARTCHAR LATIN
ENCODING 330
SWIDTH 545 0
DWIDTH 6 0
BBX 5 9 0 -2
BITMAP
88
88
C8
A8
98
88
88
08
30
ENDCHAR
STARTCHAR LATIN
ENCODING 331
SWIDTH 545 0
DWIDTH 6 0
BBX 5 7 0 -2
BITMAP
B0
C8
88
88
88
08
30
ENDCHAR
STARTCHAR LATIN
ENCODING 332
SWIDTH 545 0
DWIDTH 6 0
BBX 5 8 0 0
BITMAP
70
00
70
88
88
88
88
70
ENDCHAR
STARTCHAR LATIN
ENCODING 333
SWIDTH 545 0
DWIDTH 6 0
BBX 5 7 0 0
BITMAP
70
00
70
88
88
88
70
ENDCHAR
STARTCHAR LATIN
ENCODING 334
SWIDTH 545 0
DWIDTH 6 0
BBX 5 8 0 0
BITMAP
88
70
70
88
88
88
88
70
ENDCHAR
STARTCHAR LATIN
ENCODING 335
SWIDTH 545 0
DWIDTH 6 0
BBX 5 8 0 0
BITMAP
88
70
00
70
88
88
88
70
ENDCHAR
STARTCHAR LATIN
ENCODING 336
SWIDTH 545 0
DWIDTH 6 0
BBX 5 8 0 0
BITMAP
48
90
70
88
88
88
88
70
ENDCHAR
STARTCHAR LATIN
ENCODING 337
SWIDTH 545 0
DWIDTH 6 0
BBX 5 8 0 0
BITMAP
48
90
00
70
88
88
88
70
ENDCHAR
STARTCHAR LATIN
ENCODING 338
SWIDTH 545 0
DWIDTH 6 0
BBX 5 7 0 0
BITMAP
78
A0
A0
B0
A0
A0
78
ENDCHAR
STARTCHAR LATIN
ENCODING 339
SWIDTH 545 0
DWIDTH 6 0
BBX 5 5 0 0
BITMAP
70
A8
B0
A0
78
ENDCHAR
STARTCHAR LATIN
ENCODING 340
SWIDTH 545 0
DWIDTH 6 0
BBX 5 8 0 0
BITMAP
10
20
F0
88
F0
A0
90
88
ENDCHAR
STARTCHAR LATIN
ENCODING 341
SWIDTH 545 0
DWIDTH 6 0
BBX 5 8 0 0
BITMAP
10
20
00
B0
C8
80
80
80
ENDCHAR
STARTCHAR LATIN
ENCODING 342
SWIDTH 545 0
DWIDTH 6 0
BBX 6 9 0 -2
BITMAP
78
44
44
78
50
48
44
20
C0
ENDCHAR
STARTCHAR LATIN
ENCODING 343
SWIDTH 545 0
DWIDTH 6 0
BBX 6 7 0 -2
BITMAP
58
64
40
40
40
20
C0
ENDCHAR
STARTCHAR LATIN
ENCODING 344
SWIDTH 545 0
DWIDTH 6 0
BBX 5 8 0 0
BITMAP
50
20
F0
88
F0
A0
90
88
ENDCHAR
STARTCHAR LATIN
ENCODING 345
SWIDTH 545 0
DWIDTH 6 0
BBX 5 8 0 0
BITMAP
50
20
00
B0
C8
80
80
80
ENDCHAR
STARTCHAR LATIN
ENCODING 346
SWIDTH 545 0
DWIDTH 6 0
BBX 5 8 0 0
BITMAP
10
20
78
80
70
08
88
70
ENDCHAR
STARTCHAR LATIN
ENCODING 347
SWIDTH 545 0
DWIDTH 6 0
BBX 5 8 0 0
BITMAP
10
20
00
70
80
70
08
F0
ENDCHAR
STARTCHAR LATIN
ENCODING 348
SWIDTH 545 0
DWIDTH 6 0
BBX 5 8 0 0
BITMAP
20
50
78
80
70
08
88
70
ENDCHAR
STARTCHAR LATIN
ENCODING 349
SWIDTH 545 0
DWIDTH 6 0
BBX 5 8 0 0
BITMAP
20
50
00
70
80
70
08
F0
ENDCHAR
STARTCHAR LATIN
ENCODING 350
SWIDTH 545 0
DWIDTH 6 0
BBX 5 9 0 -2
BITMAP
70
88
80
70
08
88
70
20
40
ENDCHAR
STARTCHAR LATIN
ENCODING 351
SWIDTH 545 0
DWIDTH 6 0
BBX 5 7 0 -2
BITMAP
70
80
70
08
F0
20
40
ENDCHAR
STARTCHAR LATIN
ENCODING 352
SWIDTH 545 0
DWIDTH 6 0
BBX 5 8 0 0
BITMAP
50
20
70
80
70
08
88
70
ENDCHAR
STARTCHAR LATIN
ENCODING 353
SWIDTH 545 0
DWIDTH 6 0
BBX 5 8 0 0
BITMAP
50
20
00
70
80
70
08
F0
ENDCHAR
STARTCHAR LATIN
ENCODING 354
SWIDTH 545 0
DWIDTH 6 0
BBX 5 9 0 -2
BITMAP
F8
20
20
20
20
20
20
10
60
ENDCHAR
STARTCHAR LATIN
ENCODING 355
SWIDTH 545 0
DWIDTH 6 0
BBX 5 9 0 -2
BITMAP
40
40
F0
40
40
48
30
10
60
ENDCHAR
STARTCHAR LATIN
ENCODING 356
SWIDTH 545 0
DWIDTH 6 0
BBX 5 8 0 0
BITMAP
50
20
F8
20
20
20
20
20
ENDCHAR
STARTCHAR LATIN
ENCODING 357
SWIDTH 545 0
DWIDTH 6 0
BBX 5 8 0 0
BITMAP
A0
40
40
F0
40
40
48
30
ENDCHAR
STARTCHAR LATIN
ENCODING 358
SWIDTH 545 0
DWIDTH 6 0
BBX 5 7 0 0
BITMAP
F8
20
20
70
20
20
20
ENDCHAR
STARTCHAR LATIN
ENCODING 359
SWIDTH 545 0
DWIDTH 6 0
BBX 5 7 0 0
BITMAP
40
F0
40
F0
40
48
30
ENDCHAR
STARTCHAR LATIN
ENCODING 360
SWIDTH 545 0
DWIDTH 6 0
BBX 5 8 0 0
BITMAP
28
50
00
88
88
88
88
70
ENDCHAR
STARTCHAR LATIN
ENCODING 361
SWIDTH 545 0
DWIDTH 6 0
BBX 5 8 0 0
BITMAP
28
50
00
88
88
88
98
68
ENDCHAR
STARTCHAR LATIN
ENCODING 362
SWIDTH 545 0
DWIDTH 6 0
BBX 5 8 0 0
BITMAP
70
00
88
88
88
88
88
70
ENDCHAR
STARTCHAR LATIN
ENCODING 363
SWIDTH 545 0
DWIDTH 6 0
BBX 5 7 0 0
BITMAP
70
00
88
88
88
98
68
ENDCHAR
STARTCHAR LATIN
ENCODING 364
SWIDTH 545 0
DWIDTH 6 0
BBX 5 8 0 0
BITMAP
88
70
00
88
88
88
88
70
ENDCHAR
STARTCHAR LATIN
ENCODING 365
SWIDTH 545 0
DWIDTH 6 0
BBX 5 8 0 0
BITMAP
88
70
00
88
88
88
98
68
ENDCHAR
STARTCHAR LATIN
ENCODING 366
SWIDTH 545 0
DWIDTH 6 0
BBX 5 8 0 0
BITMAP
20
50
A8
88
88
88
88
70
ENDCHAR
STARTCHAR LATIN
ENCODING 367
SWIDTH 545 0
DWIDTH 6 0
BBX 5 8 0 0
BITMAP
20
50
20
88
88
88
98
68
ENDCHAR
STARTCHAR LATIN
ENCODING 368
SWIDTH 545 0
DWIDTH 6 0
BBX 5 8 0 0
BITMAP
48
90
00
88
88
88
88
70
ENDCHAR
STARTCHAR LATIN
ENCODING 369
SWIDTH 545 0
DWIDTH 6 0
BBX 5 8 0 0
BITMAP
48
90
00
88
88
88
98
68
ENDCHAR
STARTCHAR LATIN
ENCODING 370
SWIDTH 545 0
DWIDTH 6 0
BBX 5 9 0 -2
BITMAP
88
88
88
88
88
88
70
20
30
ENDCHAR
STARTCHAR LATIN
ENCODING 371
SWIDTH 545 0
DWIDTH 6 0
BBX 5 7 0 -2
BITMAP
88
88
88
88
70
10
18
ENDCHAR
STARTCHAR LATIN
ENCODING 372
SWIDTH 545 0
DWIDTH 6 0
BBX 5 8 0 0
BITMAP
20
50
00
88
A8
A8
D8
88
ENDCHAR
STARTCHAR LATIN
ENCODING 373
SWIDTH 545 0
DWIDTH 6 0
BBX 5 8 0 0
BITMAP
20
50
00
88
88
A8
A8
50
ENDCHAR
STARTCHAR LATIN
ENCODING 374
SWIDTH 545 0
DWIDTH 6 0
BBX 5 8 0 0
BITMAP
20
50
00
88
50
20
20
20
ENDCHAR
STARTCHAR LATIN
ENCODING 375
SWIDTH 545 0
DWIDTH 6 0
BBX 5 10 0 -2
BITMAP
20
50
00
88
88
98
68
08
88
70
ENDCHAR
STARTCHAR LATIN
ENCODING 376
SWIDTH 545 0
DWIDTH 6 0
BBX 5 8 0 0
BITMAP
50
00
88
50
20
20
20
20
ENDCHAR
STARTCHAR LATIN
ENCODING 377
SWIDTH 545 0
DWIDTH 6 0
BBX 5 8 0 0
BITMAP
10
20
F8
10
20
40
80
F8
ENDCHAR
STARTCHAR LATIN
ENCODING 378
SWIDTH 545 0
DWIDTH 6 0
BBX 5 8 0 0
BITMAP
10
20
00
F8
10
20
40
F8
ENDCHAR
STARTCHAR LATIN
ENCODING 379
SWIDTH 545 0
DWIDTH 6 0
BBX 5 8 0 0
BITMAP
20
00
F8
10
20
40
80
F8
ENDCHAR
STARTCHAR LATIN
ENCODING 380
SWIDTH 545 0
DWIDTH 6 0
BBX 5 7 0 0
BITMAP
20
00
F8
10
20
40
F8
ENDCHAR
STARTCHAR LATIN
ENCODING 381
SWIDTH 545 0
DWIDTH 6 0
BBX 5 8 0 0
BITMAP
50
20
F8
10
20
40
80
F8
ENDCHAR
STARTCHAR LATIN
ENCODING 382
SWIDTH 545 0
DWIDTH 6 0
BBX 5 8 0 0
BITMAP
50
20
00
F8
10
20
40
F8
ENDCHAR
STARTCHAR LATIN
ENCODING 383
SWIDTH 545 0
DWIDTH 6 0
BBX 5 7 0 0
BITMAP
30
48
40
C0
40
40
40
ENDCHAR
STARTCHAR LATIN
ENCODING 399
SWIDTH 545 0
DWIDTH 6 0
BBX 5 7 0 0
BITMAP
70
88
08
F8
88
88
70
ENDCHAR
STARTCHAR LATIN
ENCODING 402
SWIDTH 545 0
DWIDTH 6 0
BBX 5 8 0 -1
BITMAP
10
28
20
70
20
20
A0
40
ENDCHAR
STARTCHAR LATIN
ENCODING 416
SWIDTH 545 0
DWIDTH 6 0
BBX 6 7 0 0
BITMAP
64
94
98
90
90
90
60
ENDCHAR
STARTCHAR LATIN
ENCODING 417
SWIDTH 545 0
DWIDTH 6 0
BBX 6 5 0 0
BITMAP
64
98
90
90
60
ENDCHAR
STARTCHAR LATIN
ENCODING 431
SWIDTH 545 0
DWIDTH 6 0
BBX 6 7 0 0
BITMAP
94
94
98
90
90
90
60
ENDCHAR
STARTCHAR LATIN
ENCODING 432
SWIDTH 545 0
DWIDTH 6 0
BBX 6 5 0 0
BITMAP
94
98
90
B0
50
ENDCHAR
STARTCHAR LATIN
ENCODING 437
SWIDTH 545 0
DWIDTH 6 0
BBX 5 7 0 0
BITMAP
F8
08
10
F8
40
80
F8
ENDCHAR
STARTCHAR LATIN
ENCODING 438
SWIDTH 545 0
DWIDTH 6 0
BBX 5 5 0 0
BITMAP
F8
10
F8
40
F8
ENDCHAR
STARTCHAR LATIN
ENCODING 465
SWIDTH 545 0
DWIDTH 6 0
BBX 5 8 0 0
BITMAP
50
20
70
88
88
88
88
70
ENDCHAR
STARTCHAR LATIN
ENCODING 466
SWIDTH 545 0
DWIDTH 6 0
BBX 5 8 0 0
BITMAP
50
20
00
70
88
88
88
70
ENDCHAR
STARTCHAR LATIN
ENCODING 486
SWIDTH 545 0
DWIDTH 6 0
BBX 5 8 0 0
BITMAP
50
20
70
88
80
98
88
70
ENDCHAR
STARTCHAR LATIN
ENCODING 487
SWIDTH 545 0
DWIDTH 6 0
BBX 5 10 0 -2
BITMAP
50
20
00
68
90
60
80
70
88
70
ENDCHAR
STARTCHAR LATIN
ENCODING 506
SWIDTH 545 0
DWIDTH 6 0
BBX 5 8 0 0
BITMAP
10
20
20
50
70
88
F8
88
ENDCHAR
STARTCHAR LATIN
ENCODING 507
SWIDTH 545 0
DWIDTH 6 0
BBX 5 8 0 0
BITMAP
10
20
20
50
20
78
88
78
ENDCHAR
STARTCHAR LATIN
ENCODING 508
SWIDTH 545 0
DWIDTH 6 0
BBX 6 8 0 0
BITMAP
08
10
7C
90
9C
F0
90
9C
ENDCHAR
STARTCHAR LATIN
ENCODING 509
SWIDTH 545 0
DWIDTH 6 0
BBX 6 8 0 0
BITMAP
08
10
00
78
14
7C
90
7C
ENDCHAR
STARTCHAR LATIN
ENCODING 510
SWIDTH 545 0
DWIDTH 6 0
BBX 5 8 0 0
BITMAP
10
20
70
98
A8
A8
C8
70
ENDCHAR
STARTCHAR LATIN
ENCODING 511
SWIDTH 545 0
DWIDTH 6 0
BBX 5 8 0 0
BITMAP
10
20
00
78
98
A8
C8
F0
ENDCHAR
STARTCHAR LATIN
ENCODING 536
SWIDTH 545 0
DWIDTH 6 0
BBX 5 9 0 -2
BITMAP
70
88
80
70
08
88
70
20
40
ENDCHAR
STARTCHAR LATIN
ENCODING 537
SWIDTH 545 0
DWIDTH 6 0
BBX 5 7 0 -2
BITMAP
70
80
70
08
F0
20
40
ENDCHAR
STARTCHAR LATIN
ENCODING 538
SWIDTH 545 0
DWIDTH 6 0
BBX 5 9 0 -2
BITMAP
F8
20
20
20
20
20
20
10
20
ENDCHAR
STARTCHAR LATIN
ENCODING 539
SWIDTH 545 0
DWIDTH 6 0
BBX 5 9 0 -2
BITMAP
40
40
F0
40
40
48
30
10
20
ENDCHAR
STARTCHAR LATIN
ENCODING 601
SWIDTH 545 0
DWIDTH 6 0
BBX 5 5 0 0
BITMAP
70
08
F8
88
70
ENDCHAR
STARTCHAR MODIFIER
ENCODING 700
SWIDTH 545 0
DWIDTH 6 0
BBX 2 3 2 4
BITMAP
C0
40
80
ENDCHAR
STARTCHAR MODIFIER
ENCODING 701
SWIDTH 545 0
DWIDTH 6 0
BBX 2 3 2 4
BITMAP
C0
80
40
ENDCHAR
STARTCHAR MODIFIER
ENCODING 710
SWIDTH 545 0
DWIDTH 6 0
BBX 3 2 1 6
BITMAP
40
A0
ENDCHAR
STARTCHAR CARON
ENCODING 711
SWIDTH 545 0
DWIDTH 6 0
BBX 3 2 1 6
BITMAP
A0
40
ENDCHAR
STARTCHAR MODIFIER
ENCODING 713
SWIDTH 545 0
DWIDTH 6 0
BBX 3 1 1 7
BITMAP
E0
ENDCHAR
STARTCHAR MODIFIER
ENCODING 726
SWIDTH 545 0
DWIDTH 6 0
BBX 3 3 1 5
BITMAP
40
E0
40
ENDCHAR
STARTCHAR BREVE
ENCODING 728
SWIDTH 545 0
DWIDTH 6 0
BBX 5 2 0 6
BITMAP
88
70
ENDCHAR
STARTCHAR DOT
ENCODING 729
SWIDTH 545 0
DWIDTH 6 0
BBX 1 1 2 7
BITMAP
80
ENDCHAR
STARTCHAR RING
ENCODING 730
SWIDTH 545 0
DWIDTH 6 0
BBX 3 3 1 5
BITMAP
40
A0
40
ENDCHAR
STARTCHAR OGONEK
ENCODING 731
SWIDTH 545 0
DWIDTH 6 0
BBX 2 2 2 -2
BITMAP
80
C0
ENDCHAR
STARTCHAR SMALL
ENCODING 732
SWIDTH 545 0
DWIDTH 6 0
BBX 4 2 1 6
BITMAP
50
A0
ENDCHAR
STARTCHAR DOUBLE
ENCODING 733
SWIDTH 545 0
DWIDTH 6 0
BBX 5 2 0 6
BITMAP
48
90
ENDCHAR
STARTCHAR COMBINING
ENCODING 768
SWIDTH 545 0
DWIDTH 6 0
BBX 2 2 2 6
BITMAP
80
40
ENDCHAR
STARTCHAR COMBINING
ENCODING 769
SWIDTH 545 0
DWIDTH 6 0
BBX 2 2 2 6
BITMAP
40
80
ENDCHAR
STARTCHAR COMBINING
ENCODING 770
SWIDTH 545 0
DWIDTH 6 0
BBX 3 2 1 6
BITMAP
40
A0
ENDCHAR
STARTCHAR COMBINING
ENCODING 771
SWIDTH 545 0
DWIDTH 6 0
BBX 4 2 1 6
BITMAP
50
A0
ENDCHAR
STARTCHAR COMBINING
ENCODING 772
SWIDTH 545 0
DWIDTH 6 0
BBX 3 1 1 7
BITMAP
E0
ENDCHAR
STARTCHAR COMBINING
ENCODING 773
SWIDTH 545 0
DWIDTH 6 0
BBX 5 1 0 7
BITMAP
F8
ENDCHAR
STARTCHAR COMBINING
ENCODING 774
SWIDTH 545 0
DWIDTH 6 0
BBX 5 2 0 6
BITMAP
88
70
ENDCHAR
STARTCHAR COMBINING
ENCODING 775
SWIDTH 545 0
DWIDTH 6 0
BBX 1 1 2 7
BITMAP
80
ENDCHAR
STARTCHAR COMBINING
ENCODING 776
SWIDTH 545 0
DWIDTH 6 0
BBX 3 1 1 7
BITMAP
A0
ENDCHAR
STARTCHAR COMBINING
ENCODING 777
SWIDTH 545 0
DWIDTH 6 0
BBX 3 3 1 5
BITMAP
C0
20
40
ENDCHAR
STARTCHAR COMBINING
ENCODING 778
SWIDTH 545 0
DWIDTH 6 0
BBX 3 3 1 5
BITMAP
40
A0
40
ENDCHAR
STARTCHAR COMBINING
ENCODING 779
SWIDTH 545 0
DWIDTH 6 0
BBX 5 2 0 6
BITMAP
48
90
ENDCHAR
STARTCHAR COMBINING
ENCODING 780
SWIDTH 545 0
DWIDTH 6 0
BBX 3 2 1 6
BITMAP
A0
40
ENDCHAR
STARTCHAR COMBINING
ENCODING 781
SWIDTH 545 0
DWIDTH 6 0
BBX 1 2 2 6
BITMAP
80
80
ENDCHAR
STARTCHAR COMBINING
ENCODING 782
SWIDTH 545 0
DWIDTH 6 0
BBX 3 2 1 6
BITMAP
A0
A0
ENDCHAR
STARTCHAR COMBINING
ENCODING 783
SWIDTH 545 0
DWIDTH 6 0
BBX 5 2 0 6
BITMAP
90
48
ENDCHAR
STARTCHAR COMBINING
ENCODING 784
SWIDTH 545 0
DWIDTH 6 0
BBX 5 2 0 6
BITMAP
A8
70
ENDCHAR
STARTCHAR COMBINING
ENCODING 785
SWIDTH 545 0
DWIDTH 6 0
BBX 5 2 0 6
BITMAP
70
88
ENDCHAR
STARTCHAR COMBINING
ENCODING 803
SWIDTH 545 0
DWIDTH 6 0
BBX 1 1 2 -2
BITMAP
80
ENDCHAR
STARTCHAR COMBINING
ENCODING 804
SWIDTH 545 0
DWIDTH 6 0
BBX 3 1 1 -2
BITMAP
A0
ENDCHAR
STARTCHAR COMBINING
ENCODING 824
SWIDTH 545 0
DWIDTH 6 0
BBX 3 6 1 0
BITMAP
20
20
40
40
80
80
ENDCHAR
STARTCHAR COMBINING
ENCODING 832
SWIDTH 545 0
DWIDTH 6 0
BBX 2 2 2 6
BITMAP
80
40
ENDCHAR
STARTCHAR COMBINING
ENCODING 833
SWIDTH 545 0
DWIDTH 6 0
BBX 2 2 2 6
BITMAP
40
80
ENDCHAR
STARTCHAR GREEK
ENCODING 884
SWIDTH 545 0
DWIDTH 6 0
BBX 2 2 2 5
BITMAP
40
80
ENDCHAR
STARTCHAR GREEK
ENCODING 885
SWIDTH 545 0
DWIDTH 6 0
BBX 2 2 2 -2
BITMAP
40
80
ENDCHAR
STARTCHAR GREEK
ENCODING 890
SWIDTH 545 0
DWIDTH 6 0
BBX 2 2 2 -2
BITMAP
80
C0
ENDCHAR
STARTCHAR GREEK
ENCODING 894
SWIDTH 545 0
DWIDTH 6 0
BBX 3 7 1 -1
BITMAP
40
E0
40
00
60
40
80
ENDCHAR
STARTCHAR GREEK
ENCODING 900
SWIDTH 545 0
DWIDTH 6 0
BBX 2 2 2 5
BITMAP
40
80
ENDCHAR
STARTCHAR GREEK
ENCODING 901
SWIDTH 545 0
DWIDTH 6 0
BBX 5 2 0 5
BITMAP
10
A8
ENDCHAR
STARTCHAR GREEK
ENCODING 902
SWIDTH 545 0
DWIDTH 6 0
BBX 6 7 0 0
BITMAP
58
A4
24
24
3C
24
24
ENDCHAR
STARTCHAR GREEK
ENCODING 903
SWIDTH 545 0
DWIDTH 6 0
BBX 1 1 2 4
BITMAP
80
ENDCHAR
STARTCHAR GREEK
ENCODING 904
SWIDTH 545 0
DWIDTH 6 0
BBX 6 7 0 0
BITMAP
7C
A0
20
38
20
20
3C
ENDCHAR
STARTCHAR GREEK
ENCODING 905
SWIDTH 545 0
DWIDTH 6 0
BBX 6 7 0 0
BITMAP
64
A4
24
3C
24
24
24
ENDCHAR
STARTCHAR GREEK
ENCODING 906
SWIDTH 545 0
DWIDTH 6 0
BBX 6 7 0 0
BITMAP
5C
88
08
08
08
08
1C
ENDCHAR
STARTCHAR GREEK
ENCODING 908
SWIDTH 545 0
DWIDTH 6 0
BBX 6 7 0 0
BITMAP
58
A4
24
24
24
24
18
ENDCHAR
STARTCHAR GREEK
ENCODING 910
SWIDTH 545 0
DWIDTH 6 0
BBX 6 7 0 0
BITMAP
54
94
14
08
08
08
08
ENDCHAR
STARTCHAR GREEK
ENCODING 911
SWIDTH 545 0
DWIDTH 6 0
BBX 6 7 0 0
BITMAP
58
A4
24
24
24
18
3C
ENDCHAR
STARTCHAR GREEK
ENCODING 912
SWIDTH 545 0
DWIDTH 6 0
BBX 5 8 0 0
BITMAP
10
A8
00
20
20
20
28
10
ENDCHAR
STARTCHAR GREEK
ENCODING 913
SWIDTH 545 0
DWIDTH 6 0
BBX 5 7 0 0
BITMAP
20
50
88
88
F8
88
88
ENDCHAR
STARTCHAR GREEK
ENCODING 914
SWIDTH 545 0
DWIDTH 6 0
BBX 5 7 0 0
BITMAP
F0
88
88
F0
88
88
F0
ENDCHAR
STARTCHAR GREEK
ENCODING 915
SWIDTH 545 0
DWIDTH 6 0
BBX 5 7 0 0
BITMAP
F8
80
80
80
80
80
80
ENDCHAR
STARTCHAR GREEK
ENCODING 916
SWIDTH 545 0
DWIDTH 6 0
BBX 5 7 0 0
BITMAP
20
50
50
50
88
88
F8
ENDCHAR
STARTCHAR GREEK
ENCODING 917
SWIDTH 545 0
DWIDTH 6 0
BBX 5 7 0 0
BITMAP
F8
80
80
F0
80
80
F8
ENDCHAR
STARTCHAR GREEK
ENCODING 918
SWIDTH 545 0
DWIDTH 6 0
BBX 5 7 0 0
BITMAP
F8
08
10
20
40
80
F8
ENDCHAR
STARTCHAR GREEK
ENCODING 919
SWIDTH 545 0
DWIDTH 6 0
BBX 5 7 0 0
BITMAP
88
88
88
F8
88
88
88
ENDCHAR
STARTCHAR GREEK
ENCODING 920
SWIDTH 545 0
DWIDTH 6 0
BBX 5 7 0 0
BITMAP
70
88
88
F8
88
88
70
ENDCHAR
STARTCHAR GREEK
ENCODING 921
SWIDTH 545 0
DWIDTH 6 0
BBX 3 7 1 0
BITMAP
E0
40
40
40
40
40
E0
ENDCHAR
STARTCHAR GREEK
ENCODING 922
SWIDTH 545 0
DWIDTH 6 0
BBX 5 7 0 0
BITMAP
88
90
A0
C0
A0
90
88
ENDCHAR
STARTCHAR GREEK
ENCODING 923
SWIDTH 545 0
DWIDTH 6 0
BBX 5 7 0 0
BITMAP
20
50
50
50
88
88
88
ENDCHAR
STARTCHAR GREEK
ENCODING 924
SWIDTH 545 0
DWIDTH 6 0
BBX 5 7 0 0
BITMAP
88
88
D8
A8
88
88
88
ENDCHAR
STARTCHAR GREEK
ENCODING 925
SWIDTH 545 0
DWIDTH 6 0
BBX 5 7 0 0
BITMAP
88
88
C8
A8
98
88
88
ENDCHAR
STARTCHAR GREEK
ENCODING 926
SWIDTH 545 0
DWIDTH 6 0
BBX 5 7 0 0
BITMAP
F8
00
00
70
00
00
F8
ENDCHAR
STARTCHAR GREEK
ENCODING 927
SWIDTH 545 0
DWIDTH 6 0
BBX 5 7 0 0
BITMAP
70
88
88
88
88
88
70
ENDCHAR
STARTCHAR GREEK
ENCODING 928
SWIDTH 545 0
DWIDTH 6 0
BBX 5 7 0 0
BITMAP
F8
88
88
88
88
88
88
ENDCHAR
STARTCHAR GREEK
ENCODING 929
SWIDTH 545 0
DWIDTH 6 0
BBX 5 7 0 0
BITMAP
F0
88
88
F0
80
80
80
ENDCHAR
STARTCHAR GREEK
ENCODING 931
SWIDTH 545 0
DWIDTH 6 0
BBX 5 7 0 0
BITMAP
F8
80
40
20
40
80
F8
ENDCHAR
STARTCHAR GREEK
ENCODING 932
SWIDTH 545 0
DWIDTH 6 0
BBX 5 7 0 0
BITMAP
F8
20
20
20
20
20
20
ENDCHAR
STARTCHAR GREEK
ENCODING 933
SWIDTH 545 0
DWIDTH 6 0
BBX 5 7 0 0
BITMAP
88
88
50
20
20
20
20
ENDCHAR
STARTCHAR GREEK
ENCODING 934
SWIDTH 545 0
DWIDTH 6 0
BBX 5 7 0 0
BITMAP
20
70
A8
A8
A8
70
20
ENDCHAR
STARTCHAR GREEK
ENCODING 935
SWIDTH 545 0
DWIDTH 6 0
BBX 5 7 0 0
BITMAP
88
88
50
20
50
88
88
ENDCHAR
STARTCHAR GREEK
ENCODING 936
SWIDTH 545 0
DWIDTH 6 0
BBX 5 7 0 0
BITMAP
A8
A8
A8
A8
70
20
20
ENDCHAR
STARTCHAR GREEK
ENCODING 937
SWIDTH 545 0
DWIDTH 6 0
BBX 5 7 0 0
BITMAP
70
88
88
88
88
50
D8
ENDCHAR
STARTCHAR GREEK
ENCODING 938
SWIDTH 545 0
DWIDTH 6 0
BBX 3 8 1 0
BITMAP
A0
00
E0
40
40
40
40
E0
ENDCHAR
STARTCHAR GREEK
ENCODING 939
SWIDTH 545 0
DWIDTH 6 0
BBX 5 8 0 0
BITMAP
88
00
88
88
50
20
20
20
ENDCHAR
STARTCHAR GREEK
ENCODING 940
SWIDTH 545 0
DWIDTH 6 0
BBX 5 8 0 0
BITMAP
10
20
00
70
88
88
98
68
ENDCHAR
STARTCHAR GREEK
ENCODING 941
SWIDTH 545 0
DWIDTH 6 0
BBX 5 8 0 0
BITMAP
10
20
00
70
88
60
88
70
ENDCHAR
STARTCHAR GREEK
ENCODING 942
SWIDTH 545 0
DWIDTH 6 0
BBX 5 10 0 -2
BITMAP
10
20
00
B0
C8
88
88
88
08
08
ENDCHAR
STARTCHAR GREEK
ENCODING 943
SWIDTH 545 0
DWIDTH 6 0
BBX 3 8 1 0
BITMAP
40
80
00
80
80
80
A0
40
ENDCHAR
STARTCHAR GREEK
ENCODING 944
SWIDTH 545 0
DWIDTH 6 0
BBX 5 8 0 0
BITMAP
10
A8
00
88
88
88
88
70
ENDCHAR
STARTCHAR GREEK
ENCODING 945
SWIDTH 545 0
DWIDTH 6 0
BBX 5 5 0 0
BITMAP
70
88
88
98
68
ENDCHAR
STARTCHAR GREEK
ENCODING 946
SWIDTH 545 0
DWIDTH 6 0
BBX 5 9 0 -2
BITMAP
60
90
90
F0
88
88
F0
80
80
ENDCHAR
STARTCHAR GREEK
ENCODING 947
SWIDTH 545 0
DWIDTH 6 0
BBX 5 7 0 -2
BITMAP
88
88
50
50
20
20
20
ENDCHAR
STARTCHAR GREEK
ENCODING 948
SWIDTH 545 0
DWIDTH 6 0
BBX 5 7 0 0
BITMAP
70
88
60
90
88
88
70
ENDCHAR
STARTCHAR GREEK
ENCODING 949
SWIDTH 545 0
DWIDTH 6 0
BBX 5 5 0 0
BITMAP
70
88
60
88
70
ENDCHAR
STARTCHAR GREEK
ENCODING 950
SWIDTH 545 0
DWIDTH 6 0
BBX 5 9 0 -2
BITMAP
F8
20
40
40
80
80
70
08
30
ENDCHAR
STARTCHAR GREEK
ENCODING 951
SWIDTH 545 0
DWIDTH 6 0
BBX 5 7 0 -2
BITMAP
B0
C8
88
88
88
08
08
ENDCHAR
STARTCHAR GREEK
ENCODING 952
SWIDTH 545 0
DWIDTH 6 0
BBX 4 7 1 0
BITMAP
60
90
90
F0
90
90
60
ENDCHAR
STARTCHAR GREEK
ENCODING 953
SWIDTH 545 0
DWIDTH 6 0
BBX 3 5 1 0
BITMAP
80
80
80
A0
40
ENDCHAR
STARTCHAR GREEK
ENCODING 954
SWIDTH 545 0
DWIDTH 6 0
BBX 5 5 0 0
BITMAP
88
90
E0
90
88
ENDCHAR
STARTCHAR GREEK
ENCODING 955
SWIDTH 545 0
DWIDTH 6 0
BBX 5 7 0 0
BITMAP
70
88
68
98
88
88
88
ENDCHAR
STARTCHAR GREEK
ENCODING 956
SWIDTH 545 0
DWIDTH 6 0
BBX 5 7 0 -2
BITMAP
88
88
88
D8
A8
80
80
ENDCHAR
STARTCHAR GREEK
ENCODING 957
SWIDTH 545 0
DWIDTH 6 0
BBX 5 5 0 0
BITMAP
88
88
50
50
20
ENDCHAR
STARTCHAR GREEK
ENCODING 958
SWIDTH 545 0
DWIDTH 6 0
BBX 5 9 0 -2
BITMAP
F8
20
40
30
40
80
70
08
30
ENDCHAR
STARTCHAR GREEK
ENCODING 959
SWIDTH 545 0
DWIDTH 6 0
BBX 5 5 0 0
BITMAP
70
88
88
88
70
ENDCHAR
STARTCHAR GREEK
ENCODING 960
SWIDTH 545 0
DWIDTH 6 0
BBX 5 5 0 0
BITMAP
F8
50
50
50
50
ENDCHAR
STARTCHAR GREEK
ENCODING 961
SWIDTH 545 0
DWIDTH 6 0
BBX 5 7 0 -2
BITMAP
70
88
88
88
F0
80
80
ENDCHAR
STARTCHAR GREEK
ENCODING 962
SWIDTH 545 0
DWIDTH 6 0
BBX 5 7 0 -2
BITMAP
70
88
80
80
70
08
30
ENDCHAR
STARTCHAR GREEK
ENCODING 963
SWIDTH 545 0
DWIDTH 6 0
BBX 5 5 0 0
BITMAP
78
90
88
88
70
ENDCHAR
STARTCHAR GREEK
ENCODING 964
SWIDTH 545 0
DWIDTH 6 0
BBX 5 5 0 0
BITMAP
F8
20
20
20
10
ENDCHAR
STARTCHAR GREEK
ENCODING 965
SWIDTH 545 0
DWIDTH 6 0
BBX 5 5 0 0
BITMAP
88
88
88
88
70
ENDCHAR
STARTCHAR GREEK
ENCODING 966
SWIDTH 545 0
DWIDTH 6 0
BBX 5 7 0 -2
BITMAP
50
A8
A8
A8
70
20
20
ENDCHAR
STARTCHAR GREEK
ENCODING 967
SWIDTH 545 0
DWIDTH 6 0
BBX 5 7 0 -2
BITMAP
88
50
50
20
50
50
88
ENDCHAR
STARTCHAR GREEK
ENCODING 968
SWIDTH 545 0
DWIDTH 6 0
BBX 5 7 0 -2
BITMAP
A8
A8
A8
A8
70
20
20
ENDCHAR
STARTCHAR GREEK
ENCODING 969
SWIDTH 545 0
DWIDTH 6 0
BBX 5 5 0 0
BITMAP
88
A8
A8
A8
50
ENDCHAR
STARTCHAR GREEK
ENCODING 970
SWIDTH 545 0
DWIDTH 6 0
BBX 5 7 0 0
BITMAP
88
00
20
20
20
28
10
ENDCHAR
STARTCHAR GREEK
ENCODING 971
SWIDTH 545 0
DWIDTH 6 0
BBX 5 7 0 0
BITMAP
88
00
88
88
88
88
70
ENDCHAR
STARTCHAR GREEK
ENCODING 972
SWIDTH 545 0
DWIDTH 6 0
BBX 5 8 0 0
BITMAP
10
20
00
70
88
88
88
70
ENDCHAR
STARTCHAR GREEK
ENCODING 973
SWIDTH 545 0
DWIDTH 6 0
BBX 5 8 0 0
BITMAP
10
20
00
88
88
88
88
70
ENDCHAR
STARTCHAR GREEK
ENCODING 974
SWIDTH 545 0
DWIDTH 6 0
BBX 5 8 0 0
BITMAP
10
20
00
88
A8
A8
A8
50
ENDCHAR
STARTCHAR GREEK
ENCODING 976
SWIDTH 545 0
DWIDTH 6 0
BBX 5 7 0 0
BITMAP
60
90
A0
F0
88
88
70
ENDCHAR
STARTCHAR GREEK
ENCODING 977
SWIDTH 545 0
DWIDTH 6 0
BBX 5 7 0 0
BITMAP
60
90
78
10
90
90
60
ENDCHAR
STARTCHAR GREEK
ENCODING 978
SWIDTH 545 0
DWIDTH 6 0
BBX 5 7 0 0
BITMAP
50
A8
20
20
20
20
20
ENDCHAR
STARTCHAR GREEK
ENCODING 979
SWIDTH 545 0
DWIDTH 6 0
BBX 5 7 0 0
BITMAP
50
A8
20
A0
A0
20
20
ENDCHAR
STARTCHAR GREEK
ENCODING 980
SWIDTH 545 0
DWIDTH 6 0
BBX 5 8 0 0
BITMAP
88
00
50
A8
20
20
20
20
ENDCHAR
STARTCHAR GREEK
ENCODING 981
SWIDTH 545 0
DWIDTH 6 0
BBX 5 9 0 -2
BITMAP
20
20
70
A8
A8
A8
70
20
20
ENDCHAR
STARTCHAR GREEK
ENCODING 982
SWIDTH 545 0
DWIDTH 6 0
BBX 5 5 0 0
BITMAP
F8
88
A8
A8
50
ENDCHAR
STARTCHAR GREEK
ENCODING 983
SWIDTH 545 0
DWIDTH 6 0
BBX 5 9 0 -2
BITMAP
10
20
88
50
60
60
98
08
70
ENDCHAR
STARTCHAR GREEK
ENCODING 986
SWIDTH 545 0
DWIDTH 6 0
BBX 5 8 0 -1
BITMAP
30
48
80
80
80
70
08
10
ENDCHAR
STARTCHAR GREEK
ENCODING 987
SWIDTH 545 0
DWIDTH 6 0
BBX 5 8 0 -2
BITMAP
08
70
80
80
80
70
08
30
ENDCHAR
STARTCHAR GREEK
ENCODING 988
SWIDTH 545 0
DWIDTH 6 0
BBX 5 7 0 0
BITMAP
F8
80
80
F0
80
80
80
ENDCHAR
STARTCHAR GREEK
ENCODING 989
SWIDTH 545 0
DWIDTH 6 0
BBX 4 7 1 -2
BITMAP
F0
80
80
E0
80
80
80
ENDCHAR
STARTCHAR GREEK
ENCODING 990
SWIDTH 545 0
DWIDTH 6 0
BBX 5 7 0 0
BITMAP
80
88
98
A8
C8
88
08
ENDCHAR
STARTCHAR GREEK
ENCODING 991
SWIDTH 545 0
DWIDTH 6 0
BBX 5 9 0 -2
BITMAP
20
40
40
80
F8
08
10
10
20
ENDCHAR
STARTCHAR GREEK
ENCODING 992
SWIDTH 545 0
DWIDTH 6 0
BBX 5 7 0 0
BITMAP
20
50
50
50
98
A8
A8
ENDCHAR
STARTCHAR GREEK
ENCODING 993
SWIDTH 545 0
DWIDTH 6 0
BBX 5 9 0 -2
BITMAP
C0
20
10
30
58
28
08
08
08
ENDCHAR
STARTCHAR GREEK
ENCODING 1008
SWIDTH 545 0
DWIDTH 6 0
BBX 5 5 0 0
BITMAP
88
50
60
60
98
ENDCHAR
STARTCHAR GREEK
ENCODING 1009
SWIDTH 545 0
DWIDTH 6 0
BBX 5 7 0 -2
BITMAP
70
88
88
88
F0
80
70
ENDCHAR
STARTCHAR GREEK
ENCODING 1010
SWIDTH 545 0
DWIDTH 6 0
BBX 5 5 0 0
BITMAP
70
88
80
88
70
ENDCHAR
STARTCHAR GREEK
ENCODING 1011
SWIDTH 545 0
DWIDTH 6 0
BBX 4 9 1 -2
BITMAP
10
00
30
10
10
10
90
90
60
ENDCHAR
STARTCHAR GREEK
ENCODING 1012
SWIDTH 545 0
DWIDTH 6 0
BBX 5 7 0 0
BITMAP
70
88
88
F8
88
88
70
ENDCHAR
STARTCHAR GREEK
ENCODING 1013
SWIDTH 545 0
DWIDTH 6 0
BBX 4 5 1 0
BITMAP
70
80
E0
80
70
ENDCHAR
STARTCHAR CYRILLIC
ENCODING 1025
SWIDTH 545 0
DWIDTH 6 0
BBX 5 8 0 0
BITMAP
50
00
F8
80
F0
80
80
F8
ENDCHAR
STARTCHAR CYRILLIC
ENCODING 1026
SWIDTH 545 0
DWIDTH 6 0
BBX 5 9 0 -2
BITMAP
E0
40
40
70
48
48
48
08
30
ENDCHAR
STARTCHAR CYRILLIC
ENCODING 1027
SWIDTH 545 0
DWIDTH 6 0
BBX 5 8 0 0
BITMAP
10
20
F8
80
80
80
80
80
ENDCHAR
STARTCHAR CYRILLIC
ENCODING 1028
SWIDTH 545 0
DWIDTH 6 0
BBX 5 7 0 0
BITMAP
70
88
80
E0
80
88
70
ENDCHAR
STARTCHAR CYRILLIC
ENCODING 1029
SWIDTH 545 0
DWIDTH 6 0
BBX 5 7 0 0
BITMAP
70
88
80
70
08
88
70
ENDCHAR
STARTCHAR CYRILLIC
ENCODING 1030
SWIDTH 545 0
DWIDTH 6 0
BBX 3 7 1 0
BITMAP
E0
40
40
40
40
40
E0
ENDCHAR
STARTCHAR CYRILLIC
ENCODING 1031
SWIDTH 545 0
DWIDTH 6 0
BBX 3 8 1 0
BITMAP
A0
00
E0
40
40
40
40
E0
ENDCHAR
STARTCHAR CYRILLIC
ENCODING 1032
SWIDTH 545 0
DWIDTH 6 0
BBX 5 7 0 0
BITMAP
38
08
08
08
08
88
70
ENDCHAR
STARTCHAR CYRILLIC
ENCODING 1033
SWIDTH 545 0
DWIDTH 6 0
BBX 6 7 0 0
BITMAP
30
50
50
98
94
94
98
ENDCHAR
STARTCHAR CYRILLIC
ENCODING 1034
SWIDTH 545 0
DWIDTH 6 0
BBX 5 7 0 0
BITMAP
A0
A0
A0
F0
A8
A8
B0
ENDCHAR
STARTCHAR CYRILLIC
ENCODING 1035
SWIDTH 545 0
DWIDTH 6 0
BBX 5 7 0 0
BITMAP
E0
40
40
70
48
48
48
ENDCHAR
STARTCHAR CYRILLIC
ENCODING 1036
SWIDTH 545 0
DWIDTH 6 0
BBX 5 8 0 0
BITMAP
10
20
88
90
E0
90
88
88
ENDCHAR
STARTCHAR CYRILLIC
ENCODING 1038
SWIDTH 545 0
DWIDTH 6 0
BBX 5 8 0 0
BITMAP
50
20
88
88
50
20
40
80
ENDCHAR
STARTCHAR CYRILLIC
ENCODING 1039
SWIDTH 545 0
DWIDTH 6 0
BBX 5 8 0 -1
BITMAP
88
88
88
88
88
88
F8
20
ENDCHAR
STARTCHAR CYRILLIC
ENCODING 1040
SWIDTH 545 0
DWIDTH 6 0
BBX 5 7 0 0
BITMAP
20
50
88
88
F8
88
88
ENDCHAR
STARTCHAR CYRILLIC
ENCODING 1041
SWIDTH 545 0
DWIDTH 6 0
BBX 5 7 0 0
BITMAP
F0
80
80
F0
88
88
F0
ENDCHAR
STARTCHAR CYRILLIC
ENCODING 1042
SWIDTH 545 0
DWIDTH 6 0
BBX 5 7 0 0
BITMAP
F0
88
88
F0
88
88
F0
ENDCHAR
STARTCHAR CYRILLIC
ENCODING 1043
SWIDTH 545 0
DWIDTH 6 0
BBX 5 7 0 0
BITMAP
F8
80
80
80
80
80
80
ENDCHAR
STARTCHAR CYRILLIC
ENCODING 1044
SWIDTH 545 0
DWIDTH 6 0
BBX 5 8 0 -1
BITMAP
18
28
28
48
48
48
F8
88
ENDCHAR
STARTCHAR CYRILLIC
ENCODING 1045
SWIDTH 545 0
DWIDTH 6 0
BBX 5 7 0 0
BITMAP
F8
80
80
F0
80
80
F8
ENDCHAR
STARTCHAR CYRILLIC
ENCODING 1046
SWIDTH 545 0
DWIDTH 6 0
BBX 5 7 0 0
BITMAP
A8
A8
A8
70
A8
A8
A8
ENDCHAR
STARTCHAR CYRILLIC
ENCODING 1047
SWIDTH 545 0
DWIDTH 6 0
BBX 5 7 0 0
BITMAP
70
88
08
30
08
88
70
ENDCHAR
STARTCHAR CYRILLIC
ENCODING 1048
SWIDTH 545 0
DWIDTH 6 0
BBX 5 7 0 0
BITMAP
88
88
98
A8
C8
88
88
ENDCHAR
STARTCHAR CYRILLIC
ENCODING 1049
SWIDTH 545 0
DWIDTH 6 0
BBX 5 8 0 0
BITMAP
50
20
88
98
A8
C8
88
88
ENDCHAR
STARTCHAR CYRILLIC
ENCODING 1050
SWIDTH 545 0
DWIDTH 6 0
BBX 5 7 0 0
BITMAP
88
90
A0
C0
A0
90
88
ENDCHAR
STARTCHAR CYRILLIC
ENCODING 1051
SWIDTH 545 0
DWIDTH 6 0
BBX 5 7 0 0
BITMAP
38
48
48
48
48
48
88
ENDCHAR
STARTCHAR CYRILLIC
ENCODING 1052
SWIDTH 545 0
DWIDTH 6 0
BBX 5 7 0 0
BITMAP
88
88
D8
A8
88
88
88
ENDCHAR
STARTCHAR CYRILLIC
ENCODING 1053
SWIDTH 545 0
DWIDTH 6 0
BBX 5 7 0 0
BITMAP
88
88
88
F8
88
88
88
ENDCHAR
STARTCHAR CYRILLIC
ENCODING 1054
SWIDTH 545 0
DWIDTH 6 0
BBX 5 7 0 0
BITMAP
70
88
88
88
88
88
70
ENDCHAR
STARTCHAR CYRILLIC
ENCODING 1055
SWIDTH 545 0
DWIDTH 6 0
BBX 5 7 0 0
BITMAP
F8
88
88
88
88
88
88
ENDCHAR
STARTCHAR CYRILLIC
ENCODING 1056
SWIDTH 545 0
DWIDTH 6 0
BBX 5 7 0 0
BITMAP
F0
88
88
F0
80
80
80
ENDCHAR
STARTCHAR CYRILLIC
ENCODING 1057
SWIDTH 545 0
DWIDTH 6 0
BBX 5 7 0 0
BITMAP
70
88
80
80
80
88
70
ENDCHAR
STARTCHAR CYRILLIC
ENCODING 1058
SWIDTH 545 0
DWIDTH 6 0
BBX 5 7 0 0
BITMAP
F8
20
20
20
20
20
20
ENDCHAR
STARTCHAR CYRILLIC
ENCODING 1059
SWIDTH 545 0
DWIDTH 6 0
BBX 5 7 0 0
BITMAP
88
88
88
50
20
40
80
ENDCHAR
STARTCHAR CYRILLIC
ENCODING 1060
SWIDTH 545 0
DWIDTH 6 0
BBX 5 7 0 0
BITMAP
20
70
A8
A8
A8
70
20
ENDCHAR
STARTCHAR CYRILLIC
ENCODING 1061
SWIDTH 545 0
DWIDTH 6 0
BBX 5 7 0 0
BITMAP
88
88
50
20
50
88
88
ENDCHAR
STARTCHAR CYRILLIC
ENCODING 1062
SWIDTH 545 0
DWIDTH 6 0
BBX 5 9 0 -2
BITMAP
90
90
90
90
90
90
F8
08
08
ENDCHAR
STARTCHAR CYRILLIC
ENCODING 1063
SWIDTH 545 0
DWIDTH 6 0
BBX 5 7 0 0
BITMAP
88
88
88
78
08
08
08
ENDCHAR
STARTCHAR CYRILLIC
ENCODING 1064
SWIDTH 545 0
DWIDTH 6 0
BBX 5 7 0 0
BITMAP
A8
A8
A8
A8
A8
A8
F8
ENDCHAR
STARTCHAR CYRILLIC
ENCODING 1065
SWIDTH 545 0
DWIDTH 6 0
BBX 5 9 0 -2
BITMAP
A8
A8
A8
A8
A8
A8
F8
08
08
ENDCHAR
STARTCHAR CYRILLIC
ENCODING 1066
SWIDTH 545 0
DWIDTH 6 0
BBX 5 7 0 0
BITMAP
C0
40
40
70
48
48
70
ENDCHAR
STARTCHAR CYRILLIC
ENCODING 1067
SWIDTH 545 0
DWIDTH 6 0
BBX 5 7 0 0
BITMAP
88
88
88
E8
98
98
E8
ENDCHAR
STARTCHAR CYRILLIC
ENCODING 1068
SWIDTH 545 0
DWIDTH 6 0
BBX 4 7 1 0
BITMAP
80
80
80
E0
90
90
E0
ENDCHAR
STARTCHAR CYRILLIC
ENCODING 1069
SWIDTH 545 0
DWIDTH 6 0
BBX 5 7 0 0
BITMAP
70
88
08
38
08
88
70
ENDCHAR
STARTCHAR CYRILLIC
ENCODING 1070
SWIDTH 545 0
DWIDTH 6 0
BBX 5 7 0 0
BITMAP
90
A8
A8
E8
A8
A8
90
ENDCHAR
STARTCHAR CYRILLIC
ENCODING 1071
SWIDTH 545 0
DWIDTH 6 0
BBX 5 7 0 0
BITMAP
78
88
88
78
28
48
88
ENDCHAR
STARTCHAR CYRILLIC
ENCODING 1072
SWIDTH 545 0
DWIDTH 6 0
BBX 5 5 0 0
BITMAP
70
08
78
88
78
ENDCHAR
STARTCHAR CYRILLIC
ENCODING 1073
SWIDTH 545 0
DWIDTH 6 0
BBX 5 7 0 0
BITMAP
78
80
70
88
88
88
70
ENDCHAR
STARTCHAR CYRILLIC
ENCODING 1074
SWIDTH 545 0
DWIDTH 6 0
BBX 5 5 0 0
BITMAP
F0
88
F0
88
F0
ENDCHAR
STARTCHAR CYRILLIC
ENCODING 1075
SWIDTH 545 0
DWIDTH 6 0
BBX 4 5 1 0
BITMAP
F0
80
80
80
80
ENDCHAR
STARTCHAR CYRILLIC
ENCODING 1076
SWIDTH 545 0
DWIDTH 6 0
BBX 5 6 0 -1
BITMAP
30
50
50
50
F8
88
ENDCHAR
STARTCHAR CYRILLIC
ENCODING 1077
SWIDTH 545 0
DWIDTH 6 0
BBX 5 5 0 0
BITMAP
70
88
F8
80
70
ENDCHAR
STARTCHAR CYRILLIC
ENCODING 1078
SWIDTH 545 0
DWIDTH 6 0
BBX 5 5 0 0
BITMAP
A8
A8
70
A8
A8
ENDCHAR
STARTCHAR CYRILLIC
ENCODING 1079
SWIDTH 545 0
DWIDTH 6 0
BBX 5 5 0 0
BITMAP
70
88
30
88
70
ENDCHAR
STARTCHAR CYRILLIC
ENCODING 1080
SWIDTH 545 0
DWIDTH 6 0
BBX 5 5 0 0
BITMAP
88
98
A8
C8
88
ENDCHAR
STARTCHAR CYRILLIC
ENCODING 1081
SWIDTH 545 0
DWIDTH 6 0
BBX 5 7 0 0
BITMAP
50
20
88
98
A8
C8
88
ENDCHAR
STARTCHAR CYRILLIC
ENCODING 1082
SWIDTH 545 0
DWIDTH 6 0
BBX 5 5 0 0
BITMAP
88
90
E0
90
88
ENDCHAR
STARTCHAR CYRILLIC
ENCODING 1083
SWIDTH 545 0
DWIDTH 6 0
BBX 5 5 0 0
BITMAP
38
48
48
48
88
ENDCHAR
STARTCHAR CYRILLIC
ENCODING 1084
SWIDTH 545 0
DWIDTH 6 0
BBX 5 5 0 0
BITMAP
88
D8
A8
88
88
ENDCHAR
STARTCHAR CYRILLIC
ENCODING 1085
SWIDTH 545 0
DWIDTH 6 0
BBX 5 5 0 0
BITMAP
88
88
F8
88
88
ENDCHAR
STARTCHAR CYRILLIC
ENCODING 1086
SWIDTH 545 0
DWIDTH 6 0
BBX 5 5 0 0
BITMAP
70
88
88
88
70
ENDCHAR
STARTCHAR CYRILLIC
ENCODING 1087
SWIDTH 545 0
DWIDTH 6 0
BBX 5 5 0 0
BITMAP
F8
88
88
88
88
ENDCHAR
STARTCHAR CYRILLIC
ENCODING 1088
SWIDTH 545 0
DWIDTH 6 0
BBX 5 7 0 -2
BITMAP
B0
C8
88
C8
B0
80
80
ENDCHAR
STARTCHAR CYRILLIC
ENCODING 1089
SWIDTH 545 0
DWIDTH 6 0
BBX 5 5 0 0
BITMAP
70
88
80
88
70
ENDCHAR
STARTCHAR CYRILLIC
ENCODING 1090
SWIDTH 545 0
DWIDTH 6 0
BBX 5 5 0 0
BITMAP
F8
20
20
20
20
ENDCHAR
STARTCHAR CYRILLIC
ENCODING 1091
SWIDTH 545 0
DWIDTH 6 0
BBX 5 7 0 -2
BITMAP
88
88
88
78
08
88
70
ENDCHAR
STARTCHAR CYRILLIC
ENCODING 1092
SWIDTH 545 0
DWIDTH 6 0
BBX 5 9 0 -2
BITMAP
20
20
70
A8
A8
A8
70
20
20
ENDCHAR
STARTCHAR CYRILLIC
ENCODING 1093
SWIDTH 545 0
DWIDTH 6 0
BBX 5 5 0 0
BITMAP
88
50
20
50
88
ENDCHAR
STARTCHAR CYRILLIC
ENCODING 1094
SWIDTH 545 0
DWIDTH 6 0
BBX 5 7 0 -2
BITMAP
90
90
90
90
F8
08
08
ENDCHAR
STARTCHAR CYRILLIC
ENCODING 1095
SWIDTH 545 0
DWIDTH 6 0
BBX 5 5 0 0
BITMAP
88
88
78
08
08
ENDCHAR
STARTCHAR CYRILLIC
ENCODING 1096
SWIDTH 545 0
DWIDTH 6 0
BBX 5 5 0 0
BITMAP
A8
A8
A8
A8
F8
ENDCHAR
STARTCHAR CYRILLIC
ENCODING 1097
SWIDTH 545 0
DWIDTH 6 0
BBX 5 7 0 -2
BITMAP
A8
A8
A8
A8
F8
08
08
ENDCHAR
STARTCHAR CYRILLIC
ENCODING 1098
SWIDTH 545 0
DWIDTH 6 0
BBX 5 5 0 0
BITMAP
C0
40
70
48
70
ENDCHAR
STARTCHAR CYRILLIC
ENCODING 1099
SWIDTH 545 0
DWIDTH 6 0
BBX 5 5 0 0
BITMAP
88
88
E8
98
E8
ENDCHAR
STARTCHAR CYRILLIC
ENCODING 1100
SWIDTH 545 0
DWIDTH 6 0
BBX 4 5 1 0
BITMAP
80
80
E0
90
E0
ENDCHAR
STARTCHAR CYRILLIC
ENCODING 1101
SWIDTH 545 0
DWIDTH 6 0
BBX 5 5 0 0
BITMAP
70
88
38
88
70
ENDCHAR
STARTCHAR CYRILLIC
ENCODING 1102
SWIDTH 545 0
DWIDTH 6 0
BBX 5 5 0 0
BITMAP
90
A8
E8
A8
90
ENDCHAR
STARTCHAR CYRILLIC
ENCODING 1103
SWIDTH 545 0
DWIDTH 6 0
BBX 5 5 0 0
BITMAP
78
88
78
88
88
ENDCHAR
STARTCHAR CYRILLIC
ENCODING 1105
SWIDTH 545 0
DWIDTH 6 0
BBX 5 7 0 0
BITMAP
50
00
70
88
F8
80
70
ENDCHAR
STARTCHAR CYRILLIC
ENCODING 1106
SWIDTH 545 0
DWIDTH 6 0
BBX 5 9 0 -2
BITMAP
40
F0
40
70
48
48
48
08
30
ENDCHAR
STARTCHAR CYRILLIC
ENCODING 1107
SWIDTH 545 0
DWIDTH 6 0
BBX 4 8 1 0
BITMAP
20
40
00
F0
80
80
80
80
ENDCHAR
STARTCHAR CYRILLIC
ENCODING 1108
SWIDTH 545 0
DWIDTH 6 0
BBX 4 5 1 0
BITMAP
60
90
C0
90
60
ENDCHAR
STARTCHAR CYRILLIC
ENCODING 1109
SWIDTH 545 0
DWIDTH 6 0
BBX 5 5 0 0
BITMAP
70
80
70
08
F0
ENDCHAR
STARTCHAR CYRILLIC
ENCODING 1110
SWIDTH 545 0
DWIDTH 6 0
BBX 3 7 1 0
BITMAP
40
00
C0
40
40
40
E0
ENDCHAR
STARTCHAR CYRILLIC
ENCODING 1111
SWIDTH 545 0
DWIDTH 6 0
BBX 3 7 1 0
BITMAP
A0
00
C0
40
40
40
E0
ENDCHAR
STARTCHAR CYRILLIC
ENCODING 1112
SWIDTH 545 0
DWIDTH 6 0
BBX 4 9 1 -2
BITMAP
10
00
30
10
10
10
90
90
60
ENDCHAR
STARTCHAR CYRILLIC
ENCODING 1113
SWIDTH 545 0
DWIDTH 6 0
BBX 6 5 0 0
BITMAP
30
50
98
94
98
ENDCHAR
STARTCHAR CYRILLIC
ENCODING 1114
SWIDTH 545 0
DWIDTH 6 0
BBX 5 5 0 0
BITMAP
A0
A0
F0
A8
B0
ENDCHAR
STARTCHAR CYRILLIC
ENCODING 1115
SWIDTH 545 0
DWIDTH 6 0
BBX 5 7 0 0
BITMAP
40
F0
40
70
48
48
48
ENDCHAR
STARTCHAR CYRILLIC
ENCODING 1116
SWIDTH 545 0
DWIDTH 6 0
BBX 5 7 0 0
BITMAP
10
20
88
90
E0
90
88
ENDCHAR
STARTCHAR CYRILLIC
ENCODING 1118
SWIDTH 545 0
DWIDTH 6 0
BBX 5 9 0 -2
BITMAP
50
20
88
88
98
68
08
88
70
ENDCHAR
STARTCHAR CYRILLIC
ENCODING 1119
SWIDTH 545 0
DWIDTH 6 0
BBX 5 6 0 -1
BITMAP
88
88
88
88
F8
20
ENDCHAR
STARTCHAR CYRILLIC
ENCODING 1122
SWIDTH 545 0
DWIDTH 6 0
BBX 5 7 0 0
BITMAP
40
F0
40
70
48
48
70
ENDCHAR
STARTCHAR CYRILLIC
ENCODING 1123
SWIDTH 545 0
DWIDTH 6 0
BBX 5 7 0 0
BITMAP
40
40
F0
40
70
48
70
ENDCHAR
STARTCHAR CYRILLIC
ENCODING 1136
SWIDTH 545 0
DWIDTH 6 0
BBX 5 7 0 0
BITMAP
A8
A8
A8
70
20
20
20
ENDCHAR
STARTCHAR CYRILLIC
ENCODING 1137
SWIDTH 545 0
DWIDTH 6 0
BBX 5 5 0 0
BITMAP
A8
A8
70
20
20
ENDCHAR
STARTCHAR CYRILLIC
ENCODING 1138
SWIDTH 545 0
DWIDTH 6 0
BBX 5 7 0 0
BITMAP
70
88
88
F8
88
88
70
ENDCHAR
STARTCHAR CYRILLIC
ENCODING 1139
SWIDTH 545 0
DWIDTH 6 0
BBX 5 5 0 0
BITMAP
70
88
F8
88
70
ENDCHAR
STARTCHAR CYRILLIC
ENCODING 1140
SWIDTH 545 0
DWIDTH 6 0
BBX 5 7 0 0
BITMAP
88
90
90
50
50
50
20
ENDCHAR
STARTCHAR CYRILLIC
ENCODING 1141
SWIDTH 545 0
DWIDTH 6 0
BBX 5 5 0 0
BITMAP
88
90
50
50
20
ENDCHAR
STARTCHAR CYRILLIC
ENCODING 1142
SWIDTH 545 0
DWIDTH 6 0
BBX 5 8 0 0
BITMAP
50
28
80
88
50
50
50
20
ENDCHAR
STARTCHAR CYRILLIC
ENCODING 1143
SWIDTH 545 0
DWIDTH 6 0
BBX 5 7 0 0
BITMAP
50
28
80
88
50
50
20
ENDCHAR
STARTCHAR CYRILLIC
ENCODING 1168
SWIDTH 545 0
DWIDTH 6 0
BBX 5 8 0 0
BITMAP
08
F8
80
80
80
80
80
80
ENDCHAR
STARTCHAR CYRILLIC
ENCODING 1169
SWIDTH 545 0
DWIDTH 6 0
BBX 4 6 1 0
BITMAP
10
F0
80
80
80
80
ENDCHAR
STARTCHAR CYRILLIC
ENCODING 1170
SWIDTH 545 0
DWIDTH 6 0
BBX 5 7 0 0
BITMAP
78
40
40
F0
40
40
40
ENDCHAR
STARTCHAR CYRILLIC
ENCODING 1171
SWIDTH 545 0
DWIDTH 6 0
BBX 5 5 0 0
BITMAP
78
40
F0
40
40
ENDCHAR
STARTCHAR CYRILLIC
ENCODING 1174
SWIDTH 545 0
DWIDTH 6 0
BBX 6 9 0 -2
BITMAP
A8
A8
A8
70
A8
A8
A8
04
04
ENDCHAR
STARTCHAR CYRILLIC
ENCODING 1175
SWIDTH 545 0
DWIDTH 6 0
BBX 6 7 0 -2
BITMAP
A8
A8
70
A8
A8
04
04
ENDCHAR
STARTCHAR CYRILLIC
ENCODING 1178
SWIDTH 545 0
DWIDTH 6 0
BBX 6 9 0 -2
BITMAP
88
90
A0
C0
A0
90
88
04
04
ENDCHAR
STARTCHAR CYRILLIC
ENCODING 1179
SWIDTH 545 0
DWIDTH 6 0
BBX 6 7 0 -2
BITMAP
88
90
E0
90
88
04
04
ENDCHAR
STARTCHAR CYRILLIC
ENCODING 1198
SWIDTH 545 0
DWIDTH 6 0
BBX 5 7 0 0
BITMAP
88
88
50
20
20
20
20
ENDCHAR
STARTCHAR CYRILLIC
ENCODING 1199
SWIDTH 545 0
DWIDTH 6 0
BBX 5 7 0 -2
BITMAP
88
88
50
20
20
20
20
ENDCHAR
STARTCHAR CYRILLIC
ENCODING 1200
SWIDTH 545 0
DWIDTH 6 0
BBX 5 7 0 0
BITMAP
88
88
50
F8
20
20
20
ENDCHAR
STARTCHAR CYRILLIC
ENCODING 1201
SWIDTH 545 0
DWIDTH 6 0
BBX 5 7 0 -2
BITMAP
88
88
50
F8
20
20
20
ENDCHAR
STARTCHAR CYRILLIC
ENCODING 1202
SWIDTH 545 0
DWIDTH 6 0
BBX 6 9 0 -2
BITMAP
88
88
50
20
50
88
88
04
04
ENDCHAR
STARTCHAR CYRILLIC
ENCODING 1203
SWIDTH 545 0
DWIDTH 6 0
BBX 6 7 0 -2
BITMAP
88
50
20
50
88
04
04
ENDCHAR
STARTCHAR CYRILLIC
ENCODING 1210
SWIDTH 545 0
DWIDTH 6 0
BBX 5 7 0 0
BITMAP
80
80
F0
88
88
88
88
ENDCHAR
STARTCHAR CYRILLIC
ENCODING 1211
SWIDTH 545 0
DWIDTH 6 0
BBX 4 7 1 0
BITMAP
80
80
A0
D0
90
90
90
ENDCHAR
STARTCHAR CYRILLIC
ENCODING 1240
SWIDTH 545 0
DWIDTH 6 0
BBX 5 7 0 0
BITMAP
70
88
08
F8
88
88
70
ENDCHAR
STARTCHAR CYRILLIC
ENCODING 1241
SWIDTH 545 0
DWIDTH 6 0
BBX 5 5 0 0
BITMAP
70
08
F8
88
70
ENDCHAR
STARTCHAR CYRILLIC
ENCODING 1250
SWIDTH 545 0
DWIDTH 6 0
BBX 3 8 1 0
BITMAP
E0
00
E0
40
40
40
40
E0
ENDCHAR
STARTCHAR CYRILLIC
ENCODING 1251
SWIDTH 545 0
DWIDTH 6 0
BBX 3 7 1 0
BITMAP
E0
00
C0
40
40
40
E0
ENDCHAR
STARTCHAR CYRILLIC
ENCODING 1256
SWIDTH 545 0
DWIDTH 6 0
BBX 5 7 0 0
BITMAP
70
88
88
F8
88
88
70
ENDCHAR
STARTCHAR CYRILLIC
ENCODING 1257
SWIDTH 545 0
DWIDTH 6 0
BBX 5 5 0 0
BITMAP
70
88
F8
88
70
ENDCHAR
STARTCHAR CYRILLIC
ENCODING 1262
SWIDTH 545 0
DWIDTH 6 0
BBX 5 8 0 0
BITMAP
70
00
88
88
88
88
88
70
ENDCHAR
STARTCHAR CYRILLIC
ENCODING 1263
SWIDTH 545 0
DWIDTH 6 0
BBX 5 7 0 0
BITMAP
70
00
88
88
88
98
68
ENDCHAR
STARTCHAR HEBREW
ENCODING 1488
SWIDTH 545 0
DWIDTH 6 0
BBX 5 5 0 0
BITMAP
90
48
B0
90
C8
ENDCHAR
STARTCHAR HEBREW
ENCODING 1489
SWIDTH 545 0
DWIDTH 6 0
BBX 5 5 0 0
BITMAP
F0
08
08
08
F8
ENDCHAR
STARTCHAR HEBREW
ENCODING 1490
SWIDTH 545 0
DWIDTH 6 0
BBX 4 5 1 0
BITMAP
60
20
20
20
D0
ENDCHAR
STARTCHAR HEBREW
ENCODING 1491
SWIDTH 545 0
DWIDTH 6 0
BBX 5 5 0 0
BITMAP
F8
10
10
10
10
ENDCHAR
STARTCHAR HEBREW
ENCODING 1492
SWIDTH 545 0
DWIDTH 6 0
BBX 5 5 0 0
BITMAP
F8
10
90
90
90
ENDCHAR
STARTCHAR HEBREW
ENCODING 1493
SWIDTH 545 0
DWIDTH 6 0
BBX 2 5 2 0
BITMAP
C0
40
40
40
40
ENDCHAR
STARTCHAR HEBREW
ENCODING 1494
SWIDTH 545 0
DWIDTH 6 0
BBX 3 6 1 0
BITMAP
80
60
40
40
40
40
ENDCHAR
STARTCHAR HEBREW
ENCODING 1495
SWIDTH 545 0
DWIDTH 6 0
BBX 5 5 0 0
BITMAP
F8
88
88
88
88
ENDCHAR
STARTCHAR HEBREW
ENCODING 1496
SWIDTH 545 0
DWIDTH 6 0
BBX 5 5 0 0
BITMAP
B8
A8
88
88
F8
ENDCHAR
STARTCHAR HEBREW
ENCODING 1497
SWIDTH 545 0
DWIDTH 6 0
BBX 2 2 2 3
BITMAP
C0
40
ENDCHAR
STARTCHAR HEBREW
ENCODING 1498
SWIDTH 545 0
DWIDTH 6 0
BBX 3 7 1 -2
BITMAP
E0
20
20
20
20
20
20
ENDCHAR
STARTCHAR HEBREW
ENCODING 1499
SWIDTH 545 0
DWIDTH 6 0
BBX 5 5 0 0
BITMAP
F0
08
08
08
F0
ENDCHAR
STARTCHAR HEBREW
ENCODING 1500
SWIDTH 545 0
DWIDTH 6 0
BBX 5 7 0 0
BITMAP
80
80
F0
08
08
10
20
ENDCHAR
STARTCHAR HEBREW
ENCODING 1501
SWIDTH 545 0
DWIDTH 6 0
BBX 5 5 0 0
BITMAP
F0
88
88
88
F8
ENDCHAR
STARTCHAR HEBREW
ENCODING 1502
SWIDTH 545 0
DWIDTH 6 0
BBX 5 5 0 0
BITMAP
B0
48
88
88
B8
ENDCHAR
STARTCHAR HEBREW
ENCODING 1503
SWIDTH 545 0
DWIDTH 6 0
BBX 2 7 2 -2
BITMAP
C0
40
40
40
40
40
40
ENDCHAR
STARTCHAR HEBREW
ENCODING 1504
SWIDTH 545 0
DWIDTH 6 0
BBX 2 5 2 0
BITMAP
C0
40
40
40
C0
ENDCHAR
STARTCHAR HEBREW
ENCODING 1505
SWIDTH 545 0
DWIDTH 6 0
BBX 5 5 0 0
BITMAP
F8
88
88
88
70
ENDCHAR
STARTCHAR HEBREW
ENCODING 1506
SWIDTH 545 0
DWIDTH 6 0
BBX 5 5 0 0
BITMAP
48
48
48
48
F0
ENDCHAR
STARTCHAR HEBREW
ENCODING 1507
SWIDTH 545 0
DWIDTH 6 0
BBX 4 7 1 -2
BITMAP
F0
90
D0
10
10
10
10
ENDCHAR
STARTCHAR HEBREW
ENCODING 1508
SWIDTH 545 0
DWIDTH 6 0
BBX 5 5 0 0
BITMAP
E0
90
C8
08
F8
ENDCHAR
STARTCHAR HEBREW
ENCODING 1509
SWIDTH 545 0
DWIDTH 6 0
BBX 3 7 1 -2
BITMAP
A0
A0
A0
C0
80
80
80
ENDCHAR
STARTCHAR HEBREW
ENCODING 1510
SWIDTH 545 0
DWIDTH 6 0
BBX 5 5 0 0
BITMAP
88
50
20
10
F8
ENDCHAR
STARTCHAR HEBREW
ENCODING 1511
SWIDTH 545 0
DWIDTH 6 0
BBX 5 7 0 -2
BITMAP
F8
08
88
88
F0
80
80
ENDCHAR
STARTCHAR HEBREW
ENCODING 1512
SWIDTH 545 0
DWIDTH 6 0
BBX 5 5 0 0
BITMAP
F0
08
08
08
08
ENDCHAR
STARTCHAR HEBREW
ENCODING 1513
SWIDTH 545 0
DWIDTH 6 0
BBX 5 5 0 0
BITMAP
A8
A8
C8
88
F0
ENDCHAR
STARTCHAR HEBREW
ENCODING 1514
SWIDTH 545 0
DWIDTH 6 0
BBX 5 5 0 0
BITMAP
F8
88
88
48
88
ENDCHAR
STARTCHAR RUNIC
ENCODING 5792
SWIDTH 545 0
DWIDTH 6 0
BBX 3 7 2 0
BITMAP
A0
C0
A0
C0
80
80
80
ENDCHAR
STARTCHAR RUNIC
ENCODING 5794
SWIDTH 545 0
DWIDTH 6 0
BBX 4 7 1 0
BITMAP
C0
A0
A0
90
90
90
90
ENDCHAR
STARTCHAR RUNIC
ENCODING 5795
SWIDTH 545 0
DWIDTH 6 0
BBX 5 7 0 0
BITMAP
20
50
88
88
A8
A8
A8
ENDCHAR
STARTCHAR RUNIC
ENCODING 5798
SWIDTH 545 0
DWIDTH 6 0
BBX 3 7 2 0
BITMAP
80
80
C0
A0
C0
80
80
ENDCHAR
STARTCHAR RUNIC
ENCODING 5801
SWIDTH 545 0
DWIDTH 6 0
BBX 5 7 0 0
BITMAP
88
D0
A8
D0
A0
80
80
ENDCHAR
STARTCHAR RUNIC
ENCODING 5802
SWIDTH 545 0
DWIDTH 6 0
BBX 5 7 0 0
BITMAP
88
D0
A0
C0
A0
80
80
ENDCHAR
STARTCHAR RUNIC
ENCODING 5803
SWIDTH 545 0
DWIDTH 6 0
BBX 3 7 2 0
BITMAP
80
C0
A0
C0
A0
80
80
ENDCHAR
STARTCHAR RUNIC
ENCODING 5804
SWIDTH 545 0
DWIDTH 6 0
BBX 1 1 4 -2
BITMAP
00
ENDCHAR
STARTCHAR RUNIC
ENCODING 5809
SWIDTH 545 0
DWIDTH 6 0
BBX 4 7 1 0
BITMAP
C0
A0
90
A0
C0
A0
80
ENDCHAR
STARTCHAR RUNIC
ENCODING 5811
SWIDTH 545 0
DWIDTH 6 0
BBX 4 7 1 0
BITMAP
80
80
C0
A0
A0
90
90
ENDCHAR
STARTCHAR RUNIC
ENCODING 5815
SWIDTH 545 0
DWIDTH 6 0
BBX 5 7 0 0
BITMAP
88
50
50
20
50
50
88
ENDCHAR
STARTCHAR RUNIC
ENCODING 5816
SWIDTH 545 0
DWIDTH 6 0
BBX 5 7 0 0
BITMAP
88
70
50
A8
50
70
88
ENDCHAR
STARTCHAR RUNIC
ENCODING 5817
SWIDTH 545 0
DWIDTH 6 0
BBX 4 7 1 0
BITMAP
C0
A0
90
A0
C0
80
80
ENDCHAR
STARTCHAR RUNIC
ENCODING 5819
SWIDTH 545 0
DWIDTH 6 0
BBX 5 7 0 0
BITMAP
88
88
C8
A8
D8
A8
98
ENDCHAR
STARTCHAR RUNIC
ENCODING 5822
SWIDTH 545 0
DWIDTH 6 0
BBX 5 7 0 0
BITMAP
20
A0
60
30
28
20
20
ENDCHAR
STARTCHAR RUNIC
ENCODING 5825
SWIDTH 545 0
DWIDTH 6 0
BBX 1 7 2 0
BITMAP
80
80
80
80
80
80
80
ENDCHAR
STARTCHAR RUNIC
ENCODING 5828
SWIDTH 545 0
DWIDTH 6 0
BBX 5 7 0 0
BITMAP
20
20
70
A8
70
20
20
ENDCHAR
STARTCHAR RUNIC
ENCODING 5831
SWIDTH 545 0
DWIDTH 6 0
BBX 5 7 0 0
BITMAP
20
30
28
20
A0
60
20
ENDCHAR
STARTCHAR RUNIC
ENCODING 5832
SWIDTH 545 0
DWIDTH 6 0
BBX 5 7 0 0
BITMAP
88
D0
A0
80
A0
D0
88
ENDCHAR
STARTCHAR RUNIC
ENCODING 5833
SWIDTH 545 0
DWIDTH 6 0
BBX 5 7 0 0
BITMAP
A8
A8
A8
70
20
20
20
ENDCHAR
STARTCHAR RUNIC
ENCODING 5835
SWIDTH 545 0
DWIDTH 6 0
BBX 5 7 0 0
BITMAP
80
88
98
A8
C8
88
08
ENDCHAR
STARTCHAR RUNIC
ENCODING 5839
SWIDTH 545 0
DWIDTH 6 0
BBX 5 7 0 0
BITMAP
20
70
A8
20
20
20
20
ENDCHAR
STARTCHAR RUNIC
ENCODING 5842
SWIDTH 545 0
DWIDTH 6 0
BBX 4 7 1 0
BITMAP
C0
A0
90
E0
90
A0
C0
ENDCHAR
STARTCHAR RUNIC
ENCODING 5846
SWIDTH 545 0
DWIDTH 6 0
BBX 5 7 0 0
BITMAP
88
D8
A8
88
88
88
88
ENDCHAR
STARTCHAR RUNIC
ENCODING 5847
SWIDTH 545 0
DWIDTH 6 0
BBX 5 7 0 0
BITMAP
88
D8
A8
D8
88
88
88
ENDCHAR
STARTCHAR RUNIC
ENCODING 5850
SWIDTH 545 0
DWIDTH 6 0
BBX 3 7 2 0
BITMAP
80
C0
A0
80
80
80
80
ENDCHAR
STARTCHAR RUNIC
ENCODING 5853
SWIDTH 545 0
DWIDTH 6 0
BBX 5 7 0 0
BITMAP
88
50
20
50
20
50
88
ENDCHAR
STARTCHAR RUNIC
ENCODING 5854
SWIDTH 545 0
DWIDTH 6 0
BBX 5 7 0 0
BITMAP
88
88
D8
A8
D8
88
88
ENDCHAR
STARTCHAR RUNIC
ENCODING 5855
SWIDTH 545 0
DWIDTH 6 0
BBX 5 7 0 0
BITMAP
20
50
88
50
20
50
88
ENDCHAR
STARTCHAR RUNIC
ENCODING 5856
SWIDTH 545 0
DWIDTH 6 0
BBX 5 7 0 0
BITMAP
A8
70
20
20
20
20
20
ENDCHAR
STARTCHAR RUNIC
ENCODING 5857
SWIDTH 545 0
DWIDTH 6 0
BBX 5 7 0 0
BITMAP
A8
70
20
70
A8
20
20
ENDCHAR
STARTCHAR RUNIC
ENCODING 5858
SWIDTH 545 0
DWIDTH 6 0
BBX 5 7 0 0
BITMAP
28
30
20
20
20
60
A0
ENDCHAR
STARTCHAR RUNIC
ENCODING 5859
SWIDTH 545 0
DWIDTH 6 0
BBX 5 7 0 0
BITMAP
20
20
20
70
A8
A8
A8
ENDCHAR
STARTCHAR RUNIC
ENCODING 5861
SWIDTH 545 0
DWIDTH 6 0
BBX 5 7 0 0
BITMAP
88
D8
A8
88
A8
D8
88
ENDCHAR
STARTCHAR RUNIC
ENCODING 5867
SWIDTH 545 0
DWIDTH 6 0
BBX 1 1 2 3
BITMAP
80
ENDCHAR
STARTCHAR RUNIC
ENCODING 5868
SWIDTH 545 0
DWIDTH 6 0
BBX 1 3 2 2
BITMAP
80
00
80
ENDCHAR
STARTCHAR RUNIC
ENCODING 5869
SWIDTH 545 0
DWIDTH 6 0
BBX 3 3 1 2
BITMAP
A0
40
A0
ENDCHAR
STARTCHAR LATIN
ENCODING 7682
SWIDTH 545 0
DWIDTH 6 0
BBX 5 8 0 0
BITMAP
20
00
F0
88
F0
88
88
F0
ENDCHAR
STARTCHAR LATIN
ENCODING 7683
SWIDTH 545 0
DWIDTH 6 0
BBX 5 7 0 0
BITMAP
90
80
B0
C8
88
C8
B0
ENDCHAR
STARTCHAR LATIN
ENCODING 7684
SWIDTH 545 0
DWIDTH 6 0
BBX 1 1 4 -2
BITMAP
00
ENDCHAR
STARTCHAR LATIN
ENCODING 7690
SWIDTH 545 0
DWIDTH 6 0
BBX 5 8 0 0
BITMAP
20
00
F0
88
88
88
88
F0
ENDCHAR
STARTCHAR LATIN
ENCODING 7691
SWIDTH 545 0
DWIDTH 6 0
BBX 5 8 0 0
BITMAP
20
08
08
68
98
88
98
68
ENDCHAR
STARTCHAR LATIN
ENCODING 7710
SWIDTH 545 0
DWIDTH 6 0
BBX 5 8 0 0
BITMAP
20
00
F8
80
F0
80
80
80
ENDCHAR
STARTCHAR LATIN
ENCODING 7711
SWIDTH 545 0
DWIDTH 6 0
BBX 5 8 0 0
BITMAP
20
00
30
48
40
F0
40
40
ENDCHAR
STARTCHAR LATIN
ENCODING 7744
SWIDTH 545 0
DWIDTH 6 0
BBX 5 8 0 0
BITMAP
20
88
88
D8
A8
88
88
88
ENDCHAR
STARTCHAR LATIN
ENCODING 7745
SWIDTH 545 0
DWIDTH 6 0
BBX 5 7 0 0
BITMAP
20
00
D0
A8
A8
A8
88
ENDCHAR
STARTCHAR LATIN
ENCODING 7766
SWIDTH 545 0
DWIDTH 6 0
BBX 5 8 0 0
BITMAP
20
00
F0
88
88
F0
80
80
ENDCHAR
STARTCHAR LATIN
ENCODING 7767
SWIDTH 545 0
DWIDTH 6 0
BBX 5 9 0 -2
BITMAP
20
00
B0
C8
88
C8
B0
80
80
ENDCHAR
STARTCHAR LATIN
ENCODING 7776
SWIDTH 545 0
DWIDTH 6 0
BBX 5 8 0 0
BITMAP
20
00
70
80
70
08
88
70
ENDCHAR
STARTCHAR LATIN
ENCODING 7777
SWIDTH 545 0
DWIDTH 6 0
BBX 5 7 0 0
BITMAP
20
00
70
80
70
08
F0
ENDCHAR
STARTCHAR LATIN
ENCODING 7786
SWIDTH 545 0
DWIDTH 6 0
BBX 5 8 0 0
BITMAP
20
00
F8
20
20
20
20
20
ENDCHAR
STARTCHAR LATIN
ENCODING 7787
SWIDTH 545 0
DWIDTH 6 0
BBX 5 8 0 0
BITMAP
40
00
40
F0
40
40
48
30
ENDCHAR
STARTCHAR LATIN
ENCODING 7808
SWIDTH 545 0
DWIDTH 6 0
BBX 5 8 0 0
BITMAP
40
20
88
88
A8
A8
D8
88
ENDCHAR
STARTCHAR LATIN
ENCODING 7809
SWIDTH 545 0
DWIDTH 6 0
BBX 5 7 0 0
BITMAP
40
20
88
88
A8
A8
50
ENDCHAR
STARTCHAR LATIN
ENCODING 7810
SWIDTH 545 0
DWIDTH 6 0
BBX 5 8 0 0
BITMAP
10
20
88
88
A8
A8
D8
88
ENDCHAR
STARTCHAR LATIN
ENCODING 7811
SWIDTH 545 0
DWIDTH 6 0
BBX 5 7 0 0
BITMAP
10
20
88
88
A8
A8
50
ENDCHAR
STARTCHAR LATIN
ENCODING 7812
SWIDTH 545 0
DWIDTH 6 0
BBX 5 8 0 0
BITMAP
50
00
88
88
A8
A8
D8
88
ENDCHAR
STARTCHAR LATIN
ENCODING 7813
SWIDTH 545 0
DWIDTH 6 0
BBX 5 7 0 0
BITMAP
50
00
88
88
A8
A8
50
ENDCHAR
STARTCHAR LATIN
ENCODING 7922
SWIDTH 545 0
DWIDTH 6 0
BBX 5 8 0 0
BITMAP
40
20
88
50
20
20
20
20
ENDCHAR
STARTCHAR LATIN
ENCODING 7923
SWIDTH 545 0
DWIDTH 6 0
BBX 5 10 0 -2
BITMAP
40
20
00
88
88
98
68
08
88
70
ENDCHAR
STARTCHAR GREEK
ENCODING 7936
SWIDTH 545 0
DWIDTH 6 0
BBX 5 8 0 0
BITMAP
30
10
20
70
88
88
98
68
ENDCHAR
STARTCHAR GREEK
ENCODING 7937
SWIDTH 545 0
DWIDTH 6 0
BBX 5 8 0 0
BITMAP
30
20
10
70
88
88
98
68
ENDCHAR
STARTCHAR GREEK
ENCODING 7938
SWIDTH 545 0
DWIDTH 6 0
BBX 5 8 0 0
BITMAP
70
28
40
70
88
88
98
68
ENDCHAR
STARTCHAR GREEK
ENCODING 7939
SWIDTH 545 0
DWIDTH 6 0
BBX 5 8 0 0
BITMAP
70
48
20
70
88
88
98
68
ENDCHAR
STARTCHAR GREEK
ENCODING 7940
SWIDTH 545 0
DWIDTH 6 0
BBX 5 8 0 0
BITMAP
68
30
40
70
88
88
98
68
ENDCHAR
STARTCHAR GREEK
ENCODING 7941
SWIDTH 545 0
DWIDTH 6 0
BBX 5 8 0 0
BITMAP
68
50
20
70
88
88
98
68
ENDCHAR
STARTCHAR GREEK
ENCODING 7942
SWIDTH 545 0
DWIDTH 6 0
BBX 5 8 0 0
BITMAP
78
10
20
70
88
88
98
68
ENDCHAR
STARTCHAR GREEK
ENCODING 7943
SWIDTH 545 0
DWIDTH 6 0
BBX 5 8 0 0
BITMAP
78
20
10
70
88
88
98
68
ENDCHAR
STARTCHAR GREEK
ENCODING 7944
SWIDTH 545 0
DWIDTH 6 0
BBX 6 7 0 0
BITMAP
D8
64
A4
24
3C
24
24
ENDCHAR
STARTCHAR GREEK
ENCODING 7945
SWIDTH 545 0
DWIDTH 6 0
BBX 6 7 0 0
BITMAP
D8
A4
64
24
3C
24
24
ENDCHAR
STARTCHAR GREEK
ENCODING 7946
SWIDTH 545 0
DWIDTH 6 0
BBX 6 7 0 0
BITMAP
D8
64
A4
A4
7C
24
24
ENDCHAR
STARTCHAR GREEK
ENCODING 7947
SWIDTH 545 0
DWIDTH 6 0
BBX 6 7 0 0
BITMAP
D8
A4
64
A4
7C
24
24
ENDCHAR
STARTCHAR GREEK
ENCODING 7948
SWIDTH 545 0
DWIDTH 6 0
BBX 6 7 0 0
BITMAP
D8
64
A4
64
BC
24
24
ENDCHAR
STARTCHAR GREEK
ENCODING 7949
SWIDTH 545 0
DWIDTH 6 0
BBX 6 7 0 0
BITMAP
D8
A4
64
64
BC
24
24
ENDCHAR
STARTCHAR GREEK
ENCODING 7950
SWIDTH 545 0
DWIDTH 6 0
BBX 6 7 0 0
BITMAP
D8
24
E4
64
BC
24
24
ENDCHAR
STARTCHAR GREEK
ENCODING 7951
SWIDTH 545 0
DWIDTH 6 0
BBX 6 7 0 0
BITMAP
D8
24
E4
A4
7C
24
24
ENDCHAR
STARTCHAR GREEK
ENCODING 7952
SWIDTH 545 0
DWIDTH 6 0
BBX 5 8 0 0
BITMAP
30
10
20
70
88
60
88
70
ENDCHAR
STARTCHAR GREEK
ENCODING 7953
SWIDTH 545 0
DWIDTH 6 0
BBX 5 8 0 0
BITMAP
30
20
10
70
88
60
88
70
ENDCHAR
STARTCHAR GREEK
ENCODING 7954
SWIDTH 545 0
DWIDTH 6 0
BBX 5 8 0 0
BITMAP
70
28
40
70
88
60
88
70
ENDCHAR
STARTCHAR GREEK
ENCODING 7955
SWIDTH 545 0
DWIDTH 6 0
BBX 5 8 0 0
BITMAP
70
48
20
70
88
60
88
70
ENDCHAR
STARTCHAR GREEK
ENCODING 7956
SWIDTH 545 0
DWIDTH 6 0
BBX 5 8 0 0
BITMAP
68
30
40
70
88
60
88
70
ENDCHAR
STARTCHAR GREEK
ENCODING 7957
SWIDTH 545 0
DWIDTH 6 0
BBX 5 8 0 0
BITMAP
68
50
20
70
88
60
88
70
ENDCHAR
STARTCHAR GREEK
ENCODING 7960
SWIDTH 545 0
DWIDTH 6 0
BBX 6 7 0 0
BITMAP
FC
60
A0
38
20
20
3C
ENDCHAR
STARTCHAR GREEK
ENCODING 7961
SWIDTH 545 0
DWIDTH 6 0
BBX 6 7 0 0
BITMAP
FC
A0
60
38
20
20
3C
ENDCHAR
STARTCHAR GREEK
ENCODING 7962
SWIDTH 545 0
DWIDTH 6 0
BBX 6 7 0 0
BITMAP
FC
60
A0
B8
60
20
3C
ENDCHAR
STARTCHAR GREEK
ENCODING 7963
SWIDTH 545 0
DWIDTH 6 0
BBX 6 7 0 0
BITMAP
FC
A0
60
B8
60
20
3C
ENDCHAR
STARTCHAR GREEK
ENCODING 7964
SWIDTH 545 0
DWIDTH 6 0
BBX 6 7 0 0
BITMAP
FC
60
A0
78
A0
20
3C
ENDCHAR
STARTCHAR GREEK
ENCODING 7965
SWIDTH 545 0
DWIDTH 6 0
BBX 6 7 0 0
BITMAP
FC
A0
60
78
A0
20
3C
ENDCHAR
STARTCHAR GREEK
ENCODING 7968
SWIDTH 545 0
DWIDTH 6 0
BBX 5 10 0 -2
BITMAP
30
10
20
B0
C8
88
88
88
08
08
ENDCHAR
STARTCHAR GREEK
ENCODING 7969
SWIDTH 545 0
DWIDTH 6 0
BBX 5 10 0 -2
BITMAP
30
20
10
B0
C8
88
88
88
08
08
ENDCHAR
STARTCHAR GREEK
ENCODING 7970
SWIDTH 545 0
DWIDTH 6 0
BBX 5 10 0 -2
BITMAP
70
28
40
B0
C8
88
88
88
08
08
ENDCHAR
STARTCHAR GREEK
ENCODING 7971
SWIDTH 545 0
DWIDTH 6 0
BBX 5 10 0 -2
BITMAP
70
48
20
B0
C8
88
88
88
08
08
ENDCHAR
STARTCHAR GREEK
ENCODING 7972
SWIDTH 545 0
DWIDTH 6 0
BBX 5 10 0 -2
BITMAP
68
30
40
B0
C8
88
88
88
08
08
ENDCHAR
STARTCHAR GREEK
ENCODING 7973
SWIDTH 545 0
DWIDTH 6 0
BBX 5 10 0 -2
BITMAP
68
50
20
B0
C8
88
88
88
08
08
ENDCHAR
STARTCHAR GREEK
ENCODING 7974
SWIDTH 545 0
DWIDTH 6 0
BBX 5 10 0 -2
BITMAP
78
10
20
B0
C8
88
88
88
08
08
ENDCHAR
STARTCHAR GREEK
ENCODING 7975
SWIDTH 545 0
DWIDTH 6 0
BBX 5 10 0 -2
BITMAP
78
20
10
B0
C8
88
88
88
08
08
ENDCHAR
STARTCHAR GREEK
ENCODING 7976
SWIDTH 545 0
DWIDTH 6 0
BBX 6 7 0 0
BITMAP
E4
64
A4
3C
24
24
24
ENDCHAR
STARTCHAR GREEK
ENCODING 7977
SWIDTH 545 0
DWIDTH 6 0
BBX 6 7 0 0
BITMAP
E4
A4
64
3C
24
24
24
ENDCHAR
STARTCHAR GREEK
ENCODING 7978
SWIDTH 545 0
DWIDTH 6 0
BBX 6 7 0 0
BITMAP
E4
64
A4
BC
64
24
24
ENDCHAR
STARTCHAR GREEK
ENCODING 7979
SWIDTH 545 0
DWIDTH 6 0
BBX 6 7 0 0
BITMAP
E4
A4
64
BC
64
24
24
ENDCHAR
STARTCHAR GREEK
ENCODING 7980
SWIDTH 545 0
DWIDTH 6 0
BBX 6 7 0 0
BITMAP
E4
64
A4
7C
A4
24
24
ENDCHAR
STARTCHAR GREEK
ENCODING 7981
SWIDTH 545 0
DWIDTH 6 0
BBX 6 7 0 0
BITMAP
E4
A4
64
7C
A4
24
24
ENDCHAR
STARTCHAR GREEK
ENCODING 7982
SWIDTH 545 0
DWIDTH 6 0
BBX 6 7 0 0
BITMAP
E4
24
E4
7C
A4
24
24
ENDCHAR
STARTCHAR GREEK
ENCODING 7983
SWIDTH 545 0
DWIDTH 6 0
BBX 6 7 0 0
BITMAP
E4
24
E4
BC
64
24
24
ENDCHAR
STARTCHAR GREEK
ENCODING 7984
SWIDTH 545 0
DWIDTH 6 0
BBX 3 8 1 0
BITMAP
C0
40
80
80
80
80
A0
40
ENDCHAR
STARTCHAR GREEK
ENCODING 7985
SWIDTH 545 0
DWIDTH 6 0
BBX 3 8 1 0
BITMAP
C0
80
40
80
80
80
A0
40
ENDCHAR
STARTCHAR GREEK
ENCODING 7986
SWIDTH 545 0
DWIDTH 6 0
BBX 4 8 1 0
BITMAP
E0
50
80
40
40
40
50
20
ENDCHAR
STARTCHAR GREEK
ENCODING 7987
SWIDTH 545 0
DWIDTH 6 0
BBX 4 8 1 0
BITMAP
E0
90
40
40
40
40
50
20
ENDCHAR
STARTCHAR GREEK
ENCODING 7988
SWIDTH 545 0
DWIDTH 6 0
BBX 4 8 1 0
BITMAP
D0
60
80
40
40
40
50
20
ENDCHAR
STARTCHAR GREEK
ENCODING 7989
SWIDTH 545 0
DWIDTH 6 0
BBX 4 8 1 0
BITMAP
D0
A0
40
40
40
40
50
20
ENDCHAR
STARTCHAR GREEK
ENCODING 7990
SWIDTH 545 0
DWIDTH 6 0
BBX 4 8 1 0
BITMAP
F0
20
40
40
40
40
50
20
ENDCHAR
STARTCHAR GREEK
ENCODING 7991
SWIDTH 545 0
DWIDTH 6 0
BBX 4 8 1 0
BITMAP
F0
40
20
40
40
40
50
20
ENDCHAR
STARTCHAR GREEK
ENCODING 7992
SWIDTH 545 0
DWIDTH 6 0
BBX 6 7 0 0
BITMAP
DC
48
88
08
08
08
1C
ENDCHAR
STARTCHAR GREEK
ENCODING 7993
SWIDTH 545 0
DWIDTH 6 0
BBX 6 7 0 0
BITMAP
DC
88
48
08
08
08
1C
ENDCHAR
STARTCHAR GREEK
ENCODING 7994
SWIDTH 545 0
DWIDTH 6 0
BBX 6 7 0 0
BITMAP
DC
48
88
88
48
08
1C
ENDCHAR
STARTCHAR GREEK
ENCODING 7995
SWIDTH 545 0
DWIDTH 6 0
BBX 6 7 0 0
BITMAP
DC
88
48
88
48
08
1C
ENDCHAR
STARTCHAR GREEK
ENCODING 7996
SWIDTH 545 0
DWIDTH 6 0
BBX 6 7 0 0
BITMAP
DC
48
88
48
88
08
1C
ENDCHAR
STARTCHAR GREEK
ENCODING 7997
SWIDTH 545 0
DWIDTH 6 0
BBX 6 7 0 0
BITMAP
DC
88
48
48
88
08
1C
ENDCHAR
STARTCHAR GREEK
ENCODING 7998
SWIDTH 545 0
DWIDTH 6 0
BBX 6 7 0 0
BITMAP
DC
08
C8
48
88
08
1C
ENDCHAR
STARTCHAR GREEK
ENCODING 7999
SWIDTH 545 0
DWIDTH 6 0
BBX 6 7 0 0
BITMAP
DC
08
C8
88
48
08
1C
ENDCHAR
STARTCHAR GREEK
ENCODING 8000
SWIDTH 545 0
DWIDTH 6 0
BBX 5 8 0 0
BITMAP
30
10
20
70
88
88
88
70
ENDCHAR
STARTCHAR GREEK
ENCODING 8001
SWIDTH 545 0
DWIDTH 6 0
BBX 5 8 0 0
BITMAP
30
20
10
70
88
88
88
70
ENDCHAR
STARTCHAR GREEK
ENCODING 8002
SWIDTH 545 0
DWIDTH 6 0
BBX 5 8 0 0
BITMAP
70
28
40
70
88
88
88
70
ENDCHAR
STARTCHAR GREEK
ENCODING 8003
SWIDTH 545 0
DWIDTH 6 0
BBX 5 8 0 0
BITMAP
70
48
20
70
88
88
88
70
ENDCHAR
STARTCHAR GREEK
ENCODING 8004
SWIDTH 545 0
DWIDTH 6 0
BBX 5 8 0 0
BITMAP
68
30
40
70
88
88
88
70
ENDCHAR
STARTCHAR GREEK
ENCODING 8005
SWIDTH 545 0
DWIDTH 6 0
BBX 5 8 0 0
BITMAP
68
50
20
70
88
88
88
70
ENDCHAR
STARTCHAR GREEK
ENCODING 8008
SWIDTH 545 0
DWIDTH 6 0
BBX 6 7 0 0
BITMAP
D8
64
A4
24
24
24
18
ENDCHAR
STARTCHAR GREEK
ENCODING 8009
SWIDTH 545 0
DWIDTH 6 0
BBX 6 7 0 0
BITMAP
D8
A4
64
24
24
24
18
ENDCHAR
STARTCHAR GREEK
ENCODING 8010
SWIDTH 545 0
DWIDTH 6 0
BBX 6 7 0 0
BITMAP
D8
64
A4
A4
64
24
18
ENDCHAR
STARTCHAR GREEK
ENCODING 8011
SWIDTH 545 0
DWIDTH 6 0
BBX 6 7 0 0
BITMAP
D8
A4
64
A4
64
24
18
ENDCHAR
STARTCHAR GREEK
ENCODING 8012
SWIDTH 545 0
DWIDTH 6 0
BBX 6 7 0 0
BITMAP
D8
64
A4
64
A4
24
18
ENDCHAR
STARTCHAR GREEK
ENCODING 8013
SWIDTH 545 0
DWIDTH 6 0
BBX 6 7 0 0
BITMAP
D8
A4
64
64
A4
24
18
ENDCHAR
STARTCHAR GREEK
ENCODING 8016
SWIDTH 545 0
DWIDTH 6 0
BBX 5 8 0 0
BITMAP
30
10
20
88
88
88
88
70
ENDCHAR
STARTCHAR GREEK
ENCODING 8017
SWIDTH 545 0
DWIDTH 6 0
BBX 5 8 0 0
BITMAP
30
20
10
88
88
88
88
70
ENDCHAR
STARTCHAR GREEK
ENCODING 8018
SWIDTH 545 0
DWIDTH 6 0
BBX 5 8 0 0
BITMAP
70
28
40
88
88
88
88
70
ENDCHAR
STARTCHAR GREEK
ENCODING 8019
SWIDTH 545 0
DWIDTH 6 0
BBX 5 8 0 0
BITMAP
70
48
20
88
88
88
88
70
ENDCHAR
STARTCHAR GREEK
ENCODING 8020
SWIDTH 545 0
DWIDTH 6 0
BBX 5 8 0 0
BITMAP
68
30
40
88
88
88
88
70
ENDCHAR
STARTCHAR GREEK
ENCODING 8021
SWIDTH 545 0
DWIDTH 6 0
BBX 5 8 0 0
BITMAP
68
50
20
88
88
88
88
70
ENDCHAR
STARTCHAR GREEK
ENCODING 8022
SWIDTH 545 0
DWIDTH 6 0
BBX 5 8 0 0
BITMAP
78
10
20
88
88
88
88
70
ENDCHAR
STARTCHAR GREEK
ENCODING 8023
SWIDTH 545 0
DWIDTH 6 0
BBX 5 8 0 0
BITMAP
78
20
10
88
88
88
88
70
ENDCHAR
STARTCHAR GREEK
ENCODING 8025
SWIDTH 545 0
DWIDTH 6 0
BBX 6 7 0 0
BITMAP
D4
94
54
08
08
08
08
ENDCHAR
STARTCHAR GREEK
ENCODING 8027
SWIDTH 545 0
DWIDTH 6 0
BBX 6 7 0 0
BITMAP
D4
94
54
88
48
08
08
ENDCHAR
STARTCHAR GREEK
ENCODING 8029
SWIDTH 545 0
DWIDTH 6 0
BBX 6 7 0 0
BITMAP
D4
94
54
48
88
08
08
ENDCHAR
STARTCHAR GREEK
ENCODING 8031
SWIDTH 545 0
DWIDTH 6 0
BBX 6 7 0 0
BITMAP
D4
14
D4
88
48
08
08
ENDCHAR
STARTCHAR GREEK
ENCODING 8032
SWIDTH 545 0
DWIDTH 6 0
BBX 5 8 0 0
BITMAP
30
10
20
88
A8
A8
A8
50
ENDCHAR
STARTCHAR GREEK
ENCODING 8033
SWIDTH 545 0
DWIDTH 6 0
BBX 5 8 0 0
BITMAP
30
20
10
88
A8
A8
A8
50
ENDCHAR
STARTCHAR GREEK
ENCODING 8034
SWIDTH 545 0
DWIDTH 6 0
BBX 5 8 0 0
BITMAP
70
28
40
88
A8
A8
A8
50
ENDCHAR
STARTCHAR GREEK
ENCODING 8035
SWIDTH 545 0
DWIDTH 6 0
BBX 5 8 0 0
BITMAP
70
48
20
88
A8
A8
A8
50
ENDCHAR
STARTCHAR GREEK
ENCODING 8036
SWIDTH 545 0
DWIDTH 6 0
BBX 5 8 0 0
BITMAP
68
30
40
88
A8
A8
A8
50
ENDCHAR
STARTCHAR GREEK
ENCODING 8037
SWIDTH 545 0
DWIDTH 6 0
BBX 5 8 0 0
BITMAP
68
50
20
88
A8
A8
A8
50
ENDCHAR
STARTCHAR GREEK
ENCODING 8038
SWIDTH 545 0
DWIDTH 6 0
BBX 5 8 0 0
BITMAP
78
10
20
88
A8
A8
A8
50
ENDCHAR
STARTCHAR GREEK
ENCODING 8039
SWIDTH 545 0
DWIDTH 6 0
BBX 5 8 0 0
BITMAP
78
20
10
88
A8
A8
A8
50
ENDCHAR
STARTCHAR GREEK
ENCODING 8040
SWIDTH 545 0
DWIDTH 6 0
BBX 6 7 0 0
BITMAP
D8
64
A4
24
24
18
3C
ENDCHAR
STARTCHAR GREEK
ENCODING 8041
SWIDTH 545 0
DWIDTH 6 0
BBX 6 7 0 0
BITMAP
D8
A4
64
24
24
18
3C
ENDCHAR
STARTCHAR GREEK
ENCODING 8042
SWIDTH 545 0
DWIDTH 6 0
BBX 6 7 0 0
BITMAP
D8
64
A4
A4
64
18
3C
ENDCHAR
STARTCHAR GREEK
ENCODING 8043
SWIDTH 545 0
DWIDTH 6 0
BBX 6 7 0 0
BITMAP
D8
A4
64
A4
64
18
3C
ENDCHAR
STARTCHAR GREEK
ENCODING 8044
SWIDTH 545 0
DWIDTH 6 0
BBX 6 7 0 0
BITMAP
D8
64
A4
64
A4
18
3C
ENDCHAR
STARTCHAR GREEK
ENCODING 8045
SWIDTH 545 0
DWIDTH 6 0
BBX 6 7 0 0
BITMAP
D8
A4
64
64
A4
18
3C
ENDCHAR
STARTCHAR GREEK
ENCODING 8046
SWIDTH 545 0
DWIDTH 6 0
BBX 6 7 0 0
BITMAP
D8
24
E4
64
A4
18
3C
ENDCHAR
STARTCHAR GREEK
ENCODING 8047
SWIDTH 545 0
DWIDTH 6 0
BBX 6 7 0 0
BITMAP
D8
24
E4
A4
64
18
3C
ENDCHAR
STARTCHAR GREEK
ENCODING 8048
SWIDTH 545 0
DWIDTH 6 0
BBX 5 8 0 0
BITMAP
40
20
00
70
88
88
98
68
ENDCHAR
STARTCHAR GREEK
ENCODING 8049
SWIDTH 545 0
DWIDTH 6 0
BBX 5 8 0 0
BITMAP
10
20
00
70
88
88
98
68
ENDCHAR
STARTCHAR GREEK
ENCODING 8050
SWIDTH 545 0
DWIDTH 6 0
BBX 5 8 0 0
BITMAP
40
20
00
70
88
60
88
70
ENDCHAR
STARTCHAR GREEK
ENCODING 8051
SWIDTH 545 0
DWIDTH 6 0
BBX 5 8 0 0
BITMAP
10
20
00
70
88
60
88
70
ENDCHAR
STARTCHAR GREEK
ENCODING 8052
SWIDTH 545 0
DWIDTH 6 0
BBX 5 10 0 -2
BITMAP
40
20
00
B0
C8
88
88
88
08
08
ENDCHAR
STARTCHAR GREEK
ENCODING 8053
SWIDTH 545 0
DWIDTH 6 0
BBX 5 10 0 -2
BITMAP
10
20
00
B0
C8
88
88
88
08
08
ENDCHAR
STARTCHAR GREEK
ENCODING 8054
SWIDTH 545 0
DWIDTH 6 0
BBX 4 8 1 0
BITMAP
80
40
00
40
40
40
50
20
ENDCHAR
STARTCHAR GREEK
ENCODING 8055
SWIDTH 545 0
DWIDTH 6 0
BBX 3 8 1 0
BITMAP
40
80
00
80
80
80
A0
40
ENDCHAR
STARTCHAR GREEK
ENCODING 8056
SWIDTH 545 0
DWIDTH 6 0
BBX 5 8 0 0
BITMAP
40
20
00
70
88
88
88
70
ENDCHAR
STARTCHAR GREEK
ENCODING 8057
SWIDTH 545 0
DWIDTH 6 0
BBX 5 8 0 0
BITMAP
10
20
00
70
88
88
88
70
ENDCHAR
STARTCHAR GREEK
ENCODING 8058
SWIDTH 545 0
DWIDTH 6 0
BBX 5 8 0 0
BITMAP
40
20
00
88
88
88
88
70
ENDCHAR
STARTCHAR GREEK
ENCODING 8059
SWIDTH 545 0
DWIDTH 6 0
BBX 5 8 0 0
BITMAP
10
20
00
88
88
88
88
70
ENDCHAR
STARTCHAR GREEK
ENCODING 8060
SWIDTH 545 0
DWIDTH 6 0
BBX 5 8 0 0
BITMAP
40
20
00
88
A8
A8
A8
50
ENDCHAR
STARTCHAR GREEK
ENCODING 8061
SWIDTH 545 0
DWIDTH 6 0
BBX 5 8 0 0
BITMAP
10
20
00
88
A8
A8
A8
50
ENDCHAR
STARTCHAR GREEK
ENCODING 8064
SWIDTH 545 0
DWIDTH 6 0
BBX 5 10 0 -2
BITMAP
30
10
20
70
88
88
98
68
00
20
ENDCHAR
STARTCHAR GREEK
ENCODING 8065
SWIDTH 545 0
DWIDTH 6 0
BBX 5 10 0 -2
BITMAP
30
20
10
70
88
88
98
68
00
20
ENDCHAR
STARTCHAR GREEK
ENCODING 8066
SWIDTH 545 0
DWIDTH 6 0
BBX 5 10 0 -2
BITMAP
70
28
40
70
88
88
98
68
00
20
ENDCHAR
STARTCHAR GREEK
ENCODING 8067
SWIDTH 545 0
DWIDTH 6 0
BBX 5 10 0 -2
BITMAP
70
48
20
70
88
88
98
68
00
20
ENDCHAR
STARTCHAR GREEK
ENCODING 8068
SWIDTH 545 0
DWIDTH 6 0
BBX 5 10 0 -2
BITMAP
68
30
40
70
88
88
98
68
00
20
ENDCHAR
STARTCHAR GREEK
ENCODING 8069
SWIDTH 545 0
DWIDTH 6 0
BBX 5 10 0 -2
BITMAP
68
50
20
70
88
88
98
68
00
20
ENDCHAR
STARTCHAR GREEK
ENCODING 8070
SWIDTH 545 0
DWIDTH 6 0
BBX 5 10 0 -2
BITMAP
78
10
20
70
88
88
98
68
00
20
ENDCHAR
STARTCHAR GREEK
ENCODING 8071
SWIDTH 545 0
DWIDTH 6 0
BBX 5 10 0 -2
BITMAP
78
20
10
70
88
88
98
68
00
20
ENDCHAR
STARTCHAR GREEK
ENCODING 8072
SWIDTH 545 0
DWIDTH 6 0
BBX 6 9 0 -2
BITMAP
D8
64
A4
24
3C
24
24
00
10
ENDCHAR
STARTCHAR GREEK
ENCODING 8073
SWIDTH 545 0
DWIDTH 6 0
BBX 6 9 0 -2
BITMAP
D8
A4
64
24
3C
24
24
00
10
ENDCHAR
STARTCHAR GREEK
ENCODING 8074
SWIDTH 545 0
DWIDTH 6 0
BBX 6 9 0 -2
BITMAP
D8
64
A4
A4
7C
24
24
00
10
ENDCHAR
STARTCHAR GREEK
ENCODING 8075
SWIDTH 545 0
DWIDTH 6 0
BBX 6 9 0 -2
BITMAP
D8
A4
64
A4
7C
24
24
00
10
ENDCHAR
STARTCHAR GREEK
ENCODING 8076
SWIDTH 545 0
DWIDTH 6 0
BBX 6 9 0 -2
BITMAP
D8
64
A4
64
BC
24
24
00
10
ENDCHAR
STARTCHAR GREEK
ENCODING 8077
SWIDTH 545 0
DWIDTH 6 0
BBX 6 9 0 -2
BITMAP
D8
A4
64
64
BC
24
24
00
10
ENDCHAR
STARTCHAR GREEK
ENCODING 8078
SWIDTH 545 0
DWIDTH 6 0
BBX 6 9 0 -2
BITMAP
D8
24
E4
64
BC
24
24
00
10
ENDCHAR
STARTCHAR GREEK
ENCODING 8079
SWIDTH 545 0
DWIDTH 6 0
BBX 6 9 0 -2
BITMAP
D8
24
E4
A4
7C
24
24
00
10
ENDCHAR
STARTCHAR GREEK
ENCODING 8080
SWIDTH 545 0
DWIDTH 6 0
BBX 5 10 0 -2
BITMAP
30
10
20
B0
C8
88
88
88
08
88
ENDCHAR
STARTCHAR GREEK
ENCODING 8081
SWIDTH 545 0
DWIDTH 6 0
BBX 5 10 0 -2
BITMAP
30
20
10
B0
C8
88
88
88
08
88
ENDCHAR
STARTCHAR GREEK
ENCODING 8082
SWIDTH 545 0
DWIDTH 6 0
BBX 5 10 0 -2
BITMAP
70
28
40
B0
C8
88
88
88
08
88
ENDCHAR
STARTCHAR GREEK
ENCODING 8083
SWIDTH 545 0
DWIDTH 6 0
BBX 5 10 0 -2
BITMAP
70
48
20
B0
C8
88
88
88
08
88
ENDCHAR
STARTCHAR GREEK
ENCODING 8084
SWIDTH 545 0
DWIDTH 6 0
BBX 5 10 0 -2
BITMAP
68
30
40
B0
C8
88
88
88
08
88
ENDCHAR
STARTCHAR GREEK
ENCODING 8085
SWIDTH 545 0
DWIDTH 6 0
BBX 5 10 0 -2
BITMAP
68
50
20
B0
C8
88
88
88
08
88
ENDCHAR
STARTCHAR GREEK
ENCODING 8086
SWIDTH 545 0
DWIDTH 6 0
BBX 5 10 0 -2
BITMAP
78
10
20
B0
C8
88
88
88
08
88
ENDCHAR
STARTCHAR GREEK
ENCODING 8087
SWIDTH 545 0
DWIDTH 6 0
BBX 5 10 0 -2
BITMAP
78
20
10
B0
C8
88
88
88
08
88
ENDCHAR
STARTCHAR GREEK
ENCODING 8088
SWIDTH 545 0
DWIDTH 6 0
BBX 6 9 0 -2
BITMAP
E4
64
A4
3C
24
24
24
00
10
ENDCHAR
STARTCHAR GREEK
ENCODING 8089
SWIDTH 545 0
DWIDTH 6 0
BBX 6 9 0 -2
BITMAP
E4
A4
64
3C
24
24
24
00
10
ENDCHAR
STARTCHAR GREEK
ENCODING 8090
SWIDTH 545 0
DWIDTH 6 0
BBX 6 9 0 -2
BITMAP
E4
64
A4
BC
64
24
24
00
10
ENDCHAR
STARTCHAR GREEK
ENCODING 8091
SWIDTH 545 0
DWIDTH 6 0
BBX 6 9 0 -2
BITMAP
E4
A4
64
BC
64
24
24
00
10
ENDCHAR
STARTCHAR GREEK
ENCODING 8092
SWIDTH 545 0
DWIDTH 6 0
BBX 6 9 0 -2
BITMAP
E4
64
A4
7C
A4
24
24
00
10
ENDCHAR
STARTCHAR GREEK
ENCODING 8093
SWIDTH 545 0
DWIDTH 6 0
BBX 6 9 0 -2
BITMAP
E4
A4
64
7C
A4
24
24
00
10
ENDCHAR
STARTCHAR GREEK
ENCODING 8094
SWIDTH 545 0
DWIDTH 6 0
BBX 6 9 0 -2
BITMAP
E4
24
E4
7C
A4
24
24
00
10
ENDCHAR
STARTCHAR GREEK
ENCODING 8095
SWIDTH 545 0
DWIDTH 6 0
BBX 6 9 0 -2
BITMAP
E4
24
E4
BC
64
24
24
00
10
ENDCHAR
STARTCHAR GREEK
ENCODING 8096
SWIDTH 545 0
DWIDTH 6 0
BBX 5 10 0 -2
BITMAP
30
10
20
88
A8
A8
A8
50
00
20
ENDCHAR
STARTCHAR GREEK
ENCODING 8097
SWIDTH 545 0
DWIDTH 6 0
BBX 5 10 0 -2
BITMAP
30
20
10
88
A8
A8
A8
50
00
20
ENDCHAR
STARTCHAR GREEK
ENCODING 8098
SWIDTH 545 0
DWIDTH 6 0
BBX 5 10 0 -2
BITMAP
70
28
40
88
A8
A8
A8
50
00
20
ENDCHAR
STARTCHAR GREEK
ENCODING 8099
SWIDTH 545 0
DWIDTH 6 0
BBX 5 10 0 -2
BITMAP
70
48
20
88
A8
A8
A8
50
00
20
ENDCHAR
STARTCHAR GREEK
ENCODING 8100
SWIDTH 545 0
DWIDTH 6 0
BBX 5 10 0 -2
BITMAP
68
30
40
88
A8
A8
A8
50
00
20
ENDCHAR
STARTCHAR GREEK
ENCODING 8101
SWIDTH 545 0
DWIDTH 6 0
BBX 5 10 0 -2
BITMAP
68
50
20
88
A8
A8
A8
50
00
20
ENDCHAR
STARTCHAR GREEK
ENCODING 8102
SWIDTH 545 0
DWIDTH 6 0
BBX 5 10 0 -2
BITMAP
78
10
20
88
A8
A8
A8
50
00
20
ENDCHAR
STARTCHAR GREEK
ENCODING 8103
SWIDTH 545 0
DWIDTH 6 0
BBX 5 10 0 -2
BITMAP
78
20
10
88
A8
A8
A8
50
00
20
ENDCHAR
STARTCHAR GREEK
ENCODING 8104
SWIDTH 545 0
DWIDTH 6 0
BBX 6 9 0 -2
BITMAP
D8
64
A4
24
24
18
3C
00
10
ENDCHAR
STARTCHAR GREEK
ENCODING 8105
SWIDTH 545 0
DWIDTH 6 0
BBX 6 9 0 -2
BITMAP
D8
A4
64
24
24
18
3C
00
10
ENDCHAR
STARTCHAR GREEK
ENCODING 8106
SWIDTH 545 0
DWIDTH 6 0
BBX 6 9 0 -2
BITMAP
D8
64
A4
A4
64
18
3C
00
10
ENDCHAR
STARTCHAR GREEK
ENCODING 8107
SWIDTH 545 0
DWIDTH 6 0
BBX 6 9 0 -2
BITMAP
D8
A4
64
A4
64
18
3C
00
10
ENDCHAR
STARTCHAR GREEK
ENCODING 8108
SWIDTH 545 0
DWIDTH 6 0
BBX 6 9 0 -2
BITMAP
D8
64
A4
64
A4
18
3C
00
10
ENDCHAR
STARTCHAR GREEK
ENCODING 8109
SWIDTH 545 0
DWIDTH 6 0
BBX 6 9 0 -2
BITMAP
D8
A4
64
64
A4
18
3C
00
10
ENDCHAR
STARTCHAR GREEK
ENCODING 8110
SWIDTH 545 0
DWIDTH 6 0
BBX 6 9 0 -2
BITMAP
D8
24
E4
64
A4
18
3C
00
10
ENDCHAR
STARTCHAR GREEK
ENCODING 8111
SWIDTH 545 0
DWIDTH 6 0
BBX 6 9 0 -2
BITMAP
D8
24
E4
A4
64
18
3C
00
10
ENDCHAR
STARTCHAR GREEK
ENCODING 8112
SWIDTH 545 0
DWIDTH 6 0
BBX 5 8 0 0
BITMAP
88
70
00
70
88
88
98
68
ENDCHAR
STARTCHAR GREEK
ENCODING 8113
SWIDTH 545 0
DWIDTH 6 0
BBX 5 7 0 0
BITMAP
F8
00
70
88
88
98
68
ENDCHAR
STARTCHAR GREEK
ENCODING 8114
SWIDTH 545 0
DWIDTH 6 0
BBX 5 10 0 -2
BITMAP
40
20
00
70
88
88
98
68
00
20
ENDCHAR
STARTCHAR GREEK
ENCODING 8115
SWIDTH 545 0
DWIDTH 6 0
BBX 5 7 0 -2
BITMAP
70
88
88
98
68
00
20
ENDCHAR
STARTCHAR GREEK
ENCODING 8116
SWIDTH 545 0
DWIDTH 6 0
BBX 5 10 0 -2
BITMAP
10
20
00
70
88
88
98
68
00
20
ENDCHAR
STARTCHAR GREEK
ENCODING 8118
SWIDTH 545 0
DWIDTH 6 0
BBX 5 7 0 0
BITMAP
78
00
70
88
88
98
68
ENDCHAR
STARTCHAR GREEK
ENCODING 8119
SWIDTH 545 0
DWIDTH 6 0
BBX 5 9 0 -2
BITMAP
78
00
70
88
88
98
68
00
20
ENDCHAR
STARTCHAR GREEK
ENCODING 8120
SWIDTH 545 0
DWIDTH 6 0
BBX 5 8 0 0
BITMAP
88
70
70
88
88
F8
88
88
ENDCHAR
STARTCHAR GREEK
ENCODING 8121
SWIDTH 545 0
DWIDTH 6 0
BBX 5 8 0 0
BITMAP
F8
00
70
88
88
F8
88
88
ENDCHAR
STARTCHAR GREEK
ENCODING 8122
SWIDTH 545 0
DWIDTH 6 0
BBX 6 7 0 0
BITMAP
98
64
24
24
3C
24
24
ENDCHAR
STARTCHAR GREEK
ENCODING 8123
SWIDTH 545 0
DWIDTH 6 0
BBX 6 7 0 0
BITMAP
58
A4
24
24
3C
24
24
ENDCHAR
STARTCHAR GREEK
ENCODING 8124
SWIDTH 545 0
DWIDTH 6 0
BBX 5 9 0 -2
BITMAP
20
50
88
88
F8
88
88
20
30
ENDCHAR
STARTCHAR GREEK
ENCODING 8125
SWIDTH 545 0
DWIDTH 6 0
BBX 2 3 2 4
BITMAP
C0
40
80
ENDCHAR
STARTCHAR GREEK
ENCODING 8126
SWIDTH 545 0
DWIDTH 6 0
BBX 2 3 2 0
BITMAP
80
80
40
ENDCHAR
STARTCHAR GREEK
ENCODING 8127
SWIDTH 545 0
DWIDTH 6 0
BBX 2 3 2 4
BITMAP
C0
40
80
ENDCHAR
STARTCHAR GREEK
ENCODING 8128
SWIDTH 545 0
DWIDTH 6 0
BBX 4 1 1 6
BITMAP
F0
ENDCHAR
STARTCHAR GREEK
ENCODING 8129
SWIDTH 545 0
DWIDTH 6 0
BBX 5 3 0 4
BITMAP
F8
00
88
ENDCHAR
STARTCHAR GREEK
ENCODING 8130
SWIDTH 545 0
DWIDTH 6 0
BBX 5 10 0 -2
BITMAP
40
20
00
B0
C8
88
88
88
08
88
ENDCHAR
STARTCHAR GREEK
ENCODING 8131
SWIDTH 545 0
DWIDTH 6 0
BBX 5 7 0 -2
BITMAP
B0
C8
88
88
88
08
88
ENDCHAR
STARTCHAR GREEK
ENCODING 8132
SWIDTH 545 0
DWIDTH 6 0
BBX 5 10 0 -2
BITMAP
10
20
00
B0
C8
88
88
88
08
88
ENDCHAR
STARTCHAR GREEK
ENCODING 8134
SWIDTH 545 0
DWIDTH 6 0
BBX 5 9 0 -2
BITMAP
78
00
B0
C8
88
88
88
08
08
ENDCHAR
STARTCHAR GREEK
ENCODING 8135
SWIDTH 545 0
DWIDTH 6 0
BBX 5 9 0 -2
BITMAP
78
00
B0
C8
88
88
88
08
88
ENDCHAR
STARTCHAR GREEK
ENCODING 8136
SWIDTH 545 0
DWIDTH 6 0
BBX 6 7 0 0
BITMAP
BC
60
20
38
20
20
3C
ENDCHAR
STARTCHAR GREEK
ENCODING 8137
SWIDTH 545 0
DWIDTH 6 0
BBX 6 7 0 0
BITMAP
7C
A0
20
38
20
20
3C
ENDCHAR
STARTCHAR GREEK
ENCODING 8138
SWIDTH 545 0
DWIDTH 6 0
BBX 6 7 0 0
BITMAP
A4
64
24
3C
24
24
24
ENDCHAR
STARTCHAR GREEK
ENCODING 8139
SWIDTH 545 0
DWIDTH 6 0
BBX 6 7 0 0
BITMAP
64
A4
24
3C
24
24
24
ENDCHAR
STARTCHAR GREEK
ENCODING 8140
SWIDTH 545 0
DWIDTH 6 0
BBX 5 9 0 -2
BITMAP
88
88
88
F8
88
88
88
20
30
ENDCHAR
STARTCHAR GREEK
ENCODING 8141
SWIDTH 545 0
DWIDTH 6 0
BBX 4 3 1 4
BITMAP
E0
50
80
ENDCHAR
STARTCHAR GREEK
ENCODING 8142
SWIDTH 545 0
DWIDTH 6 0
BBX 4 3 1 4
BITMAP
D0
60
80
ENDCHAR
STARTCHAR GREEK
ENCODING 8143
SWIDTH 545 0
DWIDTH 6 0
BBX 4 3 1 4
BITMAP
F0
20
40
ENDCHAR
STARTCHAR GREEK
ENCODING 8144
SWIDTH 545 0
DWIDTH 6 0
BBX 5 8 0 0
BITMAP
88
70
00
20
20
20
28
10
ENDCHAR
STARTCHAR GREEK
ENCODING 8145
SWIDTH 545 0
DWIDTH 6 0
BBX 5 7 0 0
BITMAP
F8
00
20
20
20
28
10
ENDCHAR
STARTCHAR GREEK
ENCODING 8146
SWIDTH 545 0
DWIDTH 6 0
BBX 5 8 0 0
BITMAP
40
A8
00
20
20
20
28
10
ENDCHAR
STARTCHAR GREEK
ENCODING 8147
SWIDTH 545 0
DWIDTH 6 0
BBX 5 8 0 0
BITMAP
10
A8
00
20
20
20
28
10
ENDCHAR
STARTCHAR GREEK
ENCODING 8150
SWIDTH 545 0
DWIDTH 6 0
BBX 4 7 1 0
BITMAP
F0
00
40
40
40
50
20
ENDCHAR
STARTCHAR GREEK
ENCODING 8151
SWIDTH 545 0
DWIDTH 6 0
BBX 5 8 0 0
BITMAP
F8
00
88
20
20
20
28
10
ENDCHAR
STARTCHAR GREEK
ENCODING 8152
SWIDTH 545 0
DWIDTH 6 0
BBX 5 8 0 0
BITMAP
88
70
70
20
20
20
20
70
ENDCHAR
STARTCHAR GREEK
ENCODING 8153
SWIDTH 545 0
DWIDTH 6 0
BBX 5 8 0 0
BITMAP
F8
00
70
20
20
20
20
70
ENDCHAR
STARTCHAR GREEK
ENCODING 8154
SWIDTH 545 0
DWIDTH 6 0
BBX 6 7 0 0
BITMAP
9C
48
08
08
08
08
1C
ENDCHAR
STARTCHAR GREEK
ENCODING 8155
SWIDTH 545 0
DWIDTH 6 0
BBX 6 7 0 0
BITMAP
5C
88
08
08
08
08
1C
ENDCHAR
STARTCHAR GREEK
ENCODING 8157
SWIDTH 545 0
DWIDTH 6 0
BBX 4 3 1 4
BITMAP
D0
60
80
ENDCHAR
STARTCHAR GREEK
ENCODING 8158
SWIDTH 545 0
DWIDTH 6 0
BBX 4 3 1 4
BITMAP
D0
A0
40
ENDCHAR
STARTCHAR GREEK
ENCODING 8159
SWIDTH 545 0
DWIDTH 6 0
BBX 4 3 1 4
BITMAP
F0
40
20
ENDCHAR
STARTCHAR GREEK
ENCODING 8160
SWIDTH 545 0
DWIDTH 6 0
BBX 5 8 0 0
BITMAP
88
70
00
88
88
88
88
70
ENDCHAR
STARTCHAR GREEK
ENCODING 8161
SWIDTH 545 0
DWIDTH 6 0
BBX 5 7 0 0
BITMAP
F8
00
88
88
88
88
70
ENDCHAR
STARTCHAR GREEK
ENCODING 8162
SWIDTH 545 0
DWIDTH 6 0
BBX 5 8 0 0
BITMAP
40
A8
00
88
88
88
88
70
ENDCHAR
STARTCHAR GREEK
ENCODING 8163
SWIDTH 545 0
DWIDTH 6 0
BBX 5 8 0 0
BITMAP
10
A8
00
88
88
88
88
70
ENDCHAR
STARTCHAR GREEK
ENCODING 8164
SWIDTH 545 0
DWIDTH 6 0
BBX 5 10 0 -2
BITMAP
30
10
20
70
88
88
88
F0
80
80
ENDCHAR
STARTCHAR GREEK
ENCODING 8165
SWIDTH 545 0
DWIDTH 6 0
BBX 5 10 0 -2
BITMAP
30
20
10
70
88
88
88
F0
80
80
ENDCHAR
STARTCHAR GREEK
ENCODING 8166
SWIDTH 545 0
DWIDTH 6 0
BBX 5 7 0 0
BITMAP
78
00
88
88
88
88
70
ENDCHAR
STARTCHAR GREEK
ENCODING 8167
SWIDTH 545 0
DWIDTH 6 0
BBX 5 8 0 0
BITMAP
F8
00
88
00
88
88
88
70
ENDCHAR
STARTCHAR GREEK
ENCODING 8168
SWIDTH 545 0
DWIDTH 6 0
BBX 5 8 0 0
BITMAP
88
70
88
88
50
20
20
20
ENDCHAR
STARTCHAR GREEK
ENCODING 8169
SWIDTH 545 0
DWIDTH 6 0
BBX 5 8 0 0
BITMAP
F8
00
88
88
50
20
20
20
ENDCHAR
STARTCHAR GREEK
ENCODING 8170
SWIDTH 545 0
DWIDTH 6 0
BBX 6 7 0 0
BITMAP
94
54
14
08
08
08
08
ENDCHAR
STARTCHAR GREEK
ENCODING 8171
SWIDTH 545 0
DWIDTH 6 0
BBX 6 7 0 0
BITMAP
54
94
14
08
08
08
08
ENDCHAR
STARTCHAR GREEK
ENCODING 8172
SWIDTH 545 0
DWIDTH 6 0
BBX 6 7 0 0
BITMAP
F8
A4
64
38
20
20
20
ENDCHAR
STARTCHAR GREEK
ENCODING 8173
SWIDTH 545 0
DWIDTH 6 0
BBX 5 2 0 5
BITMAP
40
A8
ENDCHAR
STARTCHAR GREEK
ENCODING 8174
SWIDTH 545 0
DWIDTH 6 0
BBX 5 2 0 5
BITMAP
10
A8
ENDCHAR
STARTCHAR GREEK
ENCODING 8175
SWIDTH 545 0
DWIDTH 6 0
BBX 2 2 2 5
BITMAP
80
40
ENDCHAR
STARTCHAR GREEK
ENCODING 8178
SWIDTH 545 0
DWIDTH 6 0
BBX 5 10 0 -2
BITMAP
40
20
00
88
A8
A8
A8
50
00
20
ENDCHAR
STARTCHAR GREEK
ENCODING 8179
SWIDTH 545 0
DWIDTH 6 0
BBX 5 7 0 -2
BITMAP
88
A8
A8
A8
50
00
20
ENDCHAR
STARTCHAR GREEK
ENCODING 8180
SWIDTH 545 0
DWIDTH 6 0
BBX 5 10 0 -2
BITMAP
10
20
00
88
A8
A8
A8
50
00
20
ENDCHAR
STARTCHAR GREEK
ENCODING 8182
SWIDTH 545 0
DWIDTH 6 0
BBX 5 7 0 0
BITMAP
78
00
88
A8
A8
A8
50
ENDCHAR
STARTCHAR GREEK
ENCODING 8183
SWIDTH 545 0
DWIDTH 6 0
BBX 5 9 0 -2
BITMAP
78
00
88
A8
A8
A8
50
00
20
ENDCHAR
STARTCHAR GREEK
ENCODING 8184
SWIDTH 545 0
DWIDTH 6 0
BBX 6 7 0 0
BITMAP
98
64
24
24
24
24
18
ENDCHAR
STARTCHAR GREEK
ENCODING 8185
SWIDTH 545 0
DWIDTH 6 0
BBX 6 7 0 0
BITMAP
58
A4
24
24
24
24
18
ENDCHAR
STARTCHAR GREEK
ENCODING 8186
SWIDTH 545 0
DWIDTH 6 0
BBX 6 7 0 0
BITMAP
98
64
24
24
24
18
3C
ENDCHAR
STARTCHAR GREEK
ENCODING 8187
SWIDTH 545 0
DWIDTH 6 0
BBX 6 7 0 0
BITMAP
58
A4
24
24
24
18
3C
ENDCHAR
STARTCHAR GREEK
ENCODING 8188
SWIDTH 545 0
DWIDTH 6 0
BBX 5 9 0 -2
BITMAP
70
88
88
88
88
50
D8
20
30
ENDCHAR
STARTCHAR GREEK
ENCODING 8189
SWIDTH 545 0
DWIDTH 6 0
BBX 2 2 2 5
BITMAP
40
80
ENDCHAR
STARTCHAR GREEK
ENCODING 8190
SWIDTH 545 0
DWIDTH 6 0
BBX 2 3 2 4
BITMAP
C0
80
40
ENDCHAR
STARTCHAR HYPHEN
ENCODING 8208
SWIDTH 545 0
DWIDTH 6 0
BBX 4 1 1 3
BITMAP
F0
ENDCHAR
STARTCHAR NON-BREAKING
ENCODING 8209
SWIDTH 545 0
DWIDTH 6 0
BBX 4 1 1 3
BITMAP
F0
ENDCHAR
STARTCHAR FIGURE
ENCODING 8210
SWIDTH 545 0
DWIDTH 6 0
BBX 5 1 0 3
BITMAP
F8
ENDCHAR
STARTCHAR EN
ENCODING 8211
SWIDTH 545 0
DWIDTH 6 0
BBX 5 1 0 3
BITMAP
F8
ENDCHAR
STARTCHAR EM
ENCODING 8212
SWIDTH 545 0
DWIDTH 6 0
BBX 6 1 0 3
BITMAP
FC
ENDCHAR
STARTCHAR HORIZONTAL
ENCODING 8213
SWIDTH 545 0
DWIDTH 6 0
BBX 6 1 0 3
BITMAP
FC
ENDCHAR
STARTCHAR DOUBLE
ENCODING 8214
SWIDTH 545 0
DWIDTH 6 0
BBX 3 8 1 0
BITMAP
A0
A0
A0
A0
A0
A0
A0
A0
ENDCHAR
STARTCHAR DOUBLE
ENCODING 8215
SWIDTH 545 0
DWIDTH 6 0
BBX 6 3 0 -2
BITMAP
FC
00
FC
ENDCHAR
STARTCHAR LEFT
ENCODING 8216
SWIDTH 545 0
DWIDTH 6 0
BBX 2 3 2 4
BITMAP
40
80
C0
ENDCHAR
STARTCHAR RIGHT
ENCODING 8217
SWIDTH 545 0
DWIDTH 6 0
BBX 2 3 2 4
BITMAP
C0
40
80
ENDCHAR
STARTCHAR SINGLE
ENCODING 8218
SWIDTH 545 0
DWIDTH 6 0
BBX 2 3 2 -1
BITMAP
C0
40
80
ENDCHAR
STARTCHAR SINGLE
ENCODING 8219
SWIDTH 545 0
DWIDTH 6 0
BBX 2 3 2 4
BITMAP
C0
80
40
ENDCHAR
STARTCHAR LEFT
ENCODING 8220
SWIDTH 545 0
DWIDTH 6 0
BBX 5 3 0 4
BITMAP
48
90
D8
ENDCHAR
STARTCHAR RIGHT
ENCODING 8221
SWIDTH 545 0
DWIDTH 6 0
BBX 5 3 0 4
BITMAP
D8
48
90
ENDCHAR
STARTCHAR DOUBLE
ENCODING 8222
SWIDTH 545 0
DWIDTH 6 0
BBX 5 3 0 -1
BITMAP
D8
48
90
ENDCHAR
STARTCHAR DOUBLE
ENCODING 8223
SWIDTH 545 0
DWIDTH 6 0
BBX 5 3 0 4
BITMAP
D8
90
48
ENDCHAR
STARTCHAR DAGGER
ENCODING 8224
SWIDTH 545 0
DWIDTH 6 0
BBX 5 7 0 0
BITMAP
20
20
F8
20
20
20
20
ENDCHAR
STARTCHAR DOUBLE
ENCODING 8225
SWIDTH 545 0
DWIDTH 6 0
BBX 5 7 0 0
BITMAP
20
20
F8
20
F8
20
20
ENDCHAR
STARTCHAR BULLET
ENCODING 8226
SWIDTH 545 0
DWIDTH 6 0
BBX 4 4 1 1
BITMAP
60
F0
F0
60
ENDCHAR
STARTCHAR TRIANGULAR
ENCODING 8227
SWIDTH 545 0
DWIDTH 6 0
BBX 5 3 0 2
BITMAP
20
70
F8
ENDCHAR
STARTCHAR ONE
ENCODING 8228
SWIDTH 545 0
DWIDTH 6 0
BBX 1 1 2 0
BITMAP
80
ENDCHAR
STARTCHAR TWO
ENCODING 8229
SWIDTH 545 0
DWIDTH 6 0
BBX 5 1 0 0
BITMAP
88
ENDCHAR
STARTCHAR HORIZONTAL
ENCODING 8230
SWIDTH 545 0
DWIDTH 6 0
BBX 5 1 0 0
BITMAP
A8
ENDCHAR
STARTCHAR HYPHENATION
ENCODING 8231
SWIDTH 545 0
DWIDTH 6 0
BBX 2 1 2 3
BITMAP
C0
ENDCHAR
STARTCHAR PER
ENCODING 8240
SWIDTH 545 0
DWIDTH 6 0
BBX 6 7 0 0
BITMAP
48
A8
50
20
68
D4
A8
ENDCHAR
STARTCHAR PRIME
ENCODING 8242
SWIDTH 545 0
DWIDTH 6 0
BBX 2 3 2 5
BITMAP
40
40
80
ENDCHAR
STARTCHAR DOUBLE
ENCODING 8243
SWIDTH 545 0
DWIDTH 6 0
BBX 4 3 1 5
BITMAP
50
50
A0
ENDCHAR
STARTCHAR TRIPLE
ENCODING 8244
SWIDTH 545 0
DWIDTH 6 0
BBX 6 3 0 5
BITMAP
54
54
A8
ENDCHAR
STARTCHAR REVERSED
ENCODING 8245
SWIDTH 545 0
DWIDTH 6 0
BBX 2 3 2 5
BITMAP
80
80
40
ENDCHAR
STARTCHAR REVERSED
ENCODING 8246
SWIDTH 545 0
DWIDTH 6 0
BBX 4 3 1 5
BITMAP
A0
A0
50
ENDCHAR
STARTCHAR REVERSED
ENCODING 8247
SWIDTH 545 0
DWIDTH 6 0
BBX 6 3 0 5
BITMAP
A8
A8
54
ENDCHAR
STARTCHAR SINGLE
ENCODING 8249
SWIDTH 545 0
DWIDTH 6 0
BBX 3 5 1 0
BITMAP
20
40
80
40
20
ENDCHAR
STARTCHAR SINGLE
ENCODING 8250
SWIDTH 545 0
DWIDTH 6 0
BBX 3 5 1 0
BITMAP
80
40
20
40
80
ENDCHAR
STARTCHAR DOUBLE
ENCODING 8252
SWIDTH 545 0
DWIDTH 6 0
BBX 3 7 1 0
BITMAP
A0
A0
A0
A0
A0
00
A0
ENDCHAR
STARTCHAR OVERLINE
ENCODING 8254
SWIDTH 545 0
DWIDTH 6 0
BBX 6 1 0 7
BITMAP
FC
ENDCHAR
STARTCHAR FRACTION
ENCODING 8260
SWIDTH 545 0
DWIDTH 6 0
BBX 5 7 0 0
BITMAP
08
08
10
20
40
80
80
ENDCHAR
STARTCHAR SUPERSCRIPT
ENCODING 8304
SWIDTH 545 0
DWIDTH 6 0
BBX 4 5 1 3
BITMAP
60
90
90
90
60
ENDCHAR
STARTCHAR SUPERSCRIPT
ENCODING 8305
SWIDTH 545 0
DWIDTH 6 0
BBX 3 5 1 3
BITMAP
40
00
C0
40
E0
ENDCHAR
STARTCHAR SUPERSCRIPT
ENCODING 8308
SWIDTH 545 0
DWIDTH 6 0
BBX 4 5 1 3
BITMAP
20
60
A0
F0
20
ENDCHAR
STARTCHAR SUPERSCRIPT
ENCODING 8309
SWIDTH 545 0
DWIDTH 6 0
BBX 4 5 1 3
BITMAP
F0
80
E0
10
E0
ENDCHAR
STARTCHAR SUPERSCRIPT
ENCODING 8310
SWIDTH 545 0
DWIDTH 6 0
BBX 4 5 1 3
BITMAP
70
80
E0
90
60
ENDCHAR
STARTCHAR SUPERSCRIPT
ENCODING 8311
SWIDTH 545 0
DWIDTH 6 0
BBX 4 5 1 3
BITMAP
F0
10
20
40
40
ENDCHAR
STARTCHAR SUPERSCRIPT
ENCODING 8312
SWIDTH 545 0
DWIDTH 6 0
BBX 4 5 1 3
BITMAP
60
90
60
90
60
ENDCHAR
STARTCHAR SUPERSCRIPT
ENCODING 8313
SWIDTH 545 0
DWIDTH 6 0
BBX 4 5 1 3
BITMAP
60
90
70
10
60
ENDCHAR
STARTCHAR SUPERSCRIPT
ENCODING 8314
SWIDTH 545 0
DWIDTH 6 0
BBX 3 3 1 4
BITMAP
40
E0
40
ENDCHAR
STARTCHAR SUPERSCRIPT
ENCODING 8315
SWIDTH 545 0
DWIDTH 6 0
BBX 3 1 1 5
BITMAP
E0
ENDCHAR
STARTCHAR SUPERSCRIPT
ENCODING 8316
SWIDTH 545 0
DWIDTH 6 0
BBX 4 3 1 4
BITMAP
F0
00
F0
ENDCHAR
STARTCHAR SUPERSCRIPT
ENCODING 8317
SWIDTH 545 0
DWIDTH 6 0
BBX 2 5 2 3
BITMAP
40
80
80
80
40
ENDCHAR
STARTCHAR SUPERSCRIPT
ENCODING 8318
SWIDTH 545 0
DWIDTH 6 0
BBX 2 5 2 3
BITMAP
80
40
40
40
80
ENDCHAR
STARTCHAR SUPERSCRIPT
ENCODING 8319
SWIDTH 545 0
DWIDTH 6 0
BBX 4 4 1 3
BITMAP
A0
D0
90
90
ENDCHAR
STARTCHAR SUBSCRIPT
ENCODING 8320
SWIDTH 545 0
DWIDTH 6 0
BBX 4 5 1 -2
BITMAP
60
90
90
90
60
ENDCHAR
STARTCHAR SUBSCRIPT
ENCODING 8321
SWIDTH 545 0
DWIDTH 6 0
BBX 3 5 1 -2
BITMAP
40
C0
40
40
E0
ENDCHAR
STARTCHAR SUBSCRIPT
ENCODING 8322
SWIDTH 545 0
DWIDTH 6 0
BBX 4 5 1 -2
BITMAP
60
90
20
40
F0
ENDCHAR
STARTCHAR SUBSCRIPT
ENCODING 8323
SWIDTH 545 0
DWIDTH 6 0
BBX 4 5 1 -2
BITMAP
E0
10
60
10
E0
ENDCHAR
STARTCHAR SUBSCRIPT
ENCODING 8324
SWIDTH 545 0
DWIDTH 6 0
BBX 4 5 1 -2
BITMAP
20
60
A0
F0
20
ENDCHAR
STARTCHAR SUBSCRIPT
ENCODING 8325
SWIDTH 545 0
DWIDTH 6 0
BBX 4 5 1 -2
BITMAP
F0
80
E0
10
E0
ENDCHAR
STARTCHAR SUBSCRIPT
ENCODING 8326
SWIDTH 545 0
DWIDTH 6 0
BBX 4 5 1 -2
BITMAP
70
80
E0
90
60
ENDCHAR
STARTCHAR SUBSCRIPT
ENCODING 8327
SWIDTH 545 0
DWIDTH 6 0
BBX 4 5 1 -2
BITMAP
F0
10
20
40
40
ENDCHAR
STARTCHAR SUBSCRIPT
ENCODING 8328
SWIDTH 545 0
DWIDTH 6 0
BBX 4 5 1 -2
BITMAP
60
90
60
90
60
ENDCHAR
STARTCHAR SUBSCRIPT
ENCODING 8329
SWIDTH 545 0
DWIDTH 6 0
BBX 4 5 1 -2
BITMAP
60
90
70
10
60
ENDCHAR
STARTCHAR SUBSCRIPT
ENCODING 8330
SWIDTH 545 0
DWIDTH 6 0
BBX 3 3 1 -1
BITMAP
40
E0
40
ENDCHAR
STARTCHAR SUBSCRIPT
ENCODING 8331
SWIDTH 545 0
DWIDTH 6 0
BBX 3 1 1 0
BITMAP
E0
ENDCHAR
STARTCHAR SUBSCRIPT
ENCODING 8332
SWIDTH 545 0
DWIDTH 6 0
BBX 4 3 1 -1
BITMAP
F0
00
F0
ENDCHAR
STARTCHAR SUBSCRIPT
ENCODING 8333
SWIDTH 545 0
DWIDTH 6 0
BBX 2 5 2 -2
BITMAP
40
80
80
80
40
ENDCHAR
STARTCHAR SUBSCRIPT
ENCODING 8334
SWIDTH 545 0
DWIDTH 6 0
BBX 2 5 2 -2
BITMAP
80
40
40
40
80
ENDCHAR
STARTCHAR FRENCH
ENCODING 8355
SWIDTH 545 0
DWIDTH 6 0
BBX 5 7 0 0
BITMAP
F8
80
80
E8
B0
A0
A0
ENDCHAR
STARTCHAR LIRA
ENCODING 8356
SWIDTH 545 0
DWIDTH 6 0
BBX 5 7 0 0
BITMAP
30
48
E0
40
E0
48
B0
ENDCHAR
STARTCHAR PESETA
ENCODING 8359
SWIDTH 545 0
DWIDTH 6 0
BBX 6 7 0 0
BITMAP
70
48
FC
48
70
40
40
ENDCHAR
STARTCHAR DONG
ENCODING 8363
SWIDTH 545 0
DWIDTH 6 0
BBX 6 9 0 -2
BITMAP
08
3C
68
98
88
98
68
00
F8
ENDCHAR
STARTCHAR EURO
ENCODING 8364
SWIDTH 545 0
DWIDTH 6 0
BBX 5 7 0 0
BITMAP
30
48
E0
40
E0
48
30
ENDCHAR
STARTCHAR DRACHMA
ENCODING 8367
SWIDTH 545 0
DWIDTH 6 0
BBX 5 7 0 0
BITMAP
40
70
C8
48
48
E8
D0
ENDCHAR
STARTCHAR COMBINING
ENCODING 8400
SWIDTH 545 0
DWIDTH 6 0
BBX 5 2 0 6
BITMAP
40
F8
ENDCHAR
STARTCHAR COMBINING
ENCODING 8401
SWIDTH 545 0
DWIDTH 6 0
BBX 5 2 0 6
BITMAP
10
F8
ENDCHAR
STARTCHAR COMBINING
ENCODING 8402
SWIDTH 545 0
DWIDTH 6 0
BBX 1 11 2 -2
BITMAP
80
80
80
80
80
80
80
80
80
80
80
ENDCHAR
STARTCHAR COMBINING
ENCODING 8403
SWIDTH 545 0
DWIDTH 6 0
BBX 1 6 2 0
BITMAP
80
80
80
80
80
80
ENDCHAR
STARTCHAR COMBINING
ENCODING 8404
SWIDTH 545 0
DWIDTH 6 0
BBX 5 3 0 5
BITMAP
B0
C8
E0
ENDCHAR
STARTCHAR COMBINING
ENCODING 8405
SWIDTH 545 0
DWIDTH 6 0
BBX 5 3 0 5
BITMAP
68
98
38
ENDCHAR
STARTCHAR COMBINING
ENCODING 8406
SWIDTH 545 0
DWIDTH 6 0
BBX 5 3 0 5
BITMAP
40
F8
40
ENDCHAR
STARTCHAR COMBINING
ENCODING 8407
SWIDTH 545 0
DWIDTH 6 0
BBX 5 3 0 5
BITMAP
10
F8
10
ENDCHAR
STARTCHAR DOUBLE-STRUCK
ENCODING 8450
SWIDTH 545 0
DWIDTH 6 0
BBX 5 7 0 0
BITMAP
70
A8
A0
A0
A0
A8
70
ENDCHAR
STARTCHAR CARE
ENCODING 8453
SWIDTH 545 0
DWIDTH 6 0
BBX 5 9 0 -1
BITMAP
60
80
80
60
00
30
48
48
30
ENDCHAR
STARTCHAR SCRIPT
ENCODING 8467
SWIDTH 545 0
DWIDTH 6 0
BBX 4 7 1 0
BITMAP
20
50
50
50
60
40
B0
ENDCHAR
STARTCHAR DOUBLE-STRUCK
ENCODING 8469
SWIDTH 545 0
DWIDTH 6 0
BBX 5 7 0 0
BITMAP
88
C8
C8
E8
D8
D8
C8
ENDCHAR
STARTCHAR NUMERO
ENCODING 8470
SWIDTH 545 0
DWIDTH 6 0
BBX 6 7 0 0
BITMAP
90
90
D8
B4
94
98
9C
ENDCHAR
STARTCHAR DOUBLE-STRUCK
ENCODING 8474
SWIDTH 545 0
DWIDTH 6 0
BBX 5 8 0 -1
BITMAP
70
A8
A8
A8
A8
A8
70
18
ENDCHAR
STARTCHAR DOUBLE-STRUCK
ENCODING 8477
SWIDTH 545 0
DWIDTH 6 0
BBX 5 7 0 0
BITMAP
F0
A8
A8
B0
A8
A8
A8
ENDCHAR
STARTCHAR TRADE
ENCODING 8482
SWIDTH 545 0
DWIDTH 6 0
BBX 6 4 0 4
BITMAP
FC
5C
54
54
ENDCHAR
STARTCHAR DOUBLE-STRUCK
ENCODING 8484
SWIDTH 545 0
DWIDTH 6 0
BBX 5 7 0 0
BITMAP
F8
28
28
50
A0
A0
F8
ENDCHAR
STARTCHAR OHM
ENCODING 8486
SWIDTH 545 0
DWIDTH 6 0
BBX 5 7 0 0
BITMAP
70
88
88
88
88
50
D8
ENDCHAR
STARTCHAR INVERTED
ENCODING 8487
SWIDTH 545 0
DWIDTH 6 0
BBX 5 7 0 0
BITMAP
D8
50
88
88
88
88
70
ENDCHAR
STARTCHAR ESTIMATED
ENCODING 8494
SWIDTH 545 0
DWIDTH 6 0
BBX 5 5 0 0
BITMAP
70
D8
F8
C0
70
ENDCHAR
STARTCHAR VULGAR
ENCODING 8539
SWIDTH 545 0
DWIDTH 6 0
BBX 6 10 0 -2
BITMAP
40
C0
40
40
E0
08
14
08
14
08
ENDCHAR
STARTCHAR VULGAR
ENCODING 8540
SWIDTH 545 0
DWIDTH 6 0
BBX 5 10 0 -2
BITMAP
C0
20
40
20
C0
10
28
10
28
10
ENDCHAR
STARTCHAR VULGAR
ENCODING 8541
SWIDTH 545 0
DWIDTH 6 0
BBX 5 10 0 -2
BITMAP
E0
80
C0
20
C0
10
28
10
28
10
ENDCHAR
STARTCHAR VULGAR
ENCODING 8542
SWIDTH 545 0
DWIDTH 6 0
BBX 5 10 0 -2
BITMAP
E0
20
20
40
40
10
28
10
28
10
ENDCHAR
STARTCHAR LEFTWARDS
ENCODING 8592
SWIDTH 545 0
DWIDTH 6 0
BBX 6 5 0 0
BITMAP
20
40
FC
40
20
ENDCHAR
STARTCHAR UPWARDS
ENCODING 8593
SWIDTH 545 0
DWIDTH 6 0
BBX 5 7 0 0
BITMAP
20
70
A8
20
20
20
20
ENDCHAR
STARTCHAR RIGHTWARDS
ENCODING 8594
SWIDTH 545 0
DWIDTH 6 0
BBX 6 5 0 0
BITMAP
10
08
FC
08
10
ENDCHAR
STARTCHAR DOWNWARDS
ENCODING 8595
SWIDTH 545 0
DWIDTH 6 0
BBX 5 7 0 0
BITMAP
20
20
20
20
A8
70
20
ENDCHAR
STARTCHAR LEFT
ENCODING 8596
SWIDTH 545 0
DWIDTH 6 0
BBX 6 3 0 1
BITMAP
48
FC
48
ENDCHAR
STARTCHAR UP
ENCODING 8597
SWIDTH 545 0
DWIDTH 6 0
BBX 5 8 0 -1
BITMAP
20
70
A8
20
20
A8
70
20
ENDCHAR
STARTCHAR NORTH
ENCODING 8598
SWIDTH 545 0
DWIDTH 6 0
BBX 5 5 0 1
BITMAP
F0
C0
A0
90
08
ENDCHAR
STARTCHAR NORTH
ENCODING 8599
SWIDTH 545 0
DWIDTH 6 0
BBX 5 5 0 1
BITMAP
78
18
28
48
80
ENDCHAR
STARTCHAR SOUTH
ENCODING 8600
SWIDTH 545 0
DWIDTH 6 0
BBX 5 5 0 1
BITMAP
80
48
28
18
78
ENDCHAR
STARTCHAR SOUTH
ENCODING 8601
SWIDTH 545 0
DWIDTH 6 0
BBX 5 5 0 1
BITMAP
08
90
A0
C0
F0
ENDCHAR
STARTCHAR LEFTWARDS
ENCODING 8612
SWIDTH 545 0
DWIDTH 6 0
BBX 6 5 0 0
BITMAP
24
44
FC
44
24
ENDCHAR
STARTCHAR UPWARDS
ENCODING 8613
SWIDTH 545 0
DWIDTH 6 0
BBX 5 7 0 0
BITMAP
20
70
A8
20
20
20
70
ENDCHAR
STARTCHAR RIGHTWARDS
ENCODING 8614
SWIDTH 545 0
DWIDTH 6 0
BBX 6 5 0 0
BITMAP
10
88
FC
88
10
ENDCHAR
STARTCHAR DOWNWARDS
ENCODING 8615
SWIDTH 545 0
DWIDTH 6 0
BBX 5 7 0 0
BITMAP
70
20
20
20
A8
70
20
ENDCHAR
STARTCHAR UP
ENCODING 8616
SWIDTH 545 0
DWIDTH 6 0
BBX 5 9 0 -1
BITMAP
20
70
A8
20
20
A8
70
20
F8
ENDCHAR
STARTCHAR RIGHTWARDS
ENCODING 8644
SWIDTH 545 0
DWIDTH 6 0
BBX 6 9 0 -2
BITMAP
10
08
FC
08
30
40
FC
40
20
ENDCHAR
STARTCHAR LEFTWARDS
ENCODING 8646
SWIDTH 545 0
DWIDTH 6 0
BBX 6 9 0 -2
BITMAP
20
40
FC
40
30
08
FC
08
10
ENDCHAR
STARTCHAR LEFTWARDS
ENCODING 8651
SWIDTH 545 0
DWIDTH 6 0
BBX 6 7 0 -1
BITMAP
20
40
FC
00
FC
08
10
ENDCHAR
STARTCHAR RIGHTWARDS
ENCODING 8652
SWIDTH 545 0
DWIDTH 6 0
BBX 6 7 0 -1
BITMAP
10
08
FC
00
FC
40
20
ENDCHAR
STARTCHAR LEFTWARDS
ENCODING 8656
SWIDTH 545 0
DWIDTH 6 0
BBX 6 7 0 0
BITMAP
10
20
7C
80
7C
20
10
ENDCHAR
STARTCHAR UPWARDS
ENCODING 8657
SWIDTH 545 0
DWIDTH 6 0
BBX 5 7 0 0
BITMAP
20
70
D8
50
50
50
50
ENDCHAR
STARTCHAR RIGHTWARDS
ENCODING 8658
SWIDTH 545 0
DWIDTH 6 0
BBX 6 7 0 0
BITMAP
20
10
F8
04
F8
10
20
ENDCHAR
STARTCHAR DOWNWARDS
ENCODING 8659
SWIDTH 545 0
DWIDTH 6 0
BBX 5 7 0 0
BITMAP
50
50
50
50
D8
70
20
ENDCHAR
STARTCHAR LEFT
ENCODING 8660
SWIDTH 545 0
DWIDTH 6 0
BBX 6 3 0 2
BITMAP
78
84
78
ENDCHAR
STARTCHAR UP
ENCODING 8661
SWIDTH 545 0
DWIDTH 6 0
BBX 5 8 0 -1
BITMAP
20
50
D8
50
50
D8
50
20
ENDCHAR
STARTCHAR FOR
ENCODING 8704
SWIDTH 545 0
DWIDTH 6 0
BBX 5 7 0 0
BITMAP
88
88
70
50
50
20
20
ENDCHAR
STARTCHAR COMPLEMENT
ENCODING 8705
SWIDTH 545 0
DWIDTH 6 0
BBX 3 7 1 0
BITMAP
40
A0
80
80
80
A0
40
ENDCHAR
STARTCHAR PARTIAL
ENCODING 8706
SWIDTH 545 0
DWIDTH 6 0
BBX 5 7 0 0
BITMAP
30
08
68
98
88
88
70
ENDCHAR
STARTCHAR THERE
ENCODING 8707
SWIDTH 545 0
DWIDTH 6 0
BBX 5 7 0 0
BITMAP
F8
08
08
78
08
08
F8
ENDCHAR
STARTCHAR THERE
ENCODING 8708
SWIDTH 545 0
DWIDTH 6 0
BBX 5 9 0 -1
BITMAP
20
F8
28
28
78
28
28
F8
20
ENDCHAR
STARTCHAR EMPTY
ENCODING 8709
SWIDTH 545 0
DWIDTH 6 0
BBX 6 6 0 0
BITMAP
34
48
94
A4
48
B0
ENDCHAR
STARTCHAR INCREMENT
ENCODING 8710
SWIDTH 545 0
DWIDTH 6 0
BBX 5 6 0 0
BITMAP
20
20
50
50
88
F8
ENDCHAR
STARTCHAR NABLA
ENCODING 8711
SWIDTH 545 0
DWIDTH 6 0
BBX 5 6 0 0
BITMAP
F8
88
50
50
20
20
ENDCHAR
STARTCHAR ELEMENT
ENCODING 8712
SWIDTH 545 0
DWIDTH 6 0
BBX 5 7 0 0
BITMAP
78
80
80
F0
80
80
78
ENDCHAR
STARTCHAR NOT
ENCODING 8713
SWIDTH 545 0
DWIDTH 6 0
BBX 5 9 0 -1
BITMAP
20
78
A0
A0
F0
A0
A0
78
20
ENDCHAR
STARTCHAR CONTAINS
ENCODING 8715
SWIDTH 545 0
DWIDTH 6 0
BBX 5 7 0 0
BITMAP
F0
08
08
78
08
08
F0
ENDCHAR
STARTCHAR DOES
ENCODING 8716
SWIDTH 545 0
DWIDTH 6 0
BBX 5 9 0 -1
BITMAP
20
F0
28
28
78
28
28
F0
20
ENDCHAR
STARTCHAR N-ARY
ENCODING 8719
SWIDTH 545 0
DWIDTH 6 0
BBX 5 9 0 -1
BITMAP
F8
50
50
50
50
50
50
50
50
ENDCHAR
STARTCHAR N-ARY
ENCODING 8721
SWIDTH 545 0
DWIDTH 6 0
BBX 5 9 0 -1
BITMAP
F8
80
40
20
10
20
40
80
F8
ENDCHAR
STARTCHAR MINUS
ENCODING 8722
SWIDTH 545 0
DWIDTH 6 0
BBX 5 1 0 3
BITMAP
F8
ENDCHAR
STARTCHAR MINUS-OR-PLUS
ENCODING 8723
SWIDTH 545 0
DWIDTH 6 0
BBX 5 6 0 0
BITMAP
F8
20
20
F8
20
20
ENDCHAR
STARTCHAR DIVISION
ENCODING 8725
SWIDTH 545 0
DWIDTH 6 0
BBX 5 7 0 0
BITMAP
08
08
10
20
40
80
80
ENDCHAR
STARTCHAR RING
ENCODING 8728
SWIDTH 545 0
DWIDTH 6 0
BBX 4 4 1 1
BITMAP
60
90
90
60
ENDCHAR
STARTCHAR BULLET
ENCODING 8729
SWIDTH 545 0
DWIDTH 6 0
BBX 4 4 1 1
BITMAP
60
F0
F0
60
ENDCHAR
STARTCHAR SQUARE
ENCODING 8730
SWIDTH 545 0
DWIDTH 6 0
BBX 6 6 0 0
BITMAP
0C
10
10
20
A0
40
ENDCHAR
STARTCHAR PROPORTIONAL
ENCODING 8733
SWIDTH 545 0
DWIDTH 6 0
BBX 4 4 1 1
BITMAP
50
A0
A0
50
ENDCHAR
STARTCHAR INFINITY
ENCODING 8734
SWIDTH 545 0
DWIDTH 6 0
BBX 5 4 0 1
BITMAP
50
A8
A8
50
ENDCHAR
STARTCHAR RIGHT
ENCODING 8735
SWIDTH 545 0
DWIDTH 6 0
BBX 5 5 0 1
BITMAP
80
80
80
80
F8
ENDCHAR
STARTCHAR MEASURED
ENCODING 8737
SWIDTH 545 0
DWIDTH 6 0
BBX 5 6 0 -1
BITMAP
50
20
50
90
F8
10
ENDCHAR
STARTCHAR DOES
ENCODING 8740
SWIDTH 545 0
DWIDTH 6 0
BBX 3 7 1 0
BITMAP
40
40
60
40
C0
40
40
ENDCHAR
STARTCHAR PARALLEL
ENCODING 8741
SWIDTH 545 0
DWIDTH 6 0
BBX 3 7 1 0
BITMAP
A0
A0
A0
A0
A0
A0
A0
ENDCHAR
STARTCHAR NOT
ENCODING 8742
SWIDTH 545 0
DWIDTH 6 0
BBX 5 7 0 0
BITMAP
50
50
58
70
D0
50
50
ENDCHAR
STARTCHAR LOGICAL
ENCODING 8743
SWIDTH 545 0
DWIDTH 6 0
BBX 5 6 0 0
BITMAP
20
20
50
50
88
88
ENDCHAR
STARTCHAR LOGICAL
ENCODING 8744
SWIDTH 545 0
DWIDTH 6 0
BBX 5 6 0 0
BITMAP
88
88
50
50
20
20
ENDCHAR
STARTCHAR INTERSECTION
ENCODING 8745
SWIDTH 545 0
DWIDTH 6 0
BBX 5 6 0 0
BITMAP
70
88
88
88
88
88
ENDCHAR
STARTCHAR UNION
ENCODING 8746
SWIDTH 545 0
DWIDTH 6 0
BBX 5 6 0 0
BITMAP
88
88
88
88
88
70
ENDCHAR
STARTCHAR INTEGRAL
ENCODING 8747
SWIDTH 545 0
DWIDTH 6 0
BBX 5 10 0 -2
BITMAP
10
28
20
20
20
20
20
20
A0
40
ENDCHAR
STARTCHAR CONTOUR
ENCODING 8750
SWIDTH 545 0
DWIDTH 6 0
BBX 5 10 0 -2
BITMAP
10
28
20
70
A8
A8
70
20
A0
40
ENDCHAR
STARTCHAR TILDE
ENCODING 8764
SWIDTH 545 0
DWIDTH 6 0
BBX 5 3 0 2
BITMAP
48
A8
90
ENDCHAR
STARTCHAR ASYMPTOTICALLY
ENCODING 8771
SWIDTH 545 0
DWIDTH 6 0
BBX 5 5 0 0
BITMAP
40
A8
10
00
F8
ENDCHAR
STARTCHAR APPROXIMATELY
ENCODING 8773
SWIDTH 545 0
DWIDTH 6 0
BBX 5 7 0 0
BITMAP
40
A8
10
00
F8
00
F8
ENDCHAR
STARTCHAR ALMOST
ENCODING 8776
SWIDTH 545 0
DWIDTH 6 0
BBX 5 5 0 0
BITMAP
40
A8
50
A8
10
ENDCHAR
STARTCHAR NOT
ENCODING 8777
SWIDTH 545 0
DWIDTH 6 0
BBX 5 7 0 -1
BITMAP
20
60
A8
70
A8
30
20
ENDCHAR
STARTCHAR ESTIMATES
ENCODING 8793
SWIDTH 545 0
DWIDTH 6 0
BBX 5 6 0 0
BITMAP
20
50
00
F8
00
F8
ENDCHAR
STARTCHAR QUESTIONED
ENCODING 8799
SWIDTH 545 0
DWIDTH 6 0
BBX 5 9 0 -1
BITMAP
60
10
20
00
20
00
F8
00
F8
ENDCHAR
STARTCHAR NOT
ENCODING 8800
SWIDTH 545 0
DWIDTH 6 0
BBX 5 7 0 0
BITMAP
08
10
F8
20
F8
40
80
ENDCHAR
STARTCHAR IDENTICAL
ENCODING 8801
SWIDTH 545 0
DWIDTH 6 0
BBX 5 5 0 0
BITMAP
F8
00
F8
00
F8
ENDCHAR
STARTCHAR NOT
ENCODING 8802
SWIDTH 545 0
DWIDTH 6 0
BBX 5 7 0 -1
BITMAP
08
F8
10
F8
20
F8
40
ENDCHAR
STARTCHAR LESS-THAN
ENCODING 8804
SWIDTH 545 0
DWIDTH 6 0
BBX 5 7 0 0
BITMAP
18
60
80
60
18
00
F8
ENDCHAR
STARTCHAR GREATER-THAN
ENCODING 8805
SWIDTH 545 0
DWIDTH 6 0
BBX 5 7 0 0
BITMAP
C0
30
08
30
C0
00
F8
ENDCHAR
STARTCHAR MUCH
ENCODING 8810
SWIDTH 545 0
DWIDTH 6 0
BBX 6 5 0 0
BITMAP
24
48
90
48
24
ENDCHAR
STARTCHAR MUCH
ENCODING 8811
SWIDTH 545 0
DWIDTH 6 0
BBX 6 5 0 0
BITMAP
90
48
24
48
90
ENDCHAR
STARTCHAR SUBSET
ENCODING 8834
SWIDTH 545 0
DWIDTH 6 0
BBX 5 5 0 0
BITMAP
78
80
80
80
78
ENDCHAR
STARTCHAR SUPERSET
ENCODING 8835
SWIDTH 545 0
DWIDTH 6 0
BBX 5 5 0 0
BITMAP
F0
08
08
08
F0
ENDCHAR
STARTCHAR NOT
ENCODING 8836
SWIDTH 545 0
DWIDTH 6 0
BBX 5 7 0 -1
BITMAP
20
78
A0
A0
A0
78
20
ENDCHAR
STARTCHAR NOT
ENCODING 8837
SWIDTH 545 0
DWIDTH 6 0
BBX 5 7 0 -1
BITMAP
20
F0
28
28
28
F0
20
ENDCHAR
STARTCHAR SUBSET
ENCODING 8838
SWIDTH 545 0
DWIDTH 6 0
BBX 5 7 0 0
BITMAP
78
80
80
80
78
00
F8
ENDCHAR
STARTCHAR SUPERSET
ENCODING 8839
SWIDTH 545 0
DWIDTH 6 0
BBX 5 7 0 0
BITMAP
F0
08
08
08
F0
00
F8
ENDCHAR
STARTCHAR NEITHER
ENCODING 8840
SWIDTH 545 0
DWIDTH 6 0
BBX 5 9 0 -1
BITMAP
20
78
A0
A0
A0
78
20
F8
20
ENDCHAR
STARTCHAR NEITHER
ENCODING 8841
SWIDTH 545 0
DWIDTH 6 0
BBX 5 9 0 -1
BITMAP
20
F0
28
28
28
F0
20
F8
20
ENDCHAR
STARTCHAR SUBSET
ENCODING 8842
SWIDTH 545 0
DWIDTH 6 0
BBX 5 8 0 -1
BITMAP
78
80
80
80
78
20
F8
20
ENDCHAR
STARTCHAR SUPERSET
ENCODING 8843
SWIDTH 545 0
DWIDTH 6 0
BBX 5 8 0 -1
BITMAP
F0
08
08
08
F0
20
F8
20
ENDCHAR
STARTCHAR CIRCLED
ENCODING 8853
SWIDTH 545 0
DWIDTH 6 0
BBX 5 5 0 1
BITMAP
70
A8
F8
A8
70
ENDCHAR
STARTCHAR CIRCLED
ENCODING 8855
SWIDTH 545 0
DWIDTH 6 0
BBX 5 5 0 1
BITMAP
70
D8
A8
D8
70
ENDCHAR
STARTCHAR DOWN
ENCODING 8868
SWIDTH 545 0
DWIDTH 6 0
BBX 5 7 0 0
BITMAP
F8
20
20
20
20
20
20
ENDCHAR
STARTCHAR UP
ENCODING 8869
SWIDTH 545 0
DWIDTH 6 0
BBX 5 7 0 0
BITMAP
20
20
20
20
20
20
F8
ENDCHAR
STARTCHAR ASSERTION
ENCODING 8870
SWIDTH 545 0
DWIDTH 6 0
BBX 3 7 1 0
BITMAP
80
80
80
E0
80
80
80
ENDCHAR
STARTCHAR MODELS
ENCODING 8871
SWIDTH 545 0
DWIDTH 6 0
BBX 3 7 1 0
BITMAP
80
80
E0
80
E0
80
80
ENDCHAR
STARTCHAR N-ARY
ENCODING 8896
SWIDTH 545 0
DWIDTH 6 0
BBX 5 9 0 -1
BITMAP
20
20
20
50
50
50
88
88
88
ENDCHAR
STARTCHAR N-ARY
ENCODING 8897
SWIDTH 545 0
DWIDTH 6 0
BBX 5 9 0 -1
BITMAP
88
88
88
50
50
50
20
20
20
ENDCHAR
STARTCHAR N-ARY
ENCODING 8898
SWIDTH 545 0
DWIDTH 6 0
BBX 5 9 0 -1
BITMAP
70
88
88
88
88
88
88
88
88
ENDCHAR
STARTCHAR N-ARY
ENCODING 8899
SWIDTH 545 0
DWIDTH 6 0
BBX 5 9 0 -1
BITMAP
88
88
88
88
88
88
88
88
70
ENDCHAR
STARTCHAR DOT
ENCODING 8901
SWIDTH 545 0
DWIDTH 6 0
BBX 1 1 2 3
BITMAP
80
ENDCHAR
STARTCHAR VERTICAL
ENCODING 8942
SWIDTH 545 0
DWIDTH 6 0
BBX 1 7 2 0
BITMAP
80
00
00
80
00
00
80
ENDCHAR
STARTCHAR MIDLINE
ENCODING 8943
SWIDTH 545 0
DWIDTH 6 0
BBX 5 1 0 3
BITMAP
A8
ENDCHAR
STARTCHAR UP
ENCODING 8944
SWIDTH 545 0
DWIDTH 6 0
BBX 5 7 0 0
BITMAP
08
00
00
20
00
00
80
ENDCHAR
STARTCHAR DOWN
ENCODING 8945
SWIDTH 545 0
DWIDTH 6 0
BBX 5 7 0 0
BITMAP
80
00
00
20
00
00
08
ENDCHAR
STARTCHAR DIAMETER
ENCODING 8960
SWIDTH 545 0
DWIDTH 6 0
BBX 5 5 0 0
BITMAP
78
98
A8
C8
F0
ENDCHAR
STARTCHAR HOUSE
ENCODING 8962
SWIDTH 545 0
DWIDTH 6 0
BBX 5 6 0 0
BITMAP
20
50
88
88
88
F8
ENDCHAR
STARTCHAR LEFT
ENCODING 8968
SWIDTH 545 0
DWIDTH 6 0
BBX 3 7 1 0
BITMAP
E0
80
80
80
80
80
80
ENDCHAR
STARTCHAR RIGHT
ENCODING 8969
SWIDTH 545 0
DWIDTH 6 0
BBX 3 7 1 0
BITMAP
E0
20
20
20
20
20
20
ENDCHAR
STARTCHAR LEFT
ENCODING 8970
SWIDTH 545 0
DWIDTH 6 0
BBX 3 7 1 0
BITMAP
80
80
80
80
80
80
E0
ENDCHAR
STARTCHAR RIGHT
ENCODING 8971
SWIDTH 545 0
DWIDTH 6 0
BBX 3 7 1 0
BITMAP
20
20
20
20
20
20
E0
ENDCHAR
STARTCHAR REVERSED
ENCODING 8976
SWIDTH 545 0
DWIDTH 6 0
BBX 4 2 1 2
BITMAP
F0
80
ENDCHAR
STARTCHAR TOP
ENCODING 8992
SWIDTH 545 0
DWIDTH 6 0
BBX 3 8 2 -2
BITMAP
40
A0
80
80
80
80
80
80
ENDCHAR
STARTCHAR BOTTOM
ENCODING 8993
SWIDTH 545 0
DWIDTH 6 0
BBX 3 9 0 0
BITMAP
20
20
20
20
20
20
20
A0
40
ENDCHAR
STARTCHAR HORIZONTAL
ENCODING 9146
SWIDTH 545 0
DWIDTH 6 0
BBX 6 1 0 7
BITMAP
FC
ENDCHAR
STARTCHAR HORIZONTAL
ENCODING 9147
SWIDTH 545 0
DWIDTH 6 0
BBX 6 1 0 5
BITMAP
FC
ENDCHAR
STARTCHAR HORIZONTAL
ENCODING 9148
SWIDTH 545 0
DWIDTH 6 0
BBX 6 1 0 0
BITMAP
FC
ENDCHAR
STARTCHAR HORIZONTAL
ENCODING 9149
SWIDTH 545 0
DWIDTH 6 0
BBX 6 1 0 -2
BITMAP
FC
ENDCHAR
STARTCHAR SYMBOL
ENCODING 9225
SWIDTH 545 0
DWIDTH 6 0
BBX 5 9 0 -2
BITMAP
90
90
F0
90
90
78
10
10
10
ENDCHAR
STARTCHAR SYMBOL
ENCODING 9226
SWIDTH 545 0
DWIDTH 6 0
BBX 5 9 0 -2
BITMAP
80
80
80
F0
78
40
70
40
40
ENDCHAR
STARTCHAR SYMBOL
ENCODING 9227
SWIDTH 545 0
DWIDTH 6 0
BBX 5 9 0 -2
BITMAP
90
90
60
40
78
10
10
10
10
ENDCHAR
STARTCHAR SYMBOL
ENCODING 9228
SWIDTH 545 0
DWIDTH 6 0
BBX 5 9 0 -2
BITMAP
E0
80
C0
80
B8
20
30
20
20
ENDCHAR
STARTCHAR SYMBOL
ENCODING 9229
SWIDTH 545 0
DWIDTH 6 0
BBX 5 9 0 -2
BITMAP
70
80
80
70
70
48
70
48
48
ENDCHAR
STARTCHAR SYMBOL
ENCODING 9252
SWIDTH 545 0
DWIDTH 6 0
BBX 5 9 0 -2
BITMAP
90
D0
D0
B0
90
40
40
40
78
ENDCHAR
STARTCHAR BOX
ENCODING 9472
SWIDTH 545 0
DWIDTH 6 0
BBX 6 1 0 2
BITMAP
FC
ENDCHAR
STARTCHAR BOX
ENCODING 9473
SWIDTH 545 0
DWIDTH 6 0
BBX 6 2 0 2
BITMAP
FC
FC
ENDCHAR
STARTCHAR BOX
ENCODING 9474
SWIDTH 545 0
DWIDTH 6 0
BBX 1 11 2 -2
BITMAP
80
80
80
80
80
80
80
80
80
80
80
ENDCHAR
STARTCHAR BOX
ENCODING 9475
SWIDTH 545 0
DWIDTH 6 0
BBX 2 11 2 -2
BITMAP
C0
C0
C0
C0
C0
C0
C0
C0
C0
C0
C0
ENDCHAR
STARTCHAR BOX
ENCODING 9476
SWIDTH 545 0
DWIDTH 6 0
BBX 5 1 0 2
BITMAP
A8
ENDCHAR
STARTCHAR BOX
ENCODING 9477
SWIDTH 545 0
DWIDTH 6 0
BBX 5 2 0 2
BITMAP
A8
A8
ENDCHAR
STARTCHAR BOX
ENCODING 9478
SWIDTH 545 0
DWIDTH 6 0
BBX 1 10 2 -1
BITMAP
80
80
80
00
80
80
80
00
80
80
ENDCHAR
STARTCHAR BOX
ENCODING 9479
SWIDTH 545 0
DWIDTH 6 0
BBX 2 10 2 -1
BITMAP
C0
C0
C0
00
C0
C0
C0
00
C0
C0
ENDCHAR
STARTCHAR BOX
ENCODING 9480
SWIDTH 545 0
DWIDTH 6 0
BBX 5 1 0 2
BITMAP
A8
ENDCHAR
STARTCHAR BOX
ENCODING 9481
SWIDTH 545 0
DWIDTH 6 0
BBX 5 2 0 2
BITMAP
A8
A8
ENDCHAR
STARTCHAR BOX
ENCODING 9482
SWIDTH 545 0
DWIDTH 6 0
BBX 1 9 2 -1
BITMAP
80
80
00
80
00
80
80
00
80
ENDCHAR
STARTCHAR BOX
ENCODING 9483
SWIDTH 545 0
DWIDTH 6 0
BBX 2 9 2 -1
BITMAP
C0
C0
00
C0
00
C0
C0
00
C0
ENDCHAR
STARTCHAR BOX
ENCODING 9484
SWIDTH 545 0
DWIDTH 6 0
BBX 4 5 2 -2
BITMAP
F0
80
80
80
80
ENDCHAR
STARTCHAR BOX
ENCODING 9485
SWIDTH 545 0
DWIDTH 6 0
BBX 4 6 2 -2
BITMAP
F0
F0
80
80
80
80
ENDCHAR
STARTCHAR BOX
ENCODING 9486
SWIDTH 545 0
DWIDTH 6 0
BBX 4 5 2 -2
BITMAP
F0
C0
C0
C0
C0
ENDCHAR
STARTCHAR BOX
ENCODING 9487
SWIDTH 545 0
DWIDTH 6 0
BBX 4 6 2 -2
BITMAP
F0
F0
C0
C0
C0
C0
ENDCHAR
STARTCHAR BOX
ENCODING 9488
SWIDTH 545 0
DWIDTH 6 0
BBX 3 5 0 -2
BITMAP
E0
20
20
20
20
ENDCHAR
STARTCHAR BOX
ENCODING 9489
SWIDTH 545 0
DWIDTH 6 0
BBX 3 6 0 -2
BITMAP
E0
E0
20
20
20
20
ENDCHAR
STARTCHAR BOX
ENCODING 9490
SWIDTH 545 0
DWIDTH 6 0
BBX 4 5 0 -2
BITMAP
F0
30
30
30
30
ENDCHAR
STARTCHAR BOX
ENCODING 9491
SWIDTH 545 0
DWIDTH 6 0
BBX 4 6 0 -2
BITMAP
F0
F0
30
30
30
30
ENDCHAR
STARTCHAR BOX
ENCODING 9492
SWIDTH 545 0
DWIDTH 6 0
BBX 4 7 2 2
BITMAP
80
80
80
80
80
80
F0
ENDCHAR
STARTCHAR BOX
ENCODING 9493
SWIDTH 545 0
DWIDTH 6 0
BBX 4 7 2 2
BITMAP
80
80
80
80
80
F0
F0
ENDCHAR
STARTCHAR BOX
ENCODING 9494
SWIDTH 545 0
DWIDTH 6 0
BBX 4 7 2 2
BITMAP
C0
C0
C0
C0
C0
C0
F0
ENDCHAR
STARTCHAR BOX
ENCODING 9495
SWIDTH 545 0
DWIDTH 6 0
BBX 4 7 2 2
BITMAP
C0
C0
C0
C0
C0
F0
F0
ENDCHAR
STARTCHAR BOX
ENCODING 9496
SWIDTH 545 0
DWIDTH 6 0
BBX 3 7 0 2
BITMAP
20
20
20
20
20
20
E0
ENDCHAR
STARTCHAR BOX
ENCODING 9497
SWIDTH 545 0
DWIDTH 6 0
BBX 3 7 0 2
BITMAP
20
20
20
20
20
E0
E0
ENDCHAR
STARTCHAR BOX
ENCODING 9498
SWIDTH 545 0
DWIDTH 6 0
BBX 4 7 0 2
BITMAP
30
30
30
30
30
30
F0
ENDCHAR
STARTCHAR BOX
ENCODING 9499
SWIDTH 545 0
DWIDTH 6 0
BBX 4 7 0 2
BITMAP
30
30
30
30
30
F0
F0
ENDCHAR
STARTCHAR BOX
ENCODING 9500
SWIDTH 545 0
DWIDTH 6 0
BBX 4 11 2 -2
BITMAP
80
80
80
80
80
80
F0
80
80
80
80
ENDCHAR
STARTCHAR BOX
ENCODING 9501
SWIDTH 545 0
DWIDTH 6 0
BBX 4 11 2 -2
BITMAP
80
80
80
80
80
F0
F0
80
80
80
80
ENDCHAR
STARTCHAR BOX
ENCODING 9502
SWIDTH 545 0
DWIDTH 6 0
BBX 4 11 2 -2
BITMAP
C0
C0
C0
C0
C0
C0
F0
80
80
80
80
ENDCHAR
STARTCHAR BOX
ENCODING 9503
SWIDTH 545 0
DWIDTH 6 0
BBX 4 11 2 -2
BITMAP
80
80
80
80
80
80
F0
C0
C0
C0
C0
ENDCHAR
STARTCHAR BOX
ENCODING 9504
SWIDTH 545 0
DWIDTH 6 0
BBX 4 11 2 -2
BITMAP
C0
C0
C0
C0
C0
C0
F0
C0
C0
C0
C0
ENDCHAR
STARTCHAR BOX
ENCODING 9505
SWIDTH 545 0
DWIDTH 6 0
BBX 4 11 2 -2
BITMAP
C0
C0
C0
C0
C0
F0
F0
80
80
80
80
ENDCHAR
STARTCHAR BOX
ENCODING 9506
SWIDTH 545 0
DWIDTH 6 0
BBX 4 11 2 -2
BITMAP
80
80
80
80
80
F0
F0
C0
C0
C0
C0
ENDCHAR
STARTCHAR BOX
ENCODING 9507
SWIDTH 545 0
DWIDTH 6 0
BBX 4 11 2 -2
BITMAP
C0
C0
C0
C0
C0
F0
F0
C0
C0
C0
C0
ENDCHAR
STARTCHAR BOX
ENCODING 9508
SWIDTH 545 0
DWIDTH 6 0
BBX 3 11 0 -2
BITMAP
20
20
20
20
20
20
E0
20
20
20
20
ENDCHAR
STARTCHAR BOX
ENCODING 9509
SWIDTH 545 0
DWIDTH 6 0
BBX 3 11 0 -2
BITMAP
20
20
20
20
20
E0
E0
20
20
20
20
ENDCHAR
STARTCHAR BOX
ENCODING 9510
SWIDTH 545 0
DWIDTH 6 0
BBX 4 11 0 -2
BITMAP
30
30
30
30
30
30
E0
20
20
20
20
ENDCHAR
STARTCHAR BOX
ENCODING 9511
SWIDTH 545 0
DWIDTH 6 0
BBX 4 11 0 -2
BITMAP
20
20
20
20
20
20
F0
30
30
30
30
ENDCHAR
STARTCHAR BOX
ENCODING 9512
SWIDTH 545 0
DWIDTH 6 0
BBX 4 11 0 -2
BITMAP
30
30
30
30
30
30
F0
30
30
30
30
ENDCHAR
STARTCHAR BOX
ENCODING 9513
SWIDTH 545 0
DWIDTH 6 0
BBX 4 11 0 -2
BITMAP
30
30
30
30
30
F0
E0
20
20
20
20
ENDCHAR
STARTCHAR BOX
ENCODING 9514
SWIDTH 545 0
DWIDTH 6 0
BBX 4 11 0 -2
BITMAP
20
20
20
20
20
E0
F0
30
30
30
30
ENDCHAR
STARTCHAR BOX
ENCODING 9515
SWIDTH 545 0
DWIDTH 6 0
BBX 4 11 0 -2
BITMAP
30
30
30
30
30
F0
F0
30
30
30
30
ENDCHAR
STARTCHAR BOX
ENCODING 9516
SWIDTH 545 0
DWIDTH 6 0
BBX 6 5 0 -2
BITMAP
FC
20
20
20
20
ENDCHAR
STARTCHAR BOX
ENCODING 9517
SWIDTH 545 0
DWIDTH 6 0
BBX 6 6 0 -2
BITMAP
E0
FC
20
20
20
20
ENDCHAR
STARTCHAR BOX
ENCODING 9518
SWIDTH 545 0
DWIDTH 6 0
BBX 6 6 0 -2
BITMAP
1C
FC
20
20
20
20
ENDCHAR
STARTCHAR BOX
ENCODING 9519
SWIDTH 545 0
DWIDTH 6 0
BBX 6 6 0 -2
BITMAP
FC
FC
20
20
20
20
ENDCHAR
STARTCHAR BOX
ENCODING 9520
SWIDTH 545 0
DWIDTH 6 0
BBX 6 5 0 -2
BITMAP
FC
30
30
30
30
ENDCHAR
STARTCHAR BOX
ENCODING 9521
SWIDTH 545 0
DWIDTH 6 0
BBX 6 6 0 -2
BITMAP
E0
FC
30
30
30
30
ENDCHAR
STARTCHAR BOX
ENCODING 9522
SWIDTH 545 0
DWIDTH 6 0
BBX 6 6 0 -2
BITMAP
1C
FC
30
30
30
30
ENDCHAR
STARTCHAR BOX
ENCODING 9523
SWIDTH 545 0
DWIDTH 6 0
BBX 6 6 0 -2
BITMAP
FC
FC
30
30
30
30
ENDCHAR
STARTCHAR BOX
ENCODING 9524
SWIDTH 545 0
DWIDTH 6 0
BBX 6 7 0 2
BITMAP
20
20
20
20
20
20
FC
ENDCHAR
STARTCHAR BOX
ENCODING 9525
SWIDTH 545 0
DWIDTH 6 0
BBX 6 7 0 2
BITMAP
20
20
20
20
20
E0
FC
ENDCHAR
STARTCHAR BOX
ENCODING 9526
SWIDTH 545 0
DWIDTH 6 0
BBX 6 7 0 2
BITMAP
20
20
20
20
20
3C
FC
ENDCHAR
STARTCHAR BOX
ENCODING 9527
SWIDTH 545 0
DWIDTH 6 0
BBX 6 7 0 2
BITMAP
20
20
20
20
20
FC
FC
ENDCHAR
STARTCHAR BOX
ENCODING 9528
SWIDTH 545 0
DWIDTH 6 0
BBX 6 7 0 2
BITMAP
30
30
30
30
30
30
FC
ENDCHAR
STARTCHAR BOX
ENCODING 9529
SWIDTH 545 0
DWIDTH 6 0
BBX 6 7 0 2
BITMAP
30
30
30
30
30
F0
FC
ENDCHAR
STARTCHAR BOX
ENCODING 9530
SWIDTH 545 0
DWIDTH 6 0
BBX 6 7 0 2
BITMAP
30
30
30
30
30
3C
FC
ENDCHAR
STARTCHAR BOX
ENCODING 9531
SWIDTH 545 0
DWIDTH 6 0
BBX 6 7 0 2
BITMAP
30
30
30
30
30
FC
FC
ENDCHAR
STARTCHAR BOX
ENCODING 9532
SWIDTH 545 0
DWIDTH 6 0
BBX 6 11 0 -2
BITMAP
20
20
20
20
20
20
FC
20
20
20
20
ENDCHAR
STARTCHAR BOX
ENCODING 9533
SWIDTH 545 0
DWIDTH 6 0
BBX 6 11 0 -2
BITMAP
20
20
20
20
20
E0
FC
20
20
20
20
ENDCHAR
STARTCHAR BOX
ENCODING 9534
SWIDTH 545 0
DWIDTH 6 0
BBX 6 11 0 -2
BITMAP
20
20
20
20
20
3C
FC
20
20
20
20
ENDCHAR
STARTCHAR BOX
ENCODING 9535
SWIDTH 545 0
DWIDTH 6 0
BBX 6 11 0 -2
BITMAP
20
20
20
20
20
FC
FC
20
20
20
20
ENDCHAR
STARTCHAR BOX
ENCODING 9536
SWIDTH 545 0
DWIDTH 6 0
BBX 6 11 0 -2
BITMAP
30
30
30
30
30
30
FC
20
20
20
20
ENDCHAR
STARTCHAR BOX
ENCODING 9537
SWIDTH 545 0
DWIDTH 6 0
BBX 6 11 0 -2
BITMAP
20
20
20
20
20
20
FC
30
30
30
30
ENDCHAR
STARTCHAR BOX
ENCODING 9538
SWIDTH 545 0
DWIDTH 6 0
BBX 6 11 0 -2
BITMAP
30
30
30
30
30
30
FC
30
30
30
30
ENDCHAR
STARTCHAR BOX
ENCODING 9539
SWIDTH 545 0
DWIDTH 6 0
BBX 6 11 0 -2
BITMAP
30
30
30
30
30
F0
FC
20
20
20
20
ENDCHAR
STARTCHAR BOX
ENCODING 9540
SWIDTH 545 0
DWIDTH 6 0
BBX 6 11 0 -2
BITMAP
30
30
30
30
30
3C
FC
20
20
20
20
ENDCHAR
STARTCHAR BOX
ENCODING 9541
SWIDTH 545 0
DWIDTH 6 0
BBX 6 11 0 -2
BITMAP
20
20
20
20
20
E0
FC
30
30
30
30
ENDCHAR
STARTCHAR BOX
ENCODING 9542
SWIDTH 545 0
DWIDTH 6 0
BBX 6 11 0 -2
BITMAP
20
20
20
20
20
3C
FC
30
30
30
30
ENDCHAR
STARTCHAR BOX
ENCODING 9543
SWIDTH 545 0
DWIDTH 6 0
BBX 6 11 0 -2
BITMAP
30
30
30
30
30
FC
FC
20
20
20
20
ENDCHAR
STARTCHAR BOX
ENCODING 9544
SWIDTH 545 0
DWIDTH 6 0
BBX 6 11 0 -2
BITMAP
20
20
20
20
20
FC
FC
30
30
30
30
ENDCHAR
STARTCHAR BOX
ENCODING 9545
SWIDTH 545 0
DWIDTH 6 0
BBX 6 11 0 -2
BITMAP
30
30
30
30
30
F0
FC
30
30
30
30
ENDCHAR
STARTCHAR BOX
ENCODING 9546
SWIDTH 545 0
DWIDTH 6 0
BBX 6 11 0 -2
BITMAP
30
30
30
30
30
3C
FC
30
30
30
30
ENDCHAR
STARTCHAR BOX
ENCODING 9547
SWIDTH 545 0
DWIDTH 6 0
BBX 6 11 0 -2
BITMAP
30
30
30
30
30
FC
FC
30
30
30
30
ENDCHAR
STARTCHAR BOX
ENCODING 9548
SWIDTH 545 0
DWIDTH 6 0
BBX 5 1 0 2
BITMAP
D8
ENDCHAR
STARTCHAR BOX
ENCODING 9549
SWIDTH 545 0
DWIDTH 6 0
BBX 5 2 0 2
BITMAP
D8
D8
ENDCHAR
STARTCHAR BOX
ENCODING 9550
SWIDTH 545 0
DWIDTH 6 0
BBX 1 9 2 -1
BITMAP
80
80
80
80
00
80
80
80
80
ENDCHAR
STARTCHAR BOX
ENCODING 9551
SWIDTH 545 0
DWIDTH 6 0
BBX 2 9 2 -1
BITMAP
C0
C0
C0
C0
00
C0
C0
C0
C0
ENDCHAR
STARTCHAR BOX
ENCODING 9552
SWIDTH 545 0
DWIDTH 6 0
BBX 6 3 0 1
BITMAP
FC
00
FC
ENDCHAR
STARTCHAR BOX
ENCODING 9553
SWIDTH 545 0
DWIDTH 6 0
BBX 3 11 1 -2
BITMAP
A0
A0
A0
A0
A0
A0
A0
A0
A0
A0
A0
ENDCHAR
STARTCHAR BOX
ENCODING 9554
SWIDTH 545 0
DWIDTH 6 0
BBX 4 6 2 -2
BITMAP
F0
80
F0
80
80
80
ENDCHAR
STARTCHAR BOX
ENCODING 9555
SWIDTH 545 0
DWIDTH 6 0
BBX 5 5 1 -2
BITMAP
F8
A0
A0
A0
A0
ENDCHAR
STARTCHAR BOX
ENCODING 9556
SWIDTH 545 0
DWIDTH 6 0
BBX 5 6 1 -2
BITMAP
F8
80
B8
A0
A0
A0
ENDCHAR
STARTCHAR BOX
ENCODING 9557
SWIDTH 545 0
DWIDTH 6 0
BBX 3 6 0 -2
BITMAP
E0
20
E0
20
20
20
ENDCHAR
STARTCHAR BOX
ENCODING 9558
SWIDTH 545 0
DWIDTH 6 0
BBX 4 5 0 -2
BITMAP
F0
50
50
50
50
ENDCHAR
STARTCHAR BOX
ENCODING 9559
SWIDTH 545 0
DWIDTH 6 0
BBX 4 6 0 -2
BITMAP
F0
10
D0
50
50
50
ENDCHAR
STARTCHAR BOX
ENCODING 9560
SWIDTH 545 0
DWIDTH 6 0
BBX 4 8 2 1
BITMAP
80
80
80
80
80
F0
80
F0
ENDCHAR
STARTCHAR BOX
ENCODING 9561
SWIDTH 545 0
DWIDTH 6 0
BBX 5 7 1 2
BITMAP
A0
A0
A0
A0
A0
A0
F8
ENDCHAR
STARTCHAR BOX
ENCODING 9562
SWIDTH 545 0
DWIDTH 6 0
BBX 5 8 1 1
BITMAP
A0
A0
A0
A0
A0
B8
80
F8
ENDCHAR
STARTCHAR BOX
ENCODING 9563
SWIDTH 545 0
DWIDTH 6 0
BBX 3 8 0 1
BITMAP
20
20
20
20
20
E0
20
E0
ENDCHAR
STARTCHAR BOX
ENCODING 9564
SWIDTH 545 0
DWIDTH 6 0
BBX 4 7 0 2
BITMAP
50
50
50
50
50
50
F0
ENDCHAR
STARTCHAR BOX
ENCODING 9565
SWIDTH 545 0
DWIDTH 6 0
BBX 4 8 0 1
BITMAP
50
50
50
50
50
D0
10
F0
ENDCHAR
STARTCHAR BOX
ENCODING 9566
SWIDTH 545 0
DWIDTH 6 0
BBX 4 11 2 -2
BITMAP
80
80
80
80
80
F0
80
F0
80
80
80
ENDCHAR
STARTCHAR BOX
ENCODING 9567
SWIDTH 545 0
DWIDTH 6 0
BBX 5 11 1 -2
BITMAP
A0
A0
A0
A0
A0
A0
B8
A0
A0
A0
A0
ENDCHAR
STARTCHAR BOX
ENCODING 9568
SWIDTH 545 0
DWIDTH 6 0
BBX 5 11 1 -2
BITMAP
A0
A0
A0
A0
A0
B8
80
B8
A0
A0
A0
ENDCHAR
STARTCHAR BOX
ENCODING 9569
SWIDTH 545 0
DWIDTH 6 0
BBX 3 11 0 -2
BITMAP
20
20
20
20
20
E0
20
E0
20
20
20
ENDCHAR
STARTCHAR BOX
ENCODING 9570
SWIDTH 545 0
DWIDTH 6 0
BBX 4 11 0 -2
BITMAP
50
50
50
50
50
50
D0
50
50
50
50
ENDCHAR
STARTCHAR BOX
ENCODING 9571
SWIDTH 545 0
DWIDTH 6 0
BBX 4 11 0 -2
BITMAP
50
50
50
50
50
D0
10
D0
50
50
50
ENDCHAR
STARTCHAR BOX
ENCODING 9572
SWIDTH 545 0
DWIDTH 6 0
BBX 6 6 0 -2
BITMAP
FC
00
FC
20
20
20
ENDCHAR
STARTCHAR BOX
ENCODING 9573
SWIDTH 545 0
DWIDTH 6 0
BBX 6 5 0 -2
BITMAP
FC
50
50
50
50
ENDCHAR
STARTCHAR BOX
ENCODING 9574
SWIDTH 545 0
DWIDTH 6 0
BBX 6 6 0 -2
BITMAP
FC
00
DC
50
50
50
ENDCHAR
STARTCHAR BOX
ENCODING 9575
SWIDTH 545 0
DWIDTH 6 0
BBX 6 8 0 1
BITMAP
20
20
20
20
20
FC
00
FC
ENDCHAR
STARTCHAR BOX
ENCODING 9576
SWIDTH 545 0
DWIDTH 6 0
BBX 6 7 0 2
BITMAP
50
50
50
50
50
50
FC
ENDCHAR
STARTCHAR BOX
ENCODING 9577
SWIDTH 545 0
DWIDTH 6 0
BBX 6 8 0 1
BITMAP
50
50
50
50
50
DC
00
FC
ENDCHAR
STARTCHAR BOX
ENCODING 9578
SWIDTH 545 0
DWIDTH 6 0
BBX 6 11 0 -2
BITMAP
20
20
20
20
20
FC
20
FC
20
20
20
ENDCHAR
STARTCHAR BOX
ENCODING 9579
SWIDTH 545 0
DWIDTH 6 0
BBX 6 11 0 -2
BITMAP
50
50
50
50
50
50
FC
50
50
50
50
ENDCHAR
STARTCHAR BOX
ENCODING 9580
SWIDTH 545 0
DWIDTH 6 0
BBX 6 11 0 -2
BITMAP
50
50
50
50
50
DC
00
DC
50
50
50
ENDCHAR
STARTCHAR BOX
ENCODING 9581
SWIDTH 545 0
DWIDTH 6 0
BBX 4 5 2 -2
BITMAP
30
40
80
80
80
ENDCHAR
STARTCHAR BOX
ENCODING 9582
SWIDTH 545 0
DWIDTH 6 0
BBX 3 5 0 -2
BITMAP
80
40
20
20
20
ENDCHAR
STARTCHAR BOX
ENCODING 9583
SWIDTH 545 0
DWIDTH 6 0
BBX 3 7 0 2
BITMAP
20
20
20
20
20
40
80
ENDCHAR
STARTCHAR BOX
ENCODING 9584
SWIDTH 545 0
DWIDTH 6 0
BBX 4 7 2 2
BITMAP
80
80
80
80
80
40
30
ENDCHAR
STARTCHAR BOX
ENCODING 9585
SWIDTH 545 0
DWIDTH 6 0
BBX 6 11 0 -2
BITMAP
04
04
08
08
10
30
20
40
40
80
80
ENDCHAR
STARTCHAR BOX
ENCODING 9586
SWIDTH 545 0
DWIDTH 6 0
BBX 6 11 0 -2
BITMAP
80
80
40
40
20
30
10
08
08
04
04
ENDCHAR
STARTCHAR BOX
ENCODING 9587
SWIDTH 545 0
DWIDTH 6 0
BBX 6 11 0 -2
BITMAP
84
84
48
48
30
30
30
48
48
84
84
ENDCHAR
STARTCHAR BOX
ENCODING 9588
SWIDTH 545 0
DWIDTH 6 0
BBX 3 1 0 2
BITMAP
E0
ENDCHAR
STARTCHAR BOX
ENCODING 9589
SWIDTH 545 0
DWIDTH 6 0
BBX 1 6 2 3
BITMAP
80
80
80
80
80
80
ENDCHAR
STARTCHAR BOX
ENCODING 9590
SWIDTH 545 0
DWIDTH 6 0
BBX 3 1 3 2
BITMAP
E0
ENDCHAR
STARTCHAR BOX
ENCODING 9591
SWIDTH 545 0
DWIDTH 6 0
BBX 1 5 2 -2
BITMAP
80
80
80
80
80
ENDCHAR
STARTCHAR BOX
ENCODING 9592
SWIDTH 545 0
DWIDTH 6 0
BBX 3 2 0 2
BITMAP
E0
E0
ENDCHAR
STARTCHAR BOX
ENCODING 9593
SWIDTH 545 0
DWIDTH 6 0
BBX 2 6 2 3
BITMAP
C0
C0
C0
C0
C0
C0
ENDCHAR
STARTCHAR BOX
ENCODING 9594
SWIDTH 545 0
DWIDTH 6 0
BBX 3 2 3 2
BITMAP
E0
E0
ENDCHAR
STARTCHAR BOX
ENCODING 9595
SWIDTH 545 0
DWIDTH 6 0
BBX 2 5 2 -2
BITMAP
C0
C0
C0
C0
C0
ENDCHAR
STARTCHAR BOX
ENCODING 9596
SWIDTH 545 0
DWIDTH 6 0
BBX 6 2 0 2
BITMAP
1C
FC
ENDCHAR
STARTCHAR BOX
ENCODING 9597
SWIDTH 545 0
DWIDTH 6 0
BBX 2 11 2 -2
BITMAP
80
80
80
80
80
80
C0
C0
C0
C0
C0
ENDCHAR
STARTCHAR BOX
ENCODING 9598
SWIDTH 545 0
DWIDTH 6 0
BBX 6 2 0 2
BITMAP
E0
FC
ENDCHAR
STARTCHAR BOX
ENCODING 9599
SWIDTH 545 0
DWIDTH 6 0
BBX 2 11 2 -2
BITMAP
C0
C0
C0
C0
C0
C0
80
80
80
80
80
ENDCHAR
STARTCHAR UPPER
ENCODING 9600
SWIDTH 545 0
DWIDTH 6 0
BBX 6 6 0 3
BITMAP
FC
FC
FC
FC
FC
FC
ENDCHAR
STARTCHAR LOWER
ENCODING 9601
SWIDTH 545 0
DWIDTH 6 0
BBX 6 1 0 -2
BITMAP
FC
ENDCHAR
STARTCHAR LOWER
ENCODING 9602
SWIDTH 545 0
DWIDTH 6 0
BBX 6 2 0 -2
BITMAP
FC
FC
ENDCHAR
STARTCHAR LOWER
ENCODING 9603
SWIDTH 545 0
DWIDTH 6 0
BBX 6 4 0 -2
BITMAP
FC
FC
FC
FC
ENDCHAR
STARTCHAR LOWER
ENCODING 9604
SWIDTH 545 0
DWIDTH 6 0
BBX 6 5 0 -2
BITMAP
FC
FC
FC
FC
FC
ENDCHAR
STARTCHAR LOWER
ENCODING 9605
SWIDTH 545 0
DWIDTH 6 0
BBX 6 6 0 -2
BITMAP
FC
FC
FC
FC
FC
FC
ENDCHAR
STARTCHAR LOWER
ENCODING 9606
SWIDTH 545 0
DWIDTH 6 0
BBX 6 8 0 -2
BITMAP
FC
FC
FC
FC
FC
FC
FC
FC
ENDCHAR
STARTCHAR LOWER
ENCODING 9607
SWIDTH 545 0
DWIDTH 6 0
BBX 6 9 0 -2
BITMAP
FC
FC
FC
FC
FC
FC
FC
FC
FC
ENDCHAR
STARTCHAR FULL
ENCODING 9608
SWIDTH 545 0
DWIDTH 6 0
BBX 6 11 0 -2
BITMAP
FC
FC
FC
FC
FC
FC
FC
FC
FC
FC
FC
ENDCHAR
STARTCHAR LEFT
ENCODING 9609
SWIDTH 545 0
DWIDTH 6 0
BBX 5 11 0 -2
BITMAP
F8
F8
F8
F8
F8
F8
F8
F8
F8
F8
F8
ENDCHAR
STARTCHAR LEFT
ENCODING 9610
SWIDTH 545 0
DWIDTH 6 0
BBX 4 11 0 -2
BITMAP
F0
F0
F0
F0
F0
F0
F0
F0
F0
F0
F0
ENDCHAR
STARTCHAR LEFT
ENCODING 9611
SWIDTH 545 0
DWIDTH 6 0
BBX 4 11 0 -2
BITMAP
F0
F0
F0
F0
F0
F0
F0
F0
F0
F0
F0
ENDCHAR
STARTCHAR LEFT
ENCODING 9612
SWIDTH 545 0
DWIDTH 6 0
BBX 3 11 0 -2
BITMAP
E0
E0
E0
E0
E0
E0
E0
E0
E0
E0
E0
ENDCHAR
STARTCHAR LEFT
ENCODING 9613
SWIDTH 545 0
DWIDTH 6 0
BBX 2 11 0 -2
BITMAP
C0
C0
C0
C0
C0
C0
C0
C0
C0
C0
C0
ENDCHAR
STARTCHAR LEFT
ENCODING 9614
SWIDTH 545 0
DWIDTH 6 0
BBX 2 11 0 -2
BITMAP
C0
C0
C0
C0
C0
C0
C0
C0
C0
C0
C0
ENDCHAR
STARTCHAR LEFT
ENCODING 9615
SWIDTH 545 0
DWIDTH 6 0
BBX 1 11 0 -2
BITMAP
80
80
80
80
80
80
80
80
80
80
80
ENDCHAR
STARTCHAR RIGHT
ENCODING 9616
SWIDTH 545 0
DWIDTH 6 0
BBX 3 11 3 -2
BITMAP
E0
E0
E0
E0
E0
E0
E0
E0
E0
E0
E0
ENDCHAR
STARTCHAR LIGHT
ENCODING 9617
SWIDTH 545 0
DWIDTH 6 0
BBX 6 9 0 -1
BITMAP
A8
00
54
00
A8
00
54
00
A8
ENDCHAR
STARTCHAR MEDIUM
ENCODING 9618
SWIDTH 545 0
DWIDTH 6 0
BBX 6 11 0 -2
BITMAP
54
A8
54
A8
54
A8
54
A8
54
A8
54
ENDCHAR
STARTCHAR DARK
ENCODING 9619
SWIDTH 545 0
DWIDTH 6 0
BBX 6 11 0 -2
BITMAP
FC
A8
FC
54
FC
A8
FC
54
FC
A8
FC
ENDCHAR
STARTCHAR UPPER
ENCODING 9620
SWIDTH 545 0
DWIDTH 6 0
BBX 6 1 0 8
BITMAP
FC
ENDCHAR
STARTCHAR RIGHT
ENCODING 9621
SWIDTH 545 0
DWIDTH 6 0
BBX 1 11 5 -2
BITMAP
80
80
80
80
80
80
80
80
80
80
80
ENDCHAR
STARTCHAR QUADRANT
ENCODING 9622
SWIDTH 545 0
DWIDTH 6 0
BBX 3 5 0 -2
BITMAP
E0
E0
E0
E0
E0
ENDCHAR
STARTCHAR QUADRANT
ENCODING 9623
SWIDTH 545 0
DWIDTH 6 0
BBX 3 5 3 -2
BITMAP
E0
E0
E0
E0
E0
ENDCHAR
STARTCHAR QUADRANT
ENCODING 9624
SWIDTH 545 0
DWIDTH 6 0
BBX 3 6 0 3
BITMAP
E0
E0
E0
E0
E0
E0
ENDCHAR
STARTCHAR QUADRANT
ENCODING 9625
SWIDTH 545 0
DWIDTH 6 0
BBX 6 11 0 -2
BITMAP
E0
E0
E0
E0
E0
E0
FC
FC
FC
FC
FC
ENDCHAR
STARTCHAR QUADRANT
ENCODING 9626
SWIDTH 545 0
DWIDTH 6 0
BBX 6 11 0 -2
BITMAP
E0
E0
E0
E0
E0
E0
1C
1C
1C
1C
1C
ENDCHAR
STARTCHAR QUADRANT
ENCODING 9627
SWIDTH 545 0
DWIDTH 6 0
BBX 6 11 0 -2
BITMAP
FC
FC
FC
FC
FC
FC
E0
E0
E0
E0
E0
ENDCHAR
STARTCHAR QUADRANT
ENCODING 9628
SWIDTH 545 0
DWIDTH 6 0
BBX 6 11 0 -2
BITMAP
FC
FC
FC
FC
FC
FC
1C
1C
1C
1C
1C
ENDCHAR
STARTCHAR QUADRANT
ENCODING 9629
SWIDTH 545 0
DWIDTH 6 0
BBX 3 6 3 3
BITMAP
E0
E0
E0
E0
E0
E0
ENDCHAR
STARTCHAR QUADRANT
ENCODING 9630
SWIDTH 545 0
DWIDTH 6 0
BBX 6 11 0 -2
BITMAP
1C
1C
1C
1C
1C
1C
E0
E0
E0
E0
E0
ENDCHAR
STARTCHAR QUADRANT
ENCODING 9631
SWIDTH 545 0
DWIDTH 6 0
BBX 6 11 0 -2
BITMAP
1C
1C
1C
1C
1C
1C
FC
FC
FC
FC
FC
ENDCHAR
STARTCHAR BLACK
ENCODING 9632
SWIDTH 545 0
DWIDTH 6 0
BBX 5 5 0 0
BITMAP
F8
F8
F8
F8
F8
ENDCHAR
STARTCHAR WHITE
ENCODING 9633
SWIDTH 545 0
DWIDTH 6 0
BBX 5 5 0 0
BITMAP
F8
88
88
88
F8
ENDCHAR
STARTCHAR BLACK
ENCODING 9642
SWIDTH 545 0
DWIDTH 6 0
BBX 4 4 1 0
BITMAP
F0
F0
F0
F0
ENDCHAR
STARTCHAR WHITE
ENCODING 9643
SWIDTH 545 0
DWIDTH 6 0
BBX 4 4 1 0
BITMAP
F0
90
90
F0
ENDCHAR
STARTCHAR BLACK
ENCODING 9644
SWIDTH 545 0
DWIDTH 6 0
BBX 6 4 0 0
BITMAP
FC
FC
FC
FC
ENDCHAR
STARTCHAR BLACK
ENCODING 9646
SWIDTH 545 0
DWIDTH 6 0
BBX 4 6 1 -1
BITMAP
F0
F0
F0
F0
F0
F0
ENDCHAR
STARTCHAR BLACK
ENCODING 9650
SWIDTH 545 0
DWIDTH 6 0
BBX 5 6 0 0
BITMAP
20
20
70
70
F8
F8
ENDCHAR
STARTCHAR WHITE
ENCODING 9651
SWIDTH 545 0
DWIDTH 6 0
BBX 5 6 0 0
BITMAP
20
20
50
50
88
F8
ENDCHAR
STARTCHAR BLACK
ENCODING 9658
SWIDTH 545 0
DWIDTH 6 0
BBX 6 5 0 0
BITMAP
C0
F0
FC
F0
C0
ENDCHAR
STARTCHAR WHITE
ENCODING 9659
SWIDTH 545 0
DWIDTH 6 0
BBX 6 5 0 0
BITMAP
C0
B0
8C
B0
C0
ENDCHAR
STARTCHAR BLACK
ENCODING 9660
SWIDTH 545 0
DWIDTH 6 0
BBX 5 6 0 0
BITMAP
F8
F8
70
70
20
20
ENDCHAR
STARTCHAR WHITE
ENCODING 9661
SWIDTH 545 0
DWIDTH 6 0
BBX 5 6 0 0
BITMAP
F8
88
50
50
20
20
ENDCHAR
STARTCHAR BLACK
ENCODING 9668
SWIDTH 545 0
DWIDTH 6 0
BBX 6 5 0 0
BITMAP
0C
3C
FC
3C
0C
ENDCHAR
STARTCHAR WHITE
ENCODING 9669
SWIDTH 545 0
DWIDTH 6 0
BBX 6 5 0 0
BITMAP
0C
34
C4
34
0C
ENDCHAR
STARTCHAR BLACK
ENCODING 9670
SWIDTH 545 0
DWIDTH 6 0
BBX 5 5 0 1
BITMAP
20
70
F8
70
20
ENDCHAR
STARTCHAR LOZENGE
ENCODING 9674
SWIDTH 545 0
DWIDTH 6 0
BBX 5 7 0 0
BITMAP
20
50
50
88
50
50
20
ENDCHAR
STARTCHAR WHITE
ENCODING 9675
SWIDTH 545 0
DWIDTH 6 0
BBX 5 5 0 0
BITMAP
70
88
88
88
70
ENDCHAR
STARTCHAR DOTTED
ENCODING 9676
SWIDTH 545 0
DWIDTH 6 0
BBX 5 5 0 0
BITMAP
70
F8
F8
F8
70
ENDCHAR
STARTCHAR BLACK
ENCODING 9679
SWIDTH 545 0
DWIDTH 6 0
BBX 5 5 0 0
BITMAP
70
F8
F8
F8
70
ENDCHAR
STARTCHAR INVERSE
ENCODING 9688
SWIDTH 545 0
DWIDTH 6 0
BBX 6 11 0 -2
BITMAP
FC
FC
FC
FC
CC
84
84
CC
FC
FC
FC
ENDCHAR
STARTCHAR INVERSE
ENCODING 9689
SWIDTH 545 0
DWIDTH 6 0
BBX 6 11 0 -2
BITMAP
FC
FC
FC
FC
CC
B4
B4
CC
FC
FC
FC
ENDCHAR
STARTCHAR WHITE
ENCODING 9702
SWIDTH 545 0
DWIDTH 6 0
BBX 4 4 1 1
BITMAP
60
90
90
60
ENDCHAR
STARTCHAR BLACK
ENCODING 9728
SWIDTH 545 0
DWIDTH 6 0
BBX 6 8 0 -1
BITMAP
10
54
00
B0
34
00
A8
20
ENDCHAR
STARTCHAR WHITE
ENCODING 9786
SWIDTH 545 0
DWIDTH 6 0
BBX 6 7 0 -1
BITMAP
78
84
CC
84
B4
84
78
ENDCHAR
STARTCHAR BLACK
ENCODING 9787
SWIDTH 545 0
DWIDTH 6 0
BBX 5 7 0 0
BITMAP
70
F8
A8
F8
A8
D8
70
ENDCHAR
STARTCHAR WHITE
ENCODING 9788
SWIDTH 545 0
DWIDTH 6 0
BBX 6 8 0 -1
BITMAP
10
54
00
B0
34
00
A8
20
ENDCHAR
STARTCHAR MERCURY
ENCODING 9791
SWIDTH 545 0
DWIDTH 6 0
BBX 5 9 0 -2
BITMAP
88
70
88
88
88
70
20
70
20
ENDCHAR
STARTCHAR FEMALE
ENCODING 9792
SWIDTH 545 0
DWIDTH 6 0
BBX 5 8 0 -2
BITMAP
70
88
88
88
70
20
70
20
ENDCHAR
STARTCHAR EARTH
ENCODING 9793
SWIDTH 545 0
DWIDTH 6 0
BBX 5 8 0 0
BITMAP
20
70
20
70
88
88
88
70
ENDCHAR
STARTCHAR MALE
ENCODING 9794
SWIDTH 545 0
DWIDTH 6 0
BBX 6 7 0 0
BITMAP
1C
0C
74
88
88
88
70
ENDCHAR
STARTCHAR BLACK
ENCODING 9824
SWIDTH 545 0
DWIDTH 6 0
BBX 5 7 0 0
BITMAP
20
20
70
F8
F8
20
70
ENDCHAR
STARTCHAR WHITE
ENCODING 9825
SWIDTH 545 0
DWIDTH 6 0
BBX 5 6 0 0
BITMAP
50
A8
A8
88
50
20
ENDCHAR
STARTCHAR WHITE
ENCODING 9826
SWIDTH 545 0
DWIDTH 6 0
BBX 5 8 0 0
BITMAP
20
50
50
88
88
50
50
20
ENDCHAR
STARTCHAR BLACK
ENCODING 9827
SWIDTH 545 0
DWIDTH 6 0
BBX 5 7 0 0
BITMAP
70
20
A8
F8
A8
20
70
ENDCHAR
STARTCHAR WHITE
ENCODING 9828
SWIDTH 545 0
DWIDTH 6 0
BBX 5 7 0 0
BITMAP
20
20
50
88
D8
20
70
ENDCHAR
STARTCHAR BLACK
ENCODING 9829
SWIDTH 545 0
DWIDTH 6 0
BBX 5 6 0 0
BITMAP
50
F8
F8
F8
70
20
ENDCHAR
STARTCHAR BLACK
ENCODING 9830
SWIDTH 545 0
DWIDTH 6 0
BBX 5 8 0 0
BITMAP
20
70
70
F8
F8
70
70
20
ENDCHAR
STARTCHAR EIGHTH
ENCODING 9834
SWIDTH 545 0
DWIDTH 6 0
BBX 5 6 0 0
BITMAP
30
28
20
60
E0
60
ENDCHAR
STARTCHAR BEAMED
ENCODING 9835
SWIDTH 545 0
DWIDTH 6 0
BBX 5 7 0 0
BITMAP
60
50
48
48
C8
D8
18
ENDCHAR
STARTCHAR BEAMED
ENCODING 9836
SWIDTH 545 0
DWIDTH 6 0
BBX 5 7 0 0
BITMAP
60
50
68
58
C8
D8
18
ENDCHAR
STARTCHAR MUSIC
ENCODING 9837
SWIDTH 545 0
DWIDTH 6 0
BBX 4 7 1 0
BITMAP
80
80
A0
D0
90
A0
C0
ENDCHAR
STARTCHAR MUSIC
ENCODING 9838
SWIDTH 545 0
DWIDTH 6 0
BBX 4 8 1 -1
BITMAP
80
90
B0
D0
B0
D0
90
10
ENDCHAR
STARTCHAR MUSIC
ENCODING 9839
SWIDTH 545 0
DWIDTH 6 0
BBX 5 8 0 -1
BITMAP
10
58
70
D0
58
70
D0
40
ENDCHAR
STARTCHAR MATHEMATICAL
ENCODING 10216
SWIDTH 545 0
DWIDTH 6 0
BBX 3 7 1 0
BITMAP
20
40
40
80
40
40
20
ENDCHAR
STARTCHAR MATHEMATICAL
ENCODING 10217
SWIDTH 545 0
DWIDTH 6 0
BBX 3 7 1 0
BITMAP
80
40
40
20
40
40
80
ENDCHAR
STARTCHAR BRAILLE
ENCODING 10240
SWIDTH 545 0
DWIDTH 6 0
BBX 1 1 5 -2
BITMAP
00
ENDCHAR
STARTCHAR BRAILLE
ENCODING 10241
SWIDTH 545 0
DWIDTH 6 0
BBX 1 1 1 6
BITMAP
80
ENDCHAR
STARTCHAR BRAILLE
ENCODING 10242
SWIDTH 545 0
DWIDTH 6 0
BBX 1 1 1 4
BITMAP
80
ENDCHAR
STARTCHAR BRAILLE
ENCODING 10243
SWIDTH 545 0
DWIDTH 6 0
BBX 1 3 1 4
BITMAP
80
00
80
ENDCHAR
STARTCHAR BRAILLE
ENCODING 10244
SWIDTH 545 0
DWIDTH 6 0
BBX 1 1 1 2
BITMAP
80
ENDCHAR
STARTCHAR BRAILLE
ENCODING 10245
SWIDTH 545 0
DWIDTH 6 0
BBX 1 5 1 2
BITMAP
80
00
00
00
80
ENDCHAR
STARTCHAR BRAILLE
ENCODING 10246
SWIDTH 545 0
DWIDTH 6 0
BBX 1 3 1 2
BITMAP
80
00
80
ENDCHAR
STARTCHAR BRAILLE
ENCODING 10247
SWIDTH 545 0
DWIDTH 6 0
BBX 1 5 1 2
BITMAP
80
00
80
00
80
ENDCHAR
STARTCHAR BRAILLE
ENCODING 10248
SWIDTH 545 0
DWIDTH 6 0
BBX 1 1 3 6
BITMAP
80
ENDCHAR
STARTCHAR BRAILLE
ENCODING 10249
SWIDTH 545 0
DWIDTH 6 0
BBX 3 1 1 6
BITMAP
A0
ENDCHAR
STARTCHAR BRAILLE
ENCODING 10250
SWIDTH 545 0
DWIDTH 6 0
BBX 3 3 1 4
BITMAP
20
00
80
ENDCHAR
STARTCHAR BRAILLE
ENCODING 10251
SWIDTH 545 0
DWIDTH 6 0
BBX 3 3 1 4
BITMAP
A0
00
80
ENDCHAR
STARTCHAR BRAILLE
ENCODING 10252
SWIDTH 545 0
DWIDTH 6 0
BBX 3 5 1 2
BITMAP
20
00
00
00
80
ENDCHAR
STARTCHAR BRAILLE
ENCODING 10253
SWIDTH 545 0
DWIDTH 6 0
BBX 3 5 1 2
BITMAP
A0
00
00
00
80
ENDCHAR
STARTCHAR BRAILLE
ENCODING 10254
SWIDTH 545 0
DWIDTH 6 0
BBX 3 5 1 2
BITMAP
20
00
80
00
80
ENDCHAR
STARTCHAR BRAILLE
ENCODING 10255
SWIDTH 545 0
DWIDTH 6 0
BBX 3 5 1 2
BITMAP
A0
00
80
00
80
ENDCHAR
STARTCHAR BRAILLE
ENCODING 10256
SWIDTH 545 0
DWIDTH 6 0
BBX 1 1 3 4
BITMAP
80
ENDCHAR
STARTCHAR BRAILLE
ENCODING 10257
SWIDTH 545 0
DWIDTH 6 0
BBX 3 3 1 4
BITMAP
80
00
20
ENDCHAR
STARTCHAR BRAILLE
ENCODING 10258
SWIDTH 545 0
DWIDTH 6 0
BBX 3 1 1 4
BITMAP
A0
ENDCHAR
STARTCHAR BRAILLE
ENCODING 10259
SWIDTH 545 0
DWIDTH 6 0
BBX 3 3 1 4
BITMAP
80
00
A0
ENDCHAR
STARTCHAR BRAILLE
ENCODING 10260
SWIDTH 545 0
DWIDTH 6 0
BBX 3 3 1 2
BITMAP
20
00
80
ENDCHAR
STARTCHAR BRAILLE
ENCODING 10261
SWIDTH 545 0
DWIDTH 6 0
BBX 3 5 1 2
BITMAP
80
00
20
00
80
ENDCHAR
STARTCHAR BRAILLE
ENCODING 10262
SWIDTH 545 0
DWIDTH 6 0
BBX 3 3 1 2
BITMAP
A0
00
80
ENDCHAR
STARTCHAR BRAILLE
ENCODING 10263
SWIDTH 545 0
DWIDTH 6 0
BBX 3 5 1 2
BITMAP
80
00
A0
00
80
ENDCHAR
STARTCHAR BRAILLE
ENCODING 10264
SWIDTH 545 0
DWIDTH 6 0
BBX 1 3 3 4
BITMAP
80
00
80
ENDCHAR
STARTCHAR BRAILLE
ENCODING 10265
SWIDTH 545 0
DWIDTH 6 0
BBX 3 3 1 4
BITMAP
A0
00
20
ENDCHAR
STARTCHAR BRAILLE
ENCODING 10266
SWIDTH 545 0
DWIDTH 6 0
BBX 3 3 1 4
BITMAP
20
00
A0
ENDCHAR
STARTCHAR BRAILLE
ENCODING 10267
SWIDTH 545 0
DWIDTH 6 0
BBX 3 3 1 4
BITMAP
A0
00
A0
ENDCHAR
STARTCHAR BRAILLE
ENCODING 10268
SWIDTH 545 0
DWIDTH 6 0
BBX 3 5 1 2
BITMAP
20
00
20
00
80
ENDCHAR
STARTCHAR BRAILLE
ENCODING 10269
SWIDTH 545 0
DWIDTH 6 0
BBX 3 5 1 2
BITMAP
A0
00
20
00
80
ENDCHAR
STARTCHAR BRAILLE
ENCODING 10270
SWIDTH 545 0
DWIDTH 6 0
BBX 3 5 1 2
BITMAP
20
00
A0
00
80
ENDCHAR
STARTCHAR BRAILLE
ENCODING 10271
SWIDTH 545 0
DWIDTH 6 0
BBX 3 5 1 2
BITMAP
A0
00
A0
00
80
ENDCHAR
STARTCHAR BRAILLE
ENCODING 10272
SWIDTH 545 0
DWIDTH 6 0
BBX 1 1 3 2
BITMAP
80
ENDCHAR
STARTCHAR BRAILLE
ENCODING 10273
SWIDTH 545 0
DWIDTH 6 0
BBX 3 5 1 2
BITMAP
80
00
00
00
20
ENDCHAR
STARTCHAR BRAILLE
ENCODING 10274
SWIDTH 545 0
DWIDTH 6 0
BBX 3 3 1 2
BITMAP
80
00
20
ENDCHAR
STARTCHAR BRAILLE
ENCODING 10275
SWIDTH 545 0
DWIDTH 6 0
BBX 3 5 1 2
BITMAP
80
00
80
00
20
ENDCHAR
STARTCHAR BRAILLE
ENCODING 10276
SWIDTH 545 0
DWIDTH 6 0
BBX 3 1 1 2
BITMAP
A0
ENDCHAR
STARTCHAR BRAILLE
ENCODING 10277
SWIDTH 545 0
DWIDTH 6 0
BBX 3 5 1 2
BITMAP
80
00
00
00
A0
ENDCHAR
STARTCHAR BRAILLE
ENCODING 10278
SWIDTH 545 0
DWIDTH 6 0
BBX 3 3 1 2
BITMAP
80
00
A0
ENDCHAR
STARTCHAR BRAILLE
ENCODING 10279
SWIDTH 545 0
DWIDTH 6 0
BBX 3 5 1 2
BITMAP
80
00
80
00
A0
ENDCHAR
STARTCHAR BRAILLE
ENCODING 10280
SWIDTH 545 0
DWIDTH 6 0
BBX 1 5 3 2
BITMAP
80
00
00
00
80
ENDCHAR
STARTCHAR BRAILLE
ENCODING 10281
SWIDTH 545 0
DWIDTH 6 0
BBX 3 5 1 2
BITMAP
A0
00
00
00
20
ENDCHAR
STARTCHAR BRAILLE
ENCODING 10282
SWIDTH 545 0
DWIDTH 6 0
BBX 3 5 1 2
BITMAP
20
00
80
00
20
ENDCHAR
STARTCHAR BRAILLE
ENCODING 10283
SWIDTH 545 0
DWIDTH 6 0
BBX 3 5 1 2
BITMAP
A0
00
80
00
20
ENDCHAR
STARTCHAR BRAILLE
ENCODING 10284
SWIDTH 545 0
DWIDTH 6 0
BBX 3 5 1 2
BITMAP
20
00
00
00
A0
ENDCHAR
STARTCHAR BRAILLE
ENCODING 10285
SWIDTH 545 0
DWIDTH 6 0
BBX 3 5 1 2
BITMAP
A0
00
00
00
A0
ENDCHAR
STARTCHAR BRAILLE
ENCODING 10286
SWIDTH 545 0
DWIDTH 6 0
BBX 3 5 1 2
BITMAP
20
00
80
00
A0
ENDCHAR
STARTCHAR BRAILLE
ENCODING 10287
SWIDTH 545 0
DWIDTH 6 0
BBX 3 5 1 2
BITMAP
A0
00
80
00
A0
ENDCHAR
STARTCHAR BRAILLE
ENCODING 10288
SWIDTH 545 0
DWIDTH 6 0
BBX 1 3 3 2
BITMAP
80
00
80
ENDCHAR
STARTCHAR BRAILLE
ENCODING 10289
SWIDTH 545 0
DWIDTH 6 0
BBX 3 5 1 2
BITMAP
80
00
20
00
20
ENDCHAR
STARTCHAR BRAILLE
ENCODING 10290
SWIDTH 545 0
DWIDTH 6 0
BBX 3 3 1 2
BITMAP
A0
00
20
ENDCHAR
STARTCHAR BRAILLE
ENCODING 10291
SWIDTH 545 0
DWIDTH 6 0
BBX 3 5 1 2
BITMAP
80
00
A0
00
20
ENDCHAR
STARTCHAR BRAILLE
ENCODING 10292
SWIDTH 545 0
DWIDTH 6 0
BBX 3 3 1 2
BITMAP
20
00
A0
ENDCHAR
STARTCHAR BRAILLE
ENCODING 10293
SWIDTH 545 0
DWIDTH 6 0
BBX 3 5 1 2
BITMAP
80
00
20
00
A0
ENDCHAR
STARTCHAR BRAILLE
ENCODING 10294
SWIDTH 545 0
DWIDTH 6 0
BBX 3 3 1 2
BITMAP
A0
00
A0
ENDCHAR
STARTCHAR BRAILLE
ENCODING 10295
SWIDTH 545 0
DWIDTH 6 0
BBX 3 5 1 2
BITMAP
80
00
A0
00
A0
ENDCHAR
STARTCHAR BRAILLE
ENCODING 10296
SWIDTH 545 0
DWIDTH 6 0
BBX 1 5 3 2
BITMAP
80
00
80
00
80
ENDCHAR
STARTCHAR BRAILLE
ENCODING 10297
SWIDTH 545 0
DWIDTH 6 0
BBX 3 5 1 2
BITMAP
A0
00
20
00
20
ENDCHAR
STARTCHAR BRAILLE
ENCODING 10298
SWIDTH 545 0
DWIDTH 6 0
BBX 3 5 1 2
BITMAP
20
00
A0
00
20
ENDCHAR
STARTCHAR BRAILLE
ENCODING 10299
SWIDTH 545 0
DWIDTH 6 0
BBX 3 5 1 2
BITMAP
A0
00
A0
00
20
ENDCHAR
STARTCHAR BRAILLE
ENCODING 10300
SWIDTH 545 0
DWIDTH 6 0
BBX 3 5 1 2
BITMAP
20
00
20
00
A0
ENDCHAR
STARTCHAR BRAILLE
ENCODING 10301
SWIDTH 545 0
DWIDTH 6 0
BBX 3 5 1 2
BITMAP
A0
00
20
00
A0
ENDCHAR
STARTCHAR BRAILLE
ENCODING 10302
SWIDTH 545 0
DWIDTH 6 0
BBX 3 5 1 2
BITMAP
20
00
A0
00
A0
ENDCHAR
STARTCHAR BRAILLE
ENCODING 10303
SWIDTH 545 0
DWIDTH 6 0
BBX 3 5 1 2
BITMAP
A0
00
A0
00
A0
ENDCHAR
STARTCHAR BRAILLE
ENCODING 10304
SWIDTH 545 0
DWIDTH 6 0
BBX 1 1 1 0
BITMAP
80
ENDCHAR
STARTCHAR BRAILLE
ENCODING 10305
SWIDTH 545 0
DWIDTH 6 0
BBX 1 7 1 0
BITMAP
80
00
00
00
00
00
80
ENDCHAR
STARTCHAR BRAILLE
ENCODING 10306
SWIDTH 545 0
DWIDTH 6 0
BBX 1 5 1 0
BITMAP
80
00
00
00
80
ENDCHAR
STARTCHAR BRAILLE
ENCODING 10307
SWIDTH 545 0
DWIDTH 6 0
BBX 1 7 1 0
BITMAP
80
00
80
00
00
00
80
ENDCHAR
STARTCHAR BRAILLE
ENCODING 10308
SWIDTH 545 0
DWIDTH 6 0
BBX 1 3 1 0
BITMAP
80
00
80
ENDCHAR
STARTCHAR BRAILLE
ENCODING 10309
SWIDTH 545 0
DWIDTH 6 0
BBX 1 7 1 0
BITMAP
80
00
00
00
80
00
80
ENDCHAR
STARTCHAR BRAILLE
ENCODING 10310
SWIDTH 545 0
DWIDTH 6 0
BBX 1 5 1 0
BITMAP
80
00
80
00
80
ENDCHAR
STARTCHAR BRAILLE
ENCODING 10311
SWIDTH 545 0
DWIDTH 6 0
BBX 1 7 1 0
BITMAP
80
00
80
00
80
00
80
ENDCHAR
STARTCHAR BRAILLE
ENCODING 10312
SWIDTH 545 0
DWIDTH 6 0
BBX 3 7 1 0
BITMAP
20
00
00
00
00
00
80
ENDCHAR
STARTCHAR BRAILLE
ENCODING 10313
SWIDTH 545 0
DWIDTH 6 0
BBX 3 7 1 0
BITMAP
A0
00
00
00
00
00
80
ENDCHAR
STARTCHAR BRAILLE
ENCODING 10314
SWIDTH 545 0
DWIDTH 6 0
BBX 3 7 1 0
BITMAP
20
00
80
00
00
00
80
ENDCHAR
STARTCHAR BRAILLE
ENCODING 10315
SWIDTH 545 0
DWIDTH 6 0
BBX 3 7 1 0
BITMAP
A0
00
80
00
00
00
80
ENDCHAR
STARTCHAR BRAILLE
ENCODING 10316
SWIDTH 545 0
DWIDTH 6 0
BBX 3 7 1 0
BITMAP
20
00
00
00
80
00
80
ENDCHAR
STARTCHAR BRAILLE
ENCODING 10317
SWIDTH 545 0
DWIDTH 6 0
BBX 3 7 1 0
BITMAP
A0
00
00
00
80
00
80
ENDCHAR
STARTCHAR BRAILLE
ENCODING 10318
SWIDTH 545 0
DWIDTH 6 0
BBX 3 7 1 0
BITMAP
20
00
80
00
80
00
80
ENDCHAR
STARTCHAR BRAILLE
ENCODING 10319
SWIDTH 545 0
DWIDTH 6 0
BBX 3 7 1 0
BITMAP
A0
00
80
00
80
00
80
ENDCHAR
STARTCHAR BRAILLE
ENCODING 10320
SWIDTH 545 0
DWIDTH 6 0
BBX 3 5 1 0
BITMAP
20
00
00
00
80
ENDCHAR
STARTCHAR BRAILLE
ENCODING 10321
SWIDTH 545 0
DWIDTH 6 0
BBX 3 7 1 0
BITMAP
80
00
20
00
00
00
80
ENDCHAR
STARTCHAR BRAILLE
ENCODING 10322
SWIDTH 545 0
DWIDTH 6 0
BBX 3 5 1 0
BITMAP
A0
00
00
00
80
ENDCHAR
STARTCHAR BRAILLE
ENCODING 10323
SWIDTH 545 0
DWIDTH 6 0
BBX 3 7 1 0
BITMAP
80
00
A0
00
00
00
80
ENDCHAR
STARTCHAR BRAILLE
ENCODING 10324
SWIDTH 545 0
DWIDTH 6 0
BBX 3 5 1 0
BITMAP
20
00
80
00
80
ENDCHAR
STARTCHAR BRAILLE
ENCODING 10325
SWIDTH 545 0
DWIDTH 6 0
BBX 3 7 1 0
BITMAP
80
00
20
00
80
00
80
ENDCHAR
STARTCHAR BRAILLE
ENCODING 10326
SWIDTH 545 0
DWIDTH 6 0
BBX 3 5 1 0
BITMAP
A0
00
80
00
80
ENDCHAR
STARTCHAR BRAILLE
ENCODING 10327
SWIDTH 545 0
DWIDTH 6 0
BBX 3 7 1 0
BITMAP
80
00
A0
00
80
00
80
ENDCHAR
STARTCHAR BRAILLE
ENCODING 10328
SWIDTH 545 0
DWIDTH 6 0
BBX 3 7 1 0
BITMAP
20
00
20
00
00
00
80
ENDCHAR
STARTCHAR BRAILLE
ENCODING 10329
SWIDTH 545 0
DWIDTH 6 0
BBX 3 7 1 0
BITMAP
A0
00
20
00
00
00
80
ENDCHAR
STARTCHAR BRAILLE
ENCODING 10330
SWIDTH 545 0
DWIDTH 6 0
BBX 3 7 1 0
BITMAP
20
00
A0
00
00
00
80
ENDCHAR
STARTCHAR BRAILLE
ENCODING 10331
SWIDTH 545 0
DWIDTH 6 0
BBX 3 7 1 0
BITMAP
A0
00
A0
00
00
00
80
ENDCHAR
STARTCHAR BRAILLE
ENCODING 10332
SWIDTH 545 0
DWIDTH 6 0
BBX 3 7 1 0
BITMAP
20
00
20
00
80
00
80
ENDCHAR
STARTCHAR BRAILLE
ENCODING 10333
SWIDTH 545 0
DWIDTH 6 0
BBX 3 7 1 0
BITMAP
A0
00
20
00
80
00
80
ENDCHAR
STARTCHAR BRAILLE
ENCODING 10334
SWIDTH 545 0
DWIDTH 6 0
BBX 3 7 1 0
BITMAP
20
00
A0
00
80
00
80
ENDCHAR
STARTCHAR BRAILLE
ENCODING 10335
SWIDTH 545 0
DWIDTH 6 0
BBX 3 7 1 0
BITMAP
A0
00
A0
00
80
00
80
ENDCHAR
STARTCHAR BRAILLE
ENCODING 10336
SWIDTH 545 0
DWIDTH 6 0
BBX 3 3 1 0
BITMAP
20
00
80
ENDCHAR
STARTCHAR BRAILLE
ENCODING 10337
SWIDTH 545 0
DWIDTH 6 0
BBX 3 7 1 0
BITMAP
80
00
00
00
20
00
80
ENDCHAR
STARTCHAR BRAILLE
ENCODING 10338
SWIDTH 545 0
DWIDTH 6 0
BBX 3 5 1 0
BITMAP
80
00
20
00
80
ENDCHAR
STARTCHAR BRAILLE
ENCODING 10339
SWIDTH 545 0
DWIDTH 6 0
BBX 3 7 1 0
BITMAP
80
00
80
00
20
00
80
ENDCHAR
STARTCHAR BRAILLE
ENCODING 10340
SWIDTH 545 0
DWIDTH 6 0
BBX 3 3 1 0
BITMAP
A0
00
80
ENDCHAR
STARTCHAR BRAILLE
ENCODING 10341
SWIDTH 545 0
DWIDTH 6 0
BBX 3 7 1 0
BITMAP
80
00
00
00
A0
00
80
ENDCHAR
STARTCHAR BRAILLE
ENCODING 10342
SWIDTH 545 0
DWIDTH 6 0
BBX 3 5 1 0
BITMAP
80
00
A0
00
80
ENDCHAR
STARTCHAR BRAILLE
ENCODING 10343
SWIDTH 545 0
DWIDTH 6 0
BBX 3 7 1 0
BITMAP
80
00
80
00
A0
00
80
ENDCHAR
STARTCHAR BRAILLE
ENCODING 10344
SWIDTH 545 0
DWIDTH 6 0
BBX 3 7 1 0
BITMAP
20
00
00
00
20
00
80
ENDCHAR
STARTCHAR BRAILLE
ENCODING 10345
SWIDTH 545 0
DWIDTH 6 0
BBX 3 7 1 0
BITMAP
A0
00
00
00
20
00
80
ENDCHAR
STARTCHAR BRAILLE
ENCODING 10346
SWIDTH 545 0
DWIDTH 6 0
BBX 3 7 1 0
BITMAP
20
00
80
00
20
00
80
ENDCHAR
STARTCHAR BRAILLE
ENCODING 10347
SWIDTH 545 0
DWIDTH 6 0
BBX 3 7 1 0
BITMAP
A0
00
80
00
20
00
80
ENDCHAR
STARTCHAR BRAILLE
ENCODING 10348
SWIDTH 545 0
DWIDTH 6 0
BBX 3 7 1 0
BITMAP
20
00
00
00
A0
00
80
ENDCHAR
STARTCHAR BRAILLE
ENCODING 10349
SWIDTH 545 0
DWIDTH 6 0
BBX 3 7 1 0
BITMAP
A0
00
00
00
A0
00
80
ENDCHAR
STARTCHAR BRAILLE
ENCODING 10350
SWIDTH 545 0
DWIDTH 6 0
BBX 3 7 1 0
BITMAP
20
00
80
00
A0
00
80
ENDCHAR
STARTCHAR BRAILLE
ENCODING 10351
SWIDTH 545 0
DWIDTH 6 0
BBX 3 7 1 0
BITMAP
A0
00
80
00
A0
00
80
ENDCHAR
STARTCHAR BRAILLE
ENCODING 10352
SWIDTH 545 0
DWIDTH 6 0
BBX 3 5 1 0
BITMAP
20
00
20
00
80
ENDCHAR
STARTCHAR BRAILLE
ENCODING 10353
SWIDTH 545 0
DWIDTH 6 0
BBX 3 7 1 0
BITMAP
80
00
20
00
20
00
80
ENDCHAR
STARTCHAR BRAILLE
ENCODING 10354
SWIDTH 545 0
DWIDTH 6 0
BBX 3 5 1 0
BITMAP
A0
00
20
00
80
ENDCHAR
STARTCHAR BRAILLE
ENCODING 10355
SWIDTH 545 0
DWIDTH 6 0
BBX 3 7 1 0
BITMAP
80
00
A0
00
20
00
80
ENDCHAR
STARTCHAR BRAILLE
ENCODING 10356
SWIDTH 545 0
DWIDTH 6 0
BBX 3 5 1 0
BITMAP
20
00
A0
00
80
ENDCHAR
STARTCHAR BRAILLE
ENCODING 10357
SWIDTH 545 0
DWIDTH 6 0
BBX 3 7 1 0
BITMAP
80
00
20
00
A0
00
80
ENDCHAR
STARTCHAR BRAILLE
ENCODING 10358
SWIDTH 545 0
DWIDTH 6 0
BBX 3 5 1 0
BITMAP
A0
00
A0
00
80
ENDCHAR
STARTCHAR BRAILLE
ENCODING 10359
SWIDTH 545 0
DWIDTH 6 0
BBX 3 7 1 0
BITMAP
80
00
A0
00
A0
00
80
ENDCHAR
STARTCHAR BRAILLE
ENCODING 10360
SWIDTH 545 0
DWIDTH 6 0
BBX 3 7 1 0
BITMAP
20
00
20
00
20
00
80
ENDCHAR
STARTCHAR BRAILLE
ENCODING 10361
SWIDTH 545 0
DWIDTH 6 0
BBX 3 7 1 0
BITMAP
A0
00
20
00
20
00
80
ENDCHAR
STARTCHAR BRAILLE
ENCODING 10362
SWIDTH 545 0
DWIDTH 6 0
BBX 3 7 1 0
BITMAP
20
00
A0
00
20
00
80
ENDCHAR
STARTCHAR BRAILLE
ENCODING 10363
SWIDTH 545 0
DWIDTH 6 0
BBX 3 7 1 0
BITMAP
A0
00
A0
00
20
00
80
ENDCHAR
STARTCHAR BRAILLE
ENCODING 10364
SWIDTH 545 0
DWIDTH 6 0
BBX 3 7 1 0
BITMAP
20
00
20
00
A0
00
80
ENDCHAR
STARTCHAR BRAILLE
ENCODING 10365
SWIDTH 545 0
DWIDTH 6 0
BBX 3 7 1 0
BITMAP
A0
00
20
00
A0
00
80
ENDCHAR
STARTCHAR BRAILLE
ENCODING 10366
SWIDTH 545 0
DWIDTH 6 0
BBX 3 7 1 0
BITMAP
20
00
A0
00
A0
00
80
ENDCHAR
STARTCHAR BRAILLE
ENCODING 10367
SWIDTH 545 0
DWIDTH 6 0
BBX 3 7 1 0
BITMAP
A0
00
A0
00
A0
00
80
ENDCHAR
STARTCHAR BRAILLE
ENCODING 10368
SWIDTH 545 0
DWIDTH 6 0
BBX 1 1 3 0
BITMAP
80
ENDCHAR
STARTCHAR BRAILLE
ENCODING 10369
SWIDTH 545 0
DWIDTH 6 0
BBX 3 7 1 0
BITMAP
80
00
00
00
00
00
20
ENDCHAR
STARTCHAR BRAILLE
ENCODING 10370
SWIDTH 545 0
DWIDTH 6 0
BBX 3 5 1 0
BITMAP
80
00
00
00
20
ENDCHAR
STARTCHAR BRAILLE
ENCODING 10371
SWIDTH 545 0
DWIDTH 6 0
BBX 3 7 1 0
BITMAP
80
00
80
00
00
00
20
ENDCHAR
STARTCHAR BRAILLE
ENCODING 10372
SWIDTH 545 0
DWIDTH 6 0
BBX 3 3 1 0
BITMAP
80
00
20
ENDCHAR
STARTCHAR BRAILLE
ENCODING 10373
SWIDTH 545 0
DWIDTH 6 0
BBX 3 7 1 0
BITMAP
80
00
00
00
80
00
20
ENDCHAR
STARTCHAR BRAILLE
ENCODING 10374
SWIDTH 545 0
DWIDTH 6 0
BBX 3 5 1 0
BITMAP
80
00
80
00
20
ENDCHAR
STARTCHAR BRAILLE
ENCODING 10375
SWIDTH 545 0
DWIDTH 6 0
BBX 3 7 1 0
BITMAP
80
00
80
00
80
00
20
ENDCHAR
STARTCHAR BRAILLE
ENCODING 10376
SWIDTH 545 0
DWIDTH 6 0
BBX 1 7 3 0
BITMAP
80
00
00
00
00
00
80
ENDCHAR
STARTCHAR BRAILLE
ENCODING 10377
SWIDTH 545 0
DWIDTH 6 0
BBX 3 7 1 0
BITMAP
A0
00
00
00
00
00
20
ENDCHAR
STARTCHAR BRAILLE
ENCODING 10378
SWIDTH 545 0
DWIDTH 6 0
BBX 3 7 1 0
BITMAP
20
00
80
00
00
00
20
ENDCHAR
STARTCHAR BRAILLE
ENCODING 10379
SWIDTH 545 0
DWIDTH 6 0
BBX 3 7 1 0
BITMAP
A0
00
80
00
00
00
20
ENDCHAR
STARTCHAR BRAILLE
ENCODING 10380
SWIDTH 545 0
DWIDTH 6 0
BBX 3 7 1 0
BITMAP
20
00
00
00
80
00
20
ENDCHAR
STARTCHAR BRAILLE
ENCODING 10381
SWIDTH 545 0
DWIDTH 6 0
BBX 3 7 1 0
BITMAP
A0
00
00
00
80
00
20
ENDCHAR
STARTCHAR BRAILLE
ENCODING 10382
SWIDTH 545 0
DWIDTH 6 0
BBX 3 7 1 0
BITMAP
20
00
80
00
80
00
20
ENDCHAR
STARTCHAR BRAILLE
ENCODING 10383
SWIDTH 545 0
DWIDTH 6 0
BBX 3 7 1 0
BITMAP
A0
00
80
00
80
00
20
ENDCHAR
STARTCHAR BRAILLE
ENCODING 10384
SWIDTH 545 0
DWIDTH 6 0
BBX 1 5 3 0
BITMAP
80
00
00
00
80
ENDCHAR
STARTCHAR BRAILLE
ENCODING 10385
SWIDTH 545 0
DWIDTH 6 0
BBX 3 7 1 0
BITMAP
80
00
20
00
00
00
20
ENDCHAR
STARTCHAR BRAILLE
ENCODING 10386
SWIDTH 545 0
DWIDTH 6 0
BBX 3 5 1 0
BITMAP
A0
00
00
00
20
ENDCHAR
STARTCHAR BRAILLE
ENCODING 10387
SWIDTH 545 0
DWIDTH 6 0
BBX 3 7 1 0
BITMAP
80
00
A0
00
00
00
20
ENDCHAR
STARTCHAR BRAILLE
ENCODING 10388
SWIDTH 545 0
DWIDTH 6 0
BBX 3 5 1 0
BITMAP
20
00
80
00
20
ENDCHAR
STARTCHAR BRAILLE
ENCODING 10389
SWIDTH 545 0
DWIDTH 6 0
BBX 3 7 1 0
BITMAP
80
00
20
00
80
00
20
ENDCHAR
STARTCHAR BRAILLE
ENCODING 10390
SWIDTH 545 0
DWIDTH 6 0
BBX 3 5 1 0
BITMAP
A0
00
80
00
20
ENDCHAR
STARTCHAR BRAILLE
ENCODING 10391
SWIDTH 545 0
DWIDTH 6 0
BBX 3 7 1 0
BITMAP
80
00
A0
00
80
00
20
ENDCHAR
STARTCHAR BRAILLE
ENCODING 10392
SWIDTH 545 0
DWIDTH 6 0
BBX 1 7 3 0
BITMAP
80
00
80
00
00
00
80
ENDCHAR
STARTCHAR BRAILLE
ENCODING 10393
SWIDTH 545 0
DWIDTH 6 0
BBX 3 7 1 0
BITMAP
A0
00
20
00
00
00
20
ENDCHAR
STARTCHAR BRAILLE
ENCODING 10394
SWIDTH 545 0
DWIDTH 6 0
BBX 3 7 1 0
BITMAP
20
00
A0
00
00
00
20
ENDCHAR
STARTCHAR BRAILLE
ENCODING 10395
SWIDTH 545 0
DWIDTH 6 0
BBX 3 7 1 0
BITMAP
A0
00
A0
00
00
00
20
ENDCHAR
STARTCHAR BRAILLE
ENCODING 10396
SWIDTH 545 0
DWIDTH 6 0
BBX 3 7 1 0
BITMAP
20
00
20
00
80
00
20
ENDCHAR
STARTCHAR BRAILLE
ENCODING 10397
SWIDTH 545 0
DWIDTH 6 0
BBX 3 7 1 0
BITMAP
A0
00
20
00
80
00
20
ENDCHAR
STARTCHAR BRAILLE
ENCODING 10398
SWIDTH 545 0
DWIDTH 6 0
BBX 3 7 1 0
BITMAP
20
00
A0
00
80
00
20
ENDCHAR
STARTCHAR BRAILLE
ENCODING 10399
SWIDTH 545 0
DWIDTH 6 0
BBX 3 7 1 0
BITMAP
A0
00
A0
00
80
00
20
ENDCHAR
STARTCHAR BRAILLE
ENCODING 10400
SWIDTH 545 0
DWIDTH 6 0
BBX 1 3 3 0
BITMAP
80
00
80
ENDCHAR
STARTCHAR BRAILLE
ENCODING 10401
SWIDTH 545 0
DWIDTH 6 0
BBX 3 7 1 0
BITMAP
80
00
00
00
20
00
20
ENDCHAR
STARTCHAR BRAILLE
ENCODING 10402
SWIDTH 545 0
DWIDTH 6 0
BBX 3 5 1 0
BITMAP
80
00
20
00
20
ENDCHAR
STARTCHAR BRAILLE
ENCODING 10403
SWIDTH 545 0
DWIDTH 6 0
BBX 3 7 1 0
BITMAP
80
00
80
00
20
00
20
ENDCHAR
STARTCHAR BRAILLE
ENCODING 10404
SWIDTH 545 0
DWIDTH 6 0
BBX 3 3 1 0
BITMAP
A0
00
20
ENDCHAR
STARTCHAR BRAILLE
ENCODING 10405
SWIDTH 545 0
DWIDTH 6 0
BBX 3 7 1 0
BITMAP
80
00
00
00
A0
00
20
ENDCHAR
STARTCHAR BRAILLE
ENCODING 10406
SWIDTH 545 0
DWIDTH 6 0
BBX 3 5 1 0
BITMAP
80
00
A0
00
20
ENDCHAR
STARTCHAR BRAILLE
ENCODING 10407
SWIDTH 545 0
DWIDTH 6 0
BBX 3 7 1 0
BITMAP
80
00
80
00
A0
00
20
ENDCHAR
STARTCHAR BRAILLE
ENCODING 10408
SWIDTH 545 0
DWIDTH 6 0
BBX 1 7 3 0
BITMAP
80
00
00
00
80
00
80
ENDCHAR
STARTCHAR BRAILLE
ENCODING 10409
SWIDTH 545 0
DWIDTH 6 0
BBX 3 7 1 0
BITMAP
A0
00
00
00
20
00
20
ENDCHAR
STARTCHAR BRAILLE
ENCODING 10410
SWIDTH 545 0
DWIDTH 6 0
BBX 3 7 1 0
BITMAP
20
00
80
00
20
00
20
ENDCHAR
STARTCHAR BRAILLE
ENCODING 10411
SWIDTH 545 0
DWIDTH 6 0
BBX 3 7 1 0
BITMAP
A0
00
80
00
20
00
20
ENDCHAR
STARTCHAR BRAILLE
ENCODING 10412
SWIDTH 545 0
DWIDTH 6 0
BBX 3 7 1 0
BITMAP
20
00
00
00
A0
00
20
ENDCHAR
STARTCHAR BRAILLE
ENCODING 10413
SWIDTH 545 0
DWIDTH 6 0
BBX 3 7 1 0
BITMAP
A0
00
00
00
A0
00
20
ENDCHAR
STARTCHAR BRAILLE
ENCODING 10414
SWIDTH 545 0
DWIDTH 6 0
BBX 3 7 1 0
BITMAP
20
00
80
00
A0
00
20
ENDCHAR
STARTCHAR BRAILLE
ENCODING 10415
SWIDTH 545 0
DWIDTH 6 0
BBX 3 7 1 0
BITMAP
A0
00
80
00
A0
00
20
ENDCHAR
STARTCHAR BRAILLE
ENCODING 10416
SWIDTH 545 0
DWIDTH 6 0
BBX 1 5 3 0
BITMAP
80
00
80
00
80
ENDCHAR
STARTCHAR BRAILLE
ENCODING 10417
SWIDTH 545 0
DWIDTH 6 0
BBX 3 7 1 0
BITMAP
80
00
20
00
20
00
20
ENDCHAR
STARTCHAR BRAILLE
ENCODING 10418
SWIDTH 545 0
DWIDTH 6 0
BBX 3 5 1 0
BITMAP
A0
00
20
00
20
ENDCHAR
STARTCHAR BRAILLE
ENCODING 10419
SWIDTH 545 0
DWIDTH 6 0
BBX 3 7 1 0
BITMAP
80
00
A0
00
20
00
20
ENDCHAR
STARTCHAR BRAILLE
ENCODING 10420
SWIDTH 545 0
DWIDTH 6 0
BBX 3 5 1 0
BITMAP
20
00
A0
00
20
ENDCHAR
STARTCHAR BRAILLE
ENCODING 10421
SWIDTH 545 0
DWIDTH 6 0
BBX 3 7 1 0
BITMAP
80
00
20
00
A0
00
20
ENDCHAR
STARTCHAR BRAILLE
ENCODING 10422
SWIDTH 545 0
DWIDTH 6 0
BBX 3 5 1 0
BITMAP
A0
00
A0
00
20
ENDCHAR
STARTCHAR BRAILLE
ENCODING 10423
SWIDTH 545 0
DWIDTH 6 0
BBX 3 7 1 0
BITMAP
80
00
A0
00
A0
00
20
ENDCHAR
STARTCHAR BRAILLE
ENCODING 10424
SWIDTH 545 0
DWIDTH 6 0
BBX 1 7 3 0
BITMAP
80
00
80
00
80
00
80
ENDCHAR
STARTCHAR BRAILLE
ENCODING 10425
SWIDTH 545 0
DWIDTH 6 0
BBX 3 7 1 0
BITMAP
A0
00
20
00
20
00
20
ENDCHAR
STARTCHAR BRAILLE
ENCODING 10426
SWIDTH 545 0
DWIDTH 6 0
BBX 3 7 1 0
BITMAP
20
00
A0
00
20
00
20
ENDCHAR
STARTCHAR BRAILLE
ENCODING 10427
SWIDTH 545 0
DWIDTH 6 0
BBX 3 7 1 0
BITMAP
A0
00
A0
00
20
00
20
ENDCHAR
STARTCHAR BRAILLE
ENCODING 10428
SWIDTH 545 0
DWIDTH 6 0
BBX 3 7 1 0
BITMAP
20
00
20
00
A0
00
20
ENDCHAR
STARTCHAR BRAILLE
ENCODING 10429
SWIDTH 545 0
DWIDTH 6 0
BBX 3 7 1 0
BITMAP
A0
00
20
00
A0
00
20
ENDCHAR
STARTCHAR BRAILLE
ENCODING 10430
SWIDTH 545 0
DWIDTH 6 0
BBX 3 7 1 0
BITMAP
20
00
A0
00
A0
00
20
ENDCHAR
STARTCHAR BRAILLE
ENCODING 10431
SWIDTH 545 0
DWIDTH 6 0
BBX 3 7 1 0
BITMAP
A0
00
A0
00
A0
00
20
ENDCHAR
STARTCHAR BRAILLE
ENCODING 10432
SWIDTH 545 0
DWIDTH 6 0
BBX 3 1 1 0
BITMAP
A0
ENDCHAR
STARTCHAR BRAILLE
ENCODING 10433
SWIDTH 545 0
DWIDTH 6 0
BBX 3 7 1 0
BITMAP
80
00
00
00
00
00
A0
ENDCHAR
STARTCHAR BRAILLE
ENCODING 10434
SWIDTH 545 0
DWIDTH 6 0
BBX 3 5 1 0
BITMAP
80
00
00
00
A0
ENDCHAR
STARTCHAR BRAILLE
ENCODING 10435
SWIDTH 545 0
DWIDTH 6 0
BBX 3 7 1 0
BITMAP
80
00
80
00
00
00
A0
ENDCHAR
STARTCHAR BRAILLE
ENCODING 10436
SWIDTH 545 0
DWIDTH 6 0
BBX 3 3 1 0
BITMAP
80
00
A0
ENDCHAR
STARTCHAR BRAILLE
ENCODING 10437
SWIDTH 545 0
DWIDTH 6 0
BBX 3 7 1 0
BITMAP
80
00
00
00
80
00
A0
ENDCHAR
STARTCHAR BRAILLE
ENCODING 10438
SWIDTH 545 0
DWIDTH 6 0
BBX 3 5 1 0
BITMAP
80
00
80
00
A0
ENDCHAR
STARTCHAR BRAILLE
ENCODING 10439
SWIDTH 545 0
DWIDTH 6 0
BBX 3 7 1 0
BITMAP
80
00
80
00
80
00
A0
ENDCHAR
STARTCHAR BRAILLE
ENCODING 10440
SWIDTH 545 0
DWIDTH 6 0
BBX 3 7 1 0
BITMAP
20
00
00
00
00
00
A0
ENDCHAR
STARTCHAR BRAILLE
ENCODING 10441
SWIDTH 545 0
DWIDTH 6 0
BBX 3 7 1 0
BITMAP
A0
00
00
00
00
00
A0
ENDCHAR
STARTCHAR BRAILLE
ENCODING 10442
SWIDTH 545 0
DWIDTH 6 0
BBX 3 7 1 0
BITMAP
20
00
80
00
00
00
A0
ENDCHAR
STARTCHAR BRAILLE
ENCODING 10443
SWIDTH 545 0
DWIDTH 6 0
BBX 3 7 1 0
BITMAP
A0
00
80
00
00
00
A0
ENDCHAR
STARTCHAR BRAILLE
ENCODING 10444
SWIDTH 545 0
DWIDTH 6 0
BBX 3 7 1 0
BITMAP
20
00
00
00
80
00
A0
ENDCHAR
STARTCHAR BRAILLE
ENCODING 10445
SWIDTH 545 0
DWIDTH 6 0
BBX 3 7 1 0
BITMAP
A0
00
00
00
80
00
A0
ENDCHAR
STARTCHAR BRAILLE
ENCODING 10446
SWIDTH 545 0
DWIDTH 6 0
BBX 3 7 1 0
BITMAP
20
00
80
00
80
00
A0
ENDCHAR
STARTCHAR BRAILLE
ENCODING 10447
SWIDTH 545 0
DWIDTH 6 0
BBX 3 7 1 0
BITMAP
A0
00
80
00
80
00
A0
ENDCHAR
STARTCHAR BRAILLE
ENCODING 10448
SWIDTH 545 0
DWIDTH 6 0
BBX 3 5 1 0
BITMAP
20
00
00
00
A0
ENDCHAR
STARTCHAR BRAILLE
ENCODING 10449
SWIDTH 545 0
DWIDTH 6 0
BBX 3 7 1 0
BITMAP
80
00
20
00
00
00
A0
ENDCHAR
STARTCHAR BRAILLE
ENCODING 10450
SWIDTH 545 0
DWIDTH 6 0
BBX 3 5 1 0
BITMAP
A0
00
00
00
A0
ENDCHAR
STARTCHAR BRAILLE
ENCODING 10451
SWIDTH 545 0
DWIDTH 6 0
BBX 3 7 1 0
BITMAP
80
00
A0
00
00
00
A0
ENDCHAR
STARTCHAR BRAILLE
ENCODING 10452
SWIDTH 545 0
DWIDTH 6 0
BBX 3 5 1 0
BITMAP
20
00
80
00
A0
ENDCHAR
STARTCHAR BRAILLE
ENCODING 10453
SWIDTH 545 0
DWIDTH 6 0
BBX 3 7 1 0
BITMAP
80
00
20
00
80
00
A0
ENDCHAR
STARTCHAR BRAILLE
ENCODING 10454
SWIDTH 545 0
DWIDTH 6 0
BBX 3 5 1 0
BITMAP
A0
00
80
00
A0
ENDCHAR
STARTCHAR BRAILLE
ENCODING 10455
SWIDTH 545 0
DWIDTH 6 0
BBX 3 7 1 0
BITMAP
80
00
A0
00
80
00
A0
ENDCHAR
STARTCHAR BRAILLE
ENCODING 10456
SWIDTH 545 0
DWIDTH 6 0
BBX 3 7 1 0
BITMAP
20
00
20
00
00
00
A0
ENDCHAR
STARTCHAR BRAILLE
ENCODING 10457
SWIDTH 545 0
DWIDTH 6 0
BBX 3 7 1 0
BITMAP
A0
00
20
00
00
00
A0
ENDCHAR
STARTCHAR BRAILLE
ENCODING 10458
SWIDTH 545 0
DWIDTH 6 0
BBX 3 7 1 0
BITMAP
20
00
A0
00
00
00
A0
ENDCHAR
STARTCHAR BRAILLE
ENCODING 10459
SWIDTH 545 0
DWIDTH 6 0
BBX 3 7 1 0
BITMAP
A0
00
A0
00
00
00
A0
ENDCHAR
STARTCHAR BRAILLE
ENCODING 10460
SWIDTH 545 0
DWIDTH 6 0
BBX 3 7 1 0
BITMAP
20
00
20
00
80
00
A0
ENDCHAR
STARTCHAR BRAILLE
ENCODING 10461
SWIDTH 545 0
DWIDTH 6 0
BBX 3 7 1 0
BITMAP
A0
00
20
00
80
00
A0
ENDCHAR
STARTCHAR BRAILLE
ENCODING 10462
SWIDTH 545 0
DWIDTH 6 0
BBX 3 7 1 0
BITMAP
20
00
A0
00
80
00
A0
ENDCHAR
STARTCHAR BRAILLE
ENCODING 10463
SWIDTH 545 0
DWIDTH 6 0
BBX 3 7 1 0
BITMAP
A0
00
A0
00
80
00
A0
ENDCHAR
STARTCHAR BRAILLE
ENCODING 10464
SWIDTH 545 0
DWIDTH 6 0
BBX 3 3 1 0
BITMAP
20
00
A0
ENDCHAR
STARTCHAR BRAILLE
ENCODING 10465
SWIDTH 545 0
DWIDTH 6 0
BBX 3 7 1 0
BITMAP
80
00
00
00
20
00
A0
ENDCHAR
STARTCHAR BRAILLE
ENCODING 10466
SWIDTH 545 0
DWIDTH 6 0
BBX 3 5 1 0
BITMAP
80
00
20
00
A0
ENDCHAR
STARTCHAR BRAILLE
ENCODING 10467
SWIDTH 545 0
DWIDTH 6 0
BBX 3 7 1 0
BITMAP
80
00
80
00
20
00
A0
ENDCHAR
STARTCHAR BRAILLE
ENCODING 10468
SWIDTH 545 0
DWIDTH 6 0
BBX 3 3 1 0
BITMAP
A0
00
A0
ENDCHAR
STARTCHAR BRAILLE
ENCODING 10469
SWIDTH 545 0
DWIDTH 6 0
BBX 3 7 1 0
BITMAP
80
00
00
00
A0
00
A0
ENDCHAR
STARTCHAR BRAILLE
ENCODING 10470
SWIDTH 545 0
DWIDTH 6 0
BBX 3 5 1 0
BITMAP
80
00
A0
00
A0
ENDCHAR
STARTCHAR BRAILLE
ENCODING 10471
SWIDTH 545 0
DWIDTH 6 0
BBX 3 7 1 0
BITMAP
80
00
80
00
A0
00
A0
ENDCHAR
STARTCHAR BRAILLE
ENCODING 10472
SWIDTH 545 0
DWIDTH 6 0
BBX 3 7 1 0
BITMAP
20
00
00
00
20
00
A0
ENDCHAR
STARTCHAR BRAILLE
ENCODING 10473
SWIDTH 545 0
DWIDTH 6 0
BBX 3 7 1 0
BITMAP
A0
00
00
00
20
00
A0
ENDCHAR
STARTCHAR BRAILLE
ENCODING 10474
SWIDTH 545 0
DWIDTH 6 0
BBX 3 7 1 0
BITMAP
20
00
80
00
20
00
A0
ENDCHAR
STARTCHAR BRAILLE
ENCODING 10475
SWIDTH 545 0
DWIDTH 6 0
BBX 3 7 1 0
BITMAP
A0
00
80
00
20
00
A0
ENDCHAR
STARTCHAR BRAILLE
ENCODING 10476
SWIDTH 545 0
DWIDTH 6 0
BBX 3 7 1 0
BITMAP
20
00
00
00
A0
00
A0
ENDCHAR
STARTCHAR BRAILLE
ENCODING 10477
SWIDTH 545 0
DWIDTH 6 0
BBX 3 7 1 0
BITMAP
A0
00
00
00
A0
00
A0
ENDCHAR
STARTCHAR BRAILLE
ENCODING 10478
SWIDTH 545 0
DWIDTH 6 0
BBX 3 7 1 0
BITMAP
20
00
80
00
A0
00
A0
ENDCHAR
STARTCHAR BRAILLE
ENCODING 10479
SWIDTH 545 0
DWIDTH 6 0
BBX 3 7 1 0
BITMAP
A0
00
80
00
A0
00
A0
ENDCHAR
STARTCHAR BRAILLE
ENCODING 10480
SWIDTH 545 0
DWIDTH 6 0
BBX 3 5 1 0
BITMAP
20
00
20
00
A0
ENDCHAR
STARTCHAR BRAILLE
ENCODING 10481
SWIDTH 545 0
DWIDTH 6 0
BBX 3 7 1 0
BITMAP
80
00
20
00
20
00
A0
ENDCHAR
STARTCHAR BRAILLE
ENCODING 10482
SWIDTH 545 0
DWIDTH 6 0
BBX 3 5 1 0
BITMAP
A0
00
20
00
A0
ENDCHAR
STARTCHAR BRAILLE
ENCODING 10483
SWIDTH 545 0
DWIDTH 6 0
BBX 3 7 1 0
BITMAP
80
00
A0
00
20
00
A0
ENDCHAR
STARTCHAR BRAILLE
ENCODING 10484
SWIDTH 545 0
DWIDTH 6 0
BBX 3 5 1 0
BITMAP
20
00
A0
00
A0
ENDCHAR
STARTCHAR BRAILLE
ENCODING 10485
SWIDTH 545 0
DWIDTH 6 0
BBX 3 7 1 0
BITMAP
80
00
20
00
A0
00
A0
ENDCHAR
STARTCHAR BRAILLE
ENCODING 10486
SWIDTH 545 0
DWIDTH 6 0
BBX 3 5 1 0
BITMAP
A0
00
A0
00
A0
ENDCHAR
STARTCHAR BRAILLE
ENCODING 10487
SWIDTH 545 0
DWIDTH 6 0
BBX 3 7 1 0
BITMAP
80
00
A0
00
A0
00
A0
ENDCHAR
STARTCHAR BRAILLE
ENCODING 10488
SWIDTH 545 0
DWIDTH 6 0
BBX 3 7 1 0
BITMAP
20
00
20
00
20
00
A0
ENDCHAR
STARTCHAR BRAILLE
ENCODING 10489
SWIDTH 545 0
DWIDTH 6 0
BBX 3 7 1 0
BITMAP
A0
00
20
00
20
00
A0
ENDCHAR
STARTCHAR BRAILLE
ENCODING 10490
SWIDTH 545 0
DWIDTH 6 0
BBX 3 7 1 0
BITMAP
20
00
A0
00
20
00
A0
ENDCHAR
STARTCHAR BRAILLE
ENCODING 10491
SWIDTH 545 0
DWIDTH 6 0
BBX 3 7 1 0
BITMAP
A0
00
A0
00
20
00
A0
ENDCHAR
STARTCHAR BRAILLE
ENCODING 10492
SWIDTH 545 0
DWIDTH 6 0
BBX 3 7 1 0
BITMAP
20
00
20
00
A0
00
A0
ENDCHAR
STARTCHAR BRAILLE
ENCODING 10493
SWIDTH 545 0
DWIDTH 6 0
BBX 3 7 1 0
BITMAP
A0
00
20
00
A0
00
A0
ENDCHAR
STARTCHAR BRAILLE
ENCODING 10494
SWIDTH 545 0
DWIDTH 6 0
BBX 3 7 1 0
BITMAP
20
00
A0
00
A0
00
A0
ENDCHAR
STARTCHAR BRAILLE
ENCODING 10495
SWIDTH 545 0
DWIDTH 6 0
BBX 3 7 1 0
BITMAP
A0
00
A0
00
A0
00
A0
ENDCHAR
STARTCHAR LATIN
ENCODING 64257
SWIDTH 545 0
DWIDTH 6 0
BBX 5 7 0 0
BITMAP
30
48
40
E8
48
48
48
ENDCHAR
STARTCHAR LATIN
ENCODING 64258
SWIDTH 545 0
DWIDTH 6 0
BBX 6 7 0 0
BITMAP
38
48
48
F8
48
48
44
ENDCHAR
STARTCHAR REPLACEMENT
ENCODING 65533
SWIDTH 545 0
DWIDTH 6 0
BBX 5 8 0 -1
BITMAP
70
D8
A8
E8
D8
F8
D8
70
ENDCHAR
STARTCHAR .notdef
ENCODING -1
SWIDTH 545 0
DWIDTH 6 0
BBX 5 8 1 0
BITMAP
F8
88
88
88
88
88
88
F8
ENDCHAR
STARTCHAR .null
ENCODING -1
SWIDTH 545 0
DWIDTH 6 0
BBX 1 1 0 0
BITMAP
00
ENDCHAR
STARTCHAR nonmarkingreturn
ENCODING -1
SWIDTH 545 0
DWIDTH 6 0
BBX 1 1 0 0
BITMAP
00
ENDCHAR
STARTCHAR control
ENCODING -1
SWIDTH 545 0
DWIDTH 6 0
BBX 5 8 0 0
BITMAP
A8
00
88
00
00
88
00
A8
ENDCHAR
ENDFONT
